<svg width="14"
     height="14"
     viewBox="0 0 14 14"
     fill="none"
     xmlns="http://www.w3.org/2000/svg">
    <path d="M7.00074 0.318359C3.32074 0.318359 0.340744 3.30503 0.340744 6.98503C0.340744 10.665 3.32074 13.6517 7.00074 13.6517C10.6874 13.6517 13.6741 10.665 13.6741 6.98503C13.6741 3.30503 10.6874 0.318359 7.00074 0.318359ZM7.00741 12.3184C4.06074 12.3184 1.67408 9.93169 1.67408 6.98503C1.67408 4.03836 4.06074 1.65169 7.00741 1.65169C9.95408 1.65169 12.3407 4.03836 12.3407 6.98503C12.3407 9.93169 9.95408 12.3184 7.00741 12.3184ZM9.34074 6.31836C9.89408 6.31836 10.3407 5.87169 10.3407 5.31836C10.3407 4.76503 9.89408 4.31836 9.34074 4.31836C8.78741 4.31836 8.34074 4.76503 8.34074 5.31836C8.34074 5.87169 8.78741 6.31836 9.34074 6.31836ZM4.67408 6.31836C5.22741 6.31836 5.67408 5.87169 5.67408 5.31836C5.67408 4.76503 5.22741 4.31836 4.67408 4.31836C4.12074 4.31836 3.67408 4.76503 3.67408 5.31836C3.67408 5.87169 4.12074 6.31836 4.67408 6.31836ZM7.00741 10.6517C8.36074 10.6517 9.54074 9.91169 10.1741 8.81836C10.3007 8.59836 10.1407 8.31836 9.88074 8.31836H4.13408C3.88074 8.31836 3.71408 8.59836 3.84074 8.81836C4.47408 9.91169 5.65408 10.6517 7.00741 10.6517Z"
          fill="white" />
</svg>