<svg width="12"
     height="13"
     viewBox="0 0 12 13"
     fill="none"
     xmlns="http://www.w3.org/2000/svg">
    <path d="M0.674082 7.65177H4.67408C5.04075 7.65177 5.34075 7.35177 5.34075 6.98511V1.65177C5.34075 1.28511 5.04075 0.985107 4.67408 0.985107H0.674082C0.307416 0.985107 0.00741577 1.28511 0.00741577 1.65177V6.98511C0.00741577 7.35177 0.307416 7.65177 0.674082 7.65177ZM0.674082 12.9851H4.67408C5.04075 12.9851 5.34075 12.6851 5.34075 12.3184V9.65177C5.34075 9.28511 5.04075 8.98511 4.67408 8.98511H0.674082C0.307416 8.98511 0.00741577 9.28511 0.00741577 9.65177V12.3184C0.00741577 12.6851 0.307416 12.9851 0.674082 12.9851ZM7.34075 12.9851H11.3407C11.7074 12.9851 12.0074 12.6851 12.0074 12.3184V6.98511C12.0074 6.61844 11.7074 6.31844 11.3407 6.31844H7.34075C6.97408 6.31844 6.67408 6.61844 6.67408 6.98511V12.3184C6.67408 12.6851 6.97408 12.9851 7.34075 12.9851ZM6.67408 1.65177V4.31844C6.67408 4.68511 6.97408 4.98511 7.34075 4.98511H11.3407C11.7074 4.98511 12.0074 4.68511 12.0074 4.31844V1.65177C12.0074 1.28511 11.7074 0.985107 11.3407 0.985107H7.34075C6.97408 0.985107 6.67408 1.28511 6.67408 1.65177Z"
          fill="white" />
</svg>