<svg width="138"
     height="138"
     viewBox="0 0 138 138"
     fill="none"
     xmlns="http://www.w3.org/2000/svg">
    <g filter="url(#filter0_di_366_2375)">
        <path d="M37.8753 72.8342C38.3746 72.8342 38.7395 73.0935 38.97 73.612C39.1236 73.9385 39.258 74.2938 39.3733 74.6779C39.4885 75.0428 39.6133 75.3981 39.7478 75.7438L41.3034 80.0074C42.2445 82.6193 43.1663 85.2505 44.069 87.9008C44.9716 90.532 45.9127 93.1439 46.8922 95.7366C46.9114 95.7942 46.9498 95.8903 47.0074 96.0247C47.0842 96.1399 47.1611 96.1976 47.2379 96.1976C47.3339 96.1976 47.4107 96.1399 47.4683 96.0247C47.526 95.8903 47.5644 95.7942 47.5836 95.7366C47.8717 94.9108 48.1501 94.0754 48.419 93.2303C48.6879 92.3853 48.9568 91.5498 49.2256 90.724C49.821 88.9379 50.4164 87.1518 51.0117 85.3657C51.6071 83.5796 52.2025 81.8031 52.7978 80.0362L54.2383 75.7726C54.3535 75.4269 54.4687 75.0716 54.584 74.7067C54.6992 74.3226 54.824 73.9673 54.9585 73.6408C55.1889 73.1031 55.5634 72.8342 56.082 72.8342H62.1605C62.4486 72.8342 62.7366 72.8918 63.0247 73.007C63.3128 73.1031 63.4568 73.3335 63.4568 73.6984C63.4568 73.9097 63.3896 74.169 63.2552 74.4762C61.738 78.1253 60.2303 81.7839 58.7323 85.4521C57.2535 89.1012 55.7843 92.7694 54.3247 96.4568L49.9458 107.462C49.6386 108.287 49.3217 109.113 48.9952 109.939C48.6879 110.746 48.3614 111.552 48.0157 112.359C47.9389 112.532 47.8044 112.801 47.6124 113.166C47.4203 113.53 47.1899 113.713 46.921 113.713C46.6521 113.713 46.4217 113.53 46.2296 113.166C46.0375 112.801 45.9031 112.532 45.8263 112.359C45.4806 111.552 45.1541 110.746 44.8468 109.939C44.5395 109.113 44.2226 108.287 43.8961 107.462L40.0071 97.6668C38.4898 93.7873 36.9438 89.9174 35.3689 86.0571C33.7941 82.1776 32.2001 78.3173 30.5868 74.4762C30.4524 74.169 30.3851 73.9001 30.3851 73.6696C30.3851 73.3047 30.5292 73.0743 30.8173 72.9782C31.1053 72.8822 31.3838 72.8342 31.6527 72.8342H37.8753ZM69.9387 113.223C69.1512 113.223 68.7575 112.82 68.7575 112.013C68.7575 110.995 68.7767 109.987 68.8152 108.988C68.8536 107.97 68.8824 106.962 68.9016 105.964C68.94 103.736 68.9688 101.517 68.988 99.3088C69.0264 97.081 69.0456 94.8628 69.0456 92.6542C69.0456 90.5224 69.036 88.3906 69.0168 86.2588C68.9976 84.127 68.9688 81.9952 68.9304 79.8634C68.9112 78.9031 68.8824 77.9332 68.844 76.9537C68.8056 75.9743 68.7863 75.0044 68.7863 74.0441C68.7863 73.2375 69.1801 72.8342 69.9675 72.8342H80.7705C83.997 72.8342 87.0315 73.2951 89.8739 74.217C92.7355 75.1388 95.2226 76.608 97.3352 78.6246C99.4478 80.622 101.003 83.2531 102.002 86.518C102.713 88.8611 103.068 91.2426 103.068 93.6624C103.068 97.5995 102.175 101.037 100.389 103.976C98.6219 106.895 96.2021 109.171 93.1292 110.803C90.0755 112.417 86.6186 113.223 82.7583 113.223H69.9387ZM76.1612 106.28H81.4907C85.7735 106.28 89.1921 105.157 91.7464 102.91C94.3199 100.644 95.6067 97.3115 95.6067 92.9134C95.6067 90.4167 95.0785 88.1793 94.0222 86.2011C92.9659 84.2038 91.4871 82.6289 89.5858 81.4766C87.6845 80.3243 85.4566 79.7481 82.9023 79.7481H76.19C76.2092 81.7839 76.2188 83.8293 76.2188 85.8843C76.238 87.9392 76.2476 89.9942 76.2476 92.0492C76.2476 96.7737 76.2188 101.517 76.1612 106.28Z"
              fill="url(#paint0_linear_366_2375)" />
    </g>
    <g filter="url(#filter1_di_366_2375)">
        <path d="M32.4112 65.7764C32.1423 65.7764 31.8543 65.738 31.547 65.6611C31.2397 65.5651 31.086 65.3346 31.086 64.9697C31.086 64.8161 31.1148 64.6625 31.1725 64.5088C31.2301 64.3552 31.2877 64.2111 31.3453 64.0767C33.0354 60.4277 34.7063 56.7786 36.3579 53.1296C38.0288 49.4806 39.6709 45.8124 41.2841 42.1249C42.6093 39.0905 43.9249 36.056 45.2308 33.0216C46.5368 29.9679 47.8812 26.943 49.264 23.947C49.3216 23.8318 49.4176 23.7742 49.552 23.7742C49.6865 23.7742 49.7825 23.8318 49.8401 23.947C51.2229 26.943 52.5673 29.9679 53.8732 33.0216C55.1792 36.056 56.4948 39.0905 57.82 42.1249C59.4332 45.8124 61.0657 49.4806 62.7173 53.1296C64.3882 56.7786 66.0687 60.4277 67.7588 64.0767C67.8164 64.2111 67.874 64.3552 67.9316 64.5088C67.9892 64.6625 68.018 64.8161 68.018 64.9697C68.018 65.3346 67.8644 65.5651 67.5571 65.6611C67.2498 65.738 66.9617 65.7764 66.6929 65.7764H60.8736C60.3935 65.7764 60.0286 65.5363 59.7789 65.0562C59.6253 64.7489 59.4812 64.4224 59.3468 64.0767C59.2124 63.731 59.0779 63.4045 58.9435 63.0972C58.521 62.1369 58.108 61.1575 57.7047 60.1588C57.3206 59.1601 56.9077 58.1806 56.466 57.2204C56.4084 57.0667 56.3027 56.9899 56.1491 56.9899H41.8891C41.7354 56.9899 41.6298 57.0667 41.5722 57.2204C41.1113 58.1806 40.6695 59.1601 40.247 60.1588C39.8437 61.1575 39.4212 62.1465 38.9795 63.126C38.845 63.4333 38.701 63.7598 38.5473 64.1055C38.4129 64.4512 38.2593 64.7777 38.0864 65.085C37.8367 65.5459 37.4814 65.7764 37.0205 65.7764H32.4112ZM44.2802 50.969H53.8732C53.105 49.0485 52.3272 47.1375 51.5398 45.2362C50.7524 43.3156 49.9649 41.3951 49.1775 39.4746C48.3709 41.3951 47.5547 43.3156 46.7288 45.2362C45.9222 47.1375 45.106 49.0485 44.2802 50.969ZM78.8499 25.4162C79.5797 25.4162 79.9734 25.8099 80.031 26.5973C80.0886 27.4424 80.1078 28.3066 80.0886 29.1901C80.0694 30.0735 80.0694 30.9474 80.0886 31.8116C80.1078 33.6361 80.1174 35.4606 80.1174 37.2852C80.1174 39.1097 80.1174 40.9342 80.1174 42.7587C80.1174 42.9892 80.2135 43.1044 80.4055 43.1044H80.5496C87.041 41.3183 91.4774 37.2563 93.8589 30.9186C94.147 30.1888 94.3678 29.459 94.5215 28.7291C94.6943 27.9801 94.8768 27.2215 95.0688 26.4533C95.1649 26.1076 95.2897 25.8483 95.4433 25.6755C95.597 25.5026 95.8659 25.4162 96.25 25.4162H101.032C101.359 25.4162 101.637 25.4834 101.868 25.6179C102.098 25.7523 102.213 26.0116 102.213 26.3957C102.213 26.5685 102.204 26.6934 102.184 26.7702C101.512 30.0543 100.36 33.1368 98.7275 36.0176C97.095 38.8984 94.9632 41.3951 92.3321 43.5077C91.8327 43.9302 91.3142 44.3239 90.7764 44.6888C90.2579 45.0345 89.7201 45.3802 89.1632 45.7259C89.0287 45.7835 88.9615 45.8796 88.9615 46.014C88.9615 46.0908 89.24 46.5326 89.797 47.3392C90.3731 48.1266 91.1125 49.1445 92.0152 50.3928C92.9178 51.6412 93.8877 52.976 94.9248 54.3972C95.9811 55.7992 96.999 57.1627 97.9785 58.4879C98.9579 59.8131 99.803 60.9558 100.514 61.9161C101.224 62.8571 101.685 63.4813 101.896 63.7886C102.012 63.9423 102.127 64.1247 102.242 64.336C102.376 64.5472 102.444 64.7585 102.444 64.9697C102.444 65.3154 102.252 65.5267 101.868 65.6035C101.483 65.6611 101.176 65.6899 100.946 65.6899H95.3569C94.992 65.6899 94.6847 65.5363 94.4351 65.229C93.8781 64.5568 93.3308 63.8654 92.793 63.1548C92.2745 62.425 91.7463 61.7048 91.2086 60.9942C90.2099 59.669 89.2112 58.3439 88.2125 57.0187C87.233 55.6935 86.244 54.3588 85.2453 53.0144C84.7075 52.3038 84.1794 51.5932 83.6608 50.8826C83.1615 50.1528 82.6333 49.4422 82.0764 48.7508C81.9804 48.6548 81.9035 48.6067 81.8459 48.6067C81.6539 48.6067 81.4234 48.6355 81.1545 48.6932C80.8856 48.7316 80.6456 48.77 80.4343 48.8084C80.2231 48.8468 80.1174 48.9716 80.1174 49.1829C80.1174 50.9306 80.1078 52.6783 80.0886 54.426C80.0886 56.1545 80.079 57.8829 80.0598 59.6114C80.0406 60.4373 80.0406 61.2727 80.0598 62.1177C80.079 62.9628 80.0598 63.7886 80.0022 64.5952C79.9446 65.3827 79.5509 65.7764 78.8211 65.7764H73.8085C73.021 65.7764 72.6273 65.3731 72.6273 64.5664C72.6273 63.5293 72.6465 62.4922 72.6849 61.4552C72.7234 60.3989 72.7522 59.3522 72.7714 58.3151C72.829 53.8978 72.8578 49.5094 72.8578 45.1498C72.8578 40.9438 72.829 36.757 72.7714 32.5894C72.7522 31.5908 72.7234 30.6017 72.6849 29.6222C72.6657 28.6235 72.6561 27.6248 72.6561 26.6262C72.6561 25.8195 73.0498 25.4162 73.8373 25.4162H78.8499Z"
              fill="url(#paint1_linear_366_2375)" />
    </g>
    <g filter="url(#filter2_d_366_2375)">
        <path fill-rule="evenodd"
              clip-rule="evenodd"
              d="M29.7606 81.5725C16.8108 92.7 10.0141 103.029 13.1648 108.68C16.2061 114.134 27.8286 113.996 43.2694 109.332L42.4776 107.551C40.0835 108.268 37.7873 108.874 35.6076 109.363C29.8237 110.661 24.9718 111.115 21.3357 110.743C17.6333 110.364 15.664 109.19 14.854 107.738C14.044 106.285 14.0813 103.993 15.7049 100.644C17.2995 97.3551 20.2366 93.4666 24.3815 89.2288C26.0062 87.5676 27.8042 85.8653 29.7606 84.1374V81.5725ZM52.4316 104.129C60.2255 101.131 68.6664 97.1853 77.2614 92.3931C92.5611 83.8625 105.323 74.3374 113.594 65.8805C117.739 61.6427 120.676 57.7541 122.271 54.4652C123.895 51.1163 123.932 48.8243 123.122 47.3716C122.312 45.9188 120.343 44.7456 116.64 44.3663C113.004 43.9938 108.152 44.4481 102.368 45.7462C100.048 46.267 97.5954 46.9195 95.0332 47.699L93.688 46.0895C109.635 41.1225 121.703 40.8556 124.811 46.4297C129.901 55.5577 109.034 76.8925 78.2032 94.0823C68.88 99.2806 59.7134 103.505 51.3204 106.616L52.4316 104.129Z"
              fill="#FCEDFF" />
    </g>
    <defs>
        <filter id="filter0_di_366_2375"
                x="22.4813"
                y="64.9304"
                width="88.4906"
                height="56.6864"
                filterUnits="userSpaceOnUse"
                color-interpolation-filters="sRGB">
            <feFlood flood-opacity="0"
                     result="BackgroundImageFix" />
            <feColorMatrix in="SourceAlpha"
                           type="matrix"
                           values="0 0 0 0 0 0 0 0 0 0 0 0 0 0 0 0 0 0 127 0"
                           result="hardAlpha" />
            <feOffset />
            <feGaussianBlur stdDeviation="3.95194" />
            <feComposite in2="hardAlpha"
                         operator="out" />
            <feColorMatrix type="matrix"
                           values="0 0 0 0 0.355052 0 0 0 0 0.204465 0 0 0 0 0.899479 0 0 0 1 0" />
            <feBlend mode="normal"
                     in2="BackgroundImageFix"
                     result="effect1_dropShadow_366_2375" />
            <feBlend mode="normal"
                     in="SourceGraphic"
                     in2="effect1_dropShadow_366_2375"
                     result="shape" />
            <feColorMatrix in="SourceAlpha"
                           type="matrix"
                           values="0 0 0 0 0 0 0 0 0 0 0 0 0 0 0 0 0 0 127 0"
                           result="hardAlpha" />
            <feOffset dy="1.57655" />
            <feGaussianBlur stdDeviation="0.788277" />
            <feComposite in2="hardAlpha"
                         operator="arithmetic"
                         k2="-1"
                         k3="1" />
            <feColorMatrix type="matrix"
                           values="0 0 0 0 0 0 0 0 0 0 0 0 0 0 0 0 0 0 0.25 0" />
            <feBlend mode="normal"
                     in2="shape"
                     result="effect2_innerShadow_366_2375" />
        </filter>
        <filter id="filter1_di_366_2375"
                x="23.1822"
                y="15.8703"
                width="87.1654"
                height="57.8099"
                filterUnits="userSpaceOnUse"
                color-interpolation-filters="sRGB">
            <feFlood flood-opacity="0"
                     result="BackgroundImageFix" />
            <feColorMatrix in="SourceAlpha"
                           type="matrix"
                           values="0 0 0 0 0 0 0 0 0 0 0 0 0 0 0 0 0 0 127 0"
                           result="hardAlpha" />
            <feOffset />
            <feGaussianBlur stdDeviation="3.95194" />
            <feComposite in2="hardAlpha"
                         operator="out" />
            <feColorMatrix type="matrix"
                           values="0 0 0 0 0.355052 0 0 0 0 0.204465 0 0 0 0 0.899479 0 0 0 1 0" />
            <feBlend mode="normal"
                     in2="BackgroundImageFix"
                     result="effect1_dropShadow_366_2375" />
            <feBlend mode="normal"
                     in="SourceGraphic"
                     in2="effect1_dropShadow_366_2375"
                     result="shape" />
            <feColorMatrix in="SourceAlpha"
                           type="matrix"
                           values="0 0 0 0 0 0 0 0 0 0 0 0 0 0 0 0 0 0 127 0"
                           result="hardAlpha" />
            <feOffset dy="1.57655" />
            <feGaussianBlur stdDeviation="0.788277" />
            <feComposite in2="hardAlpha"
                         operator="arithmetic"
                         k2="-1"
                         k3="1" />
            <feColorMatrix type="matrix"
                           values="0 0 0 0 0 0 0 0 0 0 0 0 0 0 0 0 0 0 0.25 0" />
            <feBlend mode="normal"
                     in2="shape"
                     result="effect2_innerShadow_366_2375" />
        </filter>
        <filter id="filter2_d_366_2375"
                x="11.8895"
                y="42.3066"
                width="114.197"
                height="71.518"
                filterUnits="userSpaceOnUse"
                color-interpolation-filters="sRGB">
            <feFlood flood-opacity="0"
                     result="BackgroundImageFix" />
            <feColorMatrix in="SourceAlpha"
                           type="matrix"
                           values="0 0 0 0 0 0 0 0 0 0 0 0 0 0 0 0 0 0 127 0"
                           result="hardAlpha" />
            <feOffset dy="0.511056" />
            <feGaussianBlur stdDeviation="0.255528" />
            <feComposite in2="hardAlpha"
                         operator="out" />
            <feColorMatrix type="matrix"
                           values="0 0 0 0 0 0 0 0 0 0 0 0 0 0 0 0 0 0 0.25 0" />
            <feBlend mode="normal"
                     in2="BackgroundImageFix"
                     result="effect1_dropShadow_366_2375" />
            <feBlend mode="normal"
                     in="SourceGraphic"
                     in2="effect1_dropShadow_366_2375"
                     result="shape" />
        </filter>
        <linearGradient id="paint0_linear_366_2375"
                        x1="66.9714"
                        y1="60.2231"
                        x2="66.9714"
                        y2="125.223"
                        gradientUnits="userSpaceOnUse">
            <stop stop-color="#48E6FF" />
            <stop offset="0.5"
                  stop-color="#9274FF" />
            <stop offset="1"
                  stop-color="#C159D8" />
        </linearGradient>
        <linearGradient id="paint1_linear_366_2375"
                        x1="67.1538"
                        y1="12.7764"
                        x2="67.1538"
                        y2="77.7764"
                        gradientUnits="userSpaceOnUse">
            <stop stop-color="#48E6FF" />
            <stop offset="0.5"
                  stop-color="#9274FF" />
            <stop offset="1"
                  stop-color="#C159D8" />
        </linearGradient>
    </defs>
</svg>