<svg width="12"
     height="16"
     viewBox="0 0 12 16"
     fill="none"
     xmlns="http://www.w3.org/2000/svg">
    <path d="M6.00742 15.3184C6.74076 15.3184 7.33409 14.7251 7.33409 13.9918H4.68076C4.68076 14.7251 5.27409 15.3184 6.00742 15.3184ZM11.5341 12.1784L10.6741 11.3184V7.31844C10.6741 5.08511 9.10076 3.21844 7.00742 2.76511V1.98511C7.00742 1.43177 6.56076 0.985107 6.00742 0.985107C5.45409 0.985107 5.00742 1.43177 5.00742 1.98511V2.76511C2.91409 3.21844 1.34076 5.08511 1.34076 7.31844V11.3184L0.480757 12.1784C0.0607573 12.5984 0.354091 13.3184 0.947424 13.3184H11.0608C11.6608 13.3184 11.9541 12.5984 11.5341 12.1784ZM6.67409 10.6518H5.34076V9.31844H6.67409V10.6518ZM6.67409 7.31844C6.67409 7.68511 6.37409 7.98511 6.00742 7.98511C5.64076 7.98511 5.34076 7.68511 5.34076 7.31844V5.98511C5.34076 5.61844 5.64076 5.31844 6.00742 5.31844C6.37409 5.31844 6.67409 5.61844 6.67409 5.98511V7.31844Z"
          fill="white" />
</svg>