<svg width="55"
     height="38"
     viewBox="0 0 55 38"
     fill="none"
     xmlns="http://www.w3.org/2000/svg">
    <path d="M39.4999 19C43.1799 19 46.1399 16.0133 46.1399 12.3333C46.1399 8.65331 43.1799 5.66665 39.4999 5.66665C35.8199 5.66665 32.8333 8.65331 32.8333 12.3333C32.8333 16.0133 35.8199 19 39.4999 19ZM19.4999 16.3333C23.9266 16.3333 27.4733 12.76 27.4733 8.33331C27.4733 3.90665 23.9266 0.333313 19.4999 0.333313C15.0733 0.333313 11.4999 3.90665 11.4999 8.33331C11.4999 12.76 15.0733 16.3333 19.4999 16.3333ZM39.4999 24.3333C34.6199 24.3333 24.8333 26.7866 24.8333 31.6666V35C24.8333 36.4666 26.0333 37.6666 27.4999 37.6666H51.4999C52.9666 37.6666 54.1666 36.4666 54.1666 35V31.6666C54.1666 26.7866 44.3799 24.3333 39.4999 24.3333ZM19.4999 21.6666C13.2866 21.6666 0.833252 24.7866 0.833252 31V35C0.833252 36.4666 2.03325 37.6666 3.49992 37.6666H19.4999V31.6666C19.4999 29.4 20.3799 25.4266 25.8199 22.4133C23.4999 21.9333 21.2599 21.6666 19.4999 21.6666Z"
          fill="white" />
</svg>