<svg width="54"
     height="54"
     viewBox="0 0 54 54"
     fill="none"
     xmlns="http://www.w3.org/2000/svg">
    <path d="M27.0002 0.333313C12.2802 0.333313 0.333496 12.28 0.333496 27C0.333496 41.72 12.2802 53.6666 27.0002 53.6666C41.7202 53.6666 53.6668 41.72 53.6668 27C53.6668 12.28 41.7202 0.333313 27.0002 0.333313ZM27.0002 29.6666C25.5335 29.6666 24.3335 28.4666 24.3335 27V16.3333C24.3335 14.8666 25.5335 13.6666 27.0002 13.6666C28.4668 13.6666 29.6668 14.8666 29.6668 16.3333V27C29.6668 28.4666 28.4668 29.6666 27.0002 29.6666ZM29.6668 40.3333H24.3335V35H29.6668V40.3333Z"
          fill="white" />
</svg>