<svg width="65" height="64" viewBox="0 0 65 64" fill="none" xmlns="http://www.w3.org/2000/svg">
<g clip-path="url(#clip0_2210_91621)">
<g filter="url(#filter0_d_2210_91621)">
<path d="M32.4997 5.3335C17.7797 5.3335 5.83301 17.2802 5.83301 32.0002C5.83301 46.7202 17.7797 58.6668 32.4997 58.6668C47.2197 58.6668 59.1663 46.7202 59.1663 32.0002C59.1663 17.2802 47.2197 5.3335 32.4997 5.3335ZM25.273 43.4402L15.6997 33.8668C14.6597 32.8268 14.6597 31.1468 15.6997 30.1068C16.7397 29.0668 18.4197 29.0668 19.4597 30.1068L27.1663 37.7868L45.513 19.4402C46.553 18.4002 48.233 18.4002 49.273 19.4402C50.313 20.4802 50.313 22.1602 49.273 23.2002L29.033 43.4402C28.0197 44.4802 26.313 44.4802 25.273 43.4402Z" fill="#DBCDEF"/>
</g>
</g>
<defs>
<filter id="filter0_d_2210_91621" x="-4.16699" y="-4.6665" width="73.333" height="73.3335" filterUnits="userSpaceOnUse" color-interpolation-filters="sRGB">
<feFlood flood-opacity="0" result="BackgroundImageFix"/>
<feColorMatrix in="SourceAlpha" type="matrix" values="0 0 0 0 0 0 0 0 0 0 0 0 0 0 0 0 0 0 127 0" result="hardAlpha"/>
<feOffset/>
<feGaussianBlur stdDeviation="5"/>
<feComposite in2="hardAlpha" operator="out"/>
<feColorMatrix type="matrix" values="0 0 0 0 0.807843 0 0 0 0 0.415686 0 0 0 0 1 0 0 0 1 0"/>
<feBlend mode="normal" in2="BackgroundImageFix" result="effect1_dropShadow_2210_91621"/>
<feBlend mode="normal" in="SourceGraphic" in2="effect1_dropShadow_2210_91621" result="shape"/>
</filter>
<clipPath id="clip0_2210_91621">
<rect width="64" height="64" fill="white" transform="translate(0.5)"/>
</clipPath>
</defs>
</svg>
