<svg width="65" height="64" viewBox="0 0 65 64" fill="none" xmlns="http://www.w3.org/2000/svg">
<g clip-path="url(#clip0_2210_91186)">
<path d="M27.1667 31.9998C33.0577 31.9998 37.8333 27.2242 37.8333 21.3332C37.8333 15.4421 33.0577 10.6665 27.1667 10.6665C21.2756 10.6665 16.5 15.4421 16.5 21.3332C16.5 27.2242 21.2756 31.9998 27.1667 31.9998Z" fill="white"/>
<path d="M28.0997 37.3599C20.8197 37.0932 5.83301 40.7199 5.83301 47.9999V50.6666C5.83301 52.1332 7.03301 53.3332 8.49967 53.3332H31.273C24.6863 45.9732 27.993 37.6266 28.0997 37.3599Z" fill="white"/>
<path d="M52.313 48.0533C53.5663 45.9199 54.1797 43.3333 53.593 40.5333C52.6863 36.1599 49.0063 32.6666 44.5797 32.1066C37.5663 31.1999 31.6463 37.0933 32.5797 44.1066C33.1663 48.5333 36.633 52.2133 41.0063 53.1199C43.8063 53.7066 46.393 53.0933 48.5263 51.8399L53.4863 56.7999C54.5263 57.8399 56.2063 57.8399 57.2463 56.7999C58.2863 55.7599 58.2863 54.0799 57.2463 53.0399L52.313 48.0533ZM43.1663 47.9999C40.233 47.9999 37.833 45.5999 37.833 42.6666C37.833 39.7333 40.233 37.3333 43.1663 37.3333C46.0997 37.3333 48.4997 39.7333 48.4997 42.6666C48.4997 45.5999 46.0997 47.9999 43.1663 47.9999Z" fill="white"/>
</g>
<defs>
<clipPath id="clip0_2210_91186">
<rect width="64" height="64" fill="white" transform="translate(0.5)"/>
</clipPath>
</defs>
</svg>
