<svg width="65" height="64" viewBox="0 0 65 64" fill="none" xmlns="http://www.w3.org/2000/svg">
<g clip-path="url(#clip0_2210_91183)">
<path d="M24.5007 31.9998C30.3917 31.9998 35.1673 27.2242 35.1673 21.3332C35.1673 15.4421 30.3917 10.6665 24.5007 10.6665C18.6096 10.6665 13.834 15.4421 13.834 21.3332C13.834 27.2242 18.6096 31.9998 24.5007 31.9998Z" fill="white"/>
<path d="M24.5003 37.333C17.3803 37.333 3.16699 40.9063 3.16699 47.9997V50.6663C3.16699 52.133 4.36699 53.333 5.83366 53.333H43.167C44.6337 53.333 45.8337 52.133 45.8337 50.6663V47.9997C45.8337 40.9063 31.6203 37.333 24.5003 37.333Z" fill="white"/>
<path d="M53.8333 26.6665V18.6665H48.5V26.6665H40.5V31.9998H48.5V39.9998H53.8333V31.9998H61.8333V26.6665H53.8333Z" fill="white"/>
</g>
<defs>
<clipPath id="clip0_2210_91183">
<rect width="64" height="64" fill="white" transform="translate(0.5)"/>
</clipPath>
</defs>
</svg>
