<svg width="503" height="365" viewBox="0 0 503 365" fill="none" xmlns="http://www.w3.org/2000/svg">
<g filter="url(#filter0_bd_2210_82667)">
<rect width="93.8951" height="93.8951" transform="matrix(0.866044 0.499967 -0.866044 0.499967 260.5 181.098)" fill="url(#paint0_linear_2210_82667)" shape-rendering="crispEdges"/>
<rect y="0.499967" width="92.8951" height="92.8951" transform="matrix(0.866044 0.499967 -0.866044 0.499967 260.933 181.348)" stroke="url(#paint1_linear_2210_82667)" shape-rendering="crispEdges"/>
</g>
<ellipse cx="260.4" cy="209" rx="174.4" ry="155.2" fill="url(#paint2_radial_2210_82667)" fill-opacity="0.5"/>
<ellipse cx="328.4" cy="190" rx="174.4" ry="155.2" fill="url(#paint3_radial_2210_82667)" fill-opacity="0.5"/>
<ellipse cx="174.4" cy="156" rx="174.4" ry="155.2" fill="url(#paint4_radial_2210_82667)" fill-opacity="0.5"/>
<g filter="url(#filter1_bd_2210_82667)">
<rect width="46.9475" height="46.9475" transform="matrix(0.866044 0.499967 -0.866044 0.499967 260.659 198.8)" fill="url(#paint5_linear_2210_82667)" shape-rendering="crispEdges"/>
<rect y="0.249984" width="46.4475" height="46.4475" transform="matrix(0.866044 0.499967 -0.866044 0.499967 260.875 198.925)" stroke="url(#paint6_linear_2210_82667)" stroke-width="0.5" shape-rendering="crispEdges"/>
</g>
<g filter="url(#filter2_d_2210_82667)">
<rect width="46.9475" height="46.9475" transform="matrix(0.866044 0.499967 -0.866044 0.499967 260.663 171.8)" fill="url(#paint7_linear_2210_82667)" shape-rendering="crispEdges"/>
<rect y="0.249984" width="46.4475" height="46.4475" transform="matrix(0.866044 0.499967 -0.866044 0.499967 260.879 171.925)" stroke="url(#paint8_linear_2210_82667)" stroke-width="0.5" shape-rendering="crispEdges"/>
</g>
<rect width="46.3706" height="3.26592" transform="matrix(0.866025 -0.5 -7.53505e-05 1 261.004 218.62)" fill="url(#paint9_linear_2210_82667)"/>
<rect width="47.4274" height="3.26592" transform="matrix(-0.866025 -0.5 7.53505e-05 1 261.073 218.934)" fill="url(#paint10_linear_2210_82667)"/>
<g filter="url(#filter3_bdi_2210_82667)">
<circle cx="262" cy="132.8" r="70" fill="url(#paint11_linear_2210_82667)" shape-rendering="crispEdges"/>
<circle cx="262" cy="132.8" r="69.5" stroke="url(#paint12_linear_2210_82667)" shape-rendering="crispEdges"/>
</g>
<g filter="url(#filter4_d_2210_82667)">
<path d="M167.199 116.2L168.564 124.836L177.199 126.2L168.564 127.565L167.199 136.2L165.835 127.565L157.199 126.2L165.835 124.836L167.199 116.2Z" fill="white"/>
</g>
<g filter="url(#filter5_d_2210_82667)">
<path d="M373 245.8L374.365 254.435L383 255.8L374.365 257.165L373 265.8L371.635 257.165L363 255.8L371.635 254.435L373 245.8Z" fill="white"/>
</g>
<g filter="url(#filter6_d_2210_82667)">
<path d="M373 73.8L374.365 82.4353L383 83.8L374.365 85.1648L373 93.8L371.635 85.1648L363 83.8L371.635 82.4353L373 73.8Z" fill="white"/>
</g>
<g filter="url(#filter7_d_2210_82667)">
<path d="M167 265.8L168.365 274.435L177 275.8L168.365 277.165L167 285.8L165.635 277.165L157 275.8L165.635 274.435L167 265.8Z" fill="white"/>
</g>
<g filter="url(#filter8_d_2210_82667)">
<path d="M352.199 235.9C352.199 235.624 351.975 235.4 351.699 235.4C351.423 235.4 351.199 235.624 351.199 235.9V299.4H352.199V235.9Z" fill="url(#paint13_linear_2210_82667)" shape-rendering="crispEdges"/>
</g>
<g filter="url(#filter9_d_2210_82667)">
<path d="M151.199 180.9C151.199 180.624 150.975 180.4 150.699 180.4C150.423 180.4 150.199 180.624 150.199 180.9V244.4H151.199V180.9Z" fill="url(#paint14_linear_2210_82667)" shape-rendering="crispEdges"/>
</g>
<g filter="url(#filter10_d_2210_82667)">
<path fill-rule="evenodd" clip-rule="evenodd" d="M206.649 97.9857L213.024 162.343C233.167 158.405 244.499 159.675 264.792 169.472C284.425 161.686 295.515 160.335 315.421 162.343L321.545 97.9713C322.351 98.1423 323.169 98.3197 324 98.5035L317.354 168.387C296.664 166.299 285.136 167.704 264.728 175.8C243.636 165.613 231.857 164.292 210.92 168.387L204 98.5035C204.898 98.3257 205.78 98.153 206.649 97.9857Z" fill="white"/>
<path fill-rule="evenodd" clip-rule="evenodd" d="M218.328 93.0284C215.424 93.5079 212.377 94.0816 209.11 94.7283L215.442 158.664C233.981 155.039 244.673 156.053 262.834 164.569V163.023C255.57 147.528 222.621 129.766 215.575 145.829L218.328 93.0284ZM262.834 137.989V116.377C262.703 123.342 262.735 130.935 262.834 137.989ZM262.834 101.113V96.214C261.142 95.6904 259.511 95.2151 257.931 94.7856C259.57 96.7779 261.208 98.8888 262.834 101.113ZM312.831 158.664C294.64 156.829 284.19 157.944 266.834 164.605V96.0043C283.946 89.8799 295.788 89.6177 318.913 94.7283L312.831 158.664Z" fill="white"/>
<path fill-rule="evenodd" clip-rule="evenodd" d="M263.839 96.4449C248.858 72.4884 229.115 71.9679 223.555 81.8266L218.858 139.413C226.096 127.98 258.172 146.106 262.534 158.682C262.556 158.747 262.573 156.666 262.6 153.177C262.689 141.695 262.897 114.958 263.839 99.185V96.4449Z" fill="white"/>
</g>
<ellipse cx="264" cy="189.8" rx="37" ry="4" fill="url(#paint15_radial_2210_82667)" fill-opacity="0.6"/>
<defs>
<filter id="filter0_bd_2210_82667" x="168.883" y="170.798" width="183.235" height="114.489" filterUnits="userSpaceOnUse" color-interpolation-filters="sRGB">
<feFlood flood-opacity="0" result="BackgroundImageFix"/>
<feGaussianBlur in="BackgroundImageFix" stdDeviation="2"/>
<feComposite in2="SourceAlpha" operator="in" result="effect1_backgroundBlur_2210_82667"/>
<feColorMatrix in="SourceAlpha" type="matrix" values="0 0 0 0 0 0 0 0 0 0 0 0 0 0 0 0 0 0 127 0" result="hardAlpha"/>
<feOffset/>
<feGaussianBlur stdDeviation="5.15"/>
<feComposite in2="hardAlpha" operator="out"/>
<feColorMatrix type="matrix" values="0 0 0 0 1 0 0 0 0 1 0 0 0 0 1 0 0 0 0.4 0"/>
<feBlend mode="normal" in2="effect1_backgroundBlur_2210_82667" result="effect2_dropShadow_2210_82667"/>
<feBlend mode="normal" in="SourceGraphic" in2="effect2_dropShadow_2210_82667" result="shape"/>
</filter>
<filter id="filter1_bd_2210_82667" x="214.85" y="193.65" width="91.6173" height="57.2445" filterUnits="userSpaceOnUse" color-interpolation-filters="sRGB">
<feFlood flood-opacity="0" result="BackgroundImageFix"/>
<feGaussianBlur in="BackgroundImageFix" stdDeviation="1"/>
<feComposite in2="SourceAlpha" operator="in" result="effect1_backgroundBlur_2210_82667"/>
<feColorMatrix in="SourceAlpha" type="matrix" values="0 0 0 0 0 0 0 0 0 0 0 0 0 0 0 0 0 0 127 0" result="hardAlpha"/>
<feOffset/>
<feGaussianBlur stdDeviation="2.575"/>
<feComposite in2="hardAlpha" operator="out"/>
<feColorMatrix type="matrix" values="0 0 0 0 1 0 0 0 0 1 0 0 0 0 1 0 0 0 0.4 0"/>
<feBlend mode="normal" in2="effect1_backgroundBlur_2210_82667" result="effect2_dropShadow_2210_82667"/>
<feBlend mode="normal" in="SourceGraphic" in2="effect2_dropShadow_2210_82667" result="shape"/>
</filter>
<filter id="filter2_d_2210_82667" x="214.854" y="166.65" width="91.6173" height="57.2445" filterUnits="userSpaceOnUse" color-interpolation-filters="sRGB">
<feFlood flood-opacity="0" result="BackgroundImageFix"/>
<feColorMatrix in="SourceAlpha" type="matrix" values="0 0 0 0 0 0 0 0 0 0 0 0 0 0 0 0 0 0 127 0" result="hardAlpha"/>
<feOffset/>
<feGaussianBlur stdDeviation="2.575"/>
<feComposite in2="hardAlpha" operator="out"/>
<feColorMatrix type="matrix" values="0 0 0 0 1 0 0 0 0 1 0 0 0 0 1 0 0 0 0.4 0"/>
<feBlend mode="normal" in2="BackgroundImageFix" result="effect1_dropShadow_2210_82667"/>
<feBlend mode="normal" in="SourceGraphic" in2="effect1_dropShadow_2210_82667" result="shape"/>
</filter>
<filter id="filter3_bdi_2210_82667" x="172" y="42.8" width="180" height="180" filterUnits="userSpaceOnUse" color-interpolation-filters="sRGB">
<feFlood flood-opacity="0" result="BackgroundImageFix"/>
<feGaussianBlur in="BackgroundImageFix" stdDeviation="10"/>
<feComposite in2="SourceAlpha" operator="in" result="effect1_backgroundBlur_2210_82667"/>
<feColorMatrix in="SourceAlpha" type="matrix" values="0 0 0 0 0 0 0 0 0 0 0 0 0 0 0 0 0 0 127 0" result="hardAlpha"/>
<feOffset/>
<feGaussianBlur stdDeviation="10"/>
<feComposite in2="hardAlpha" operator="out"/>
<feColorMatrix type="matrix" values="0 0 0 0 1 0 0 0 0 1 0 0 0 0 1 0 0 0 0.5 0"/>
<feBlend mode="normal" in2="effect1_backgroundBlur_2210_82667" result="effect2_dropShadow_2210_82667"/>
<feBlend mode="normal" in="SourceGraphic" in2="effect2_dropShadow_2210_82667" result="shape"/>
<feColorMatrix in="SourceAlpha" type="matrix" values="0 0 0 0 0 0 0 0 0 0 0 0 0 0 0 0 0 0 127 0" result="hardAlpha"/>
<feOffset/>
<feGaussianBlur stdDeviation="8"/>
<feComposite in2="hardAlpha" operator="arithmetic" k2="-1" k3="1"/>
<feColorMatrix type="matrix" values="0 0 0 0 0.625 0 0 0 0 0.91875 0 0 0 0 1 0 0 0 0.5 0"/>
<feBlend mode="normal" in2="shape" result="effect3_innerShadow_2210_82667"/>
</filter>
<filter id="filter4_d_2210_82667" x="149.199" y="108.2" width="36" height="36" filterUnits="userSpaceOnUse" color-interpolation-filters="sRGB">
<feFlood flood-opacity="0" result="BackgroundImageFix"/>
<feColorMatrix in="SourceAlpha" type="matrix" values="0 0 0 0 0 0 0 0 0 0 0 0 0 0 0 0 0 0 127 0" result="hardAlpha"/>
<feOffset/>
<feGaussianBlur stdDeviation="4"/>
<feComposite in2="hardAlpha" operator="out"/>
<feColorMatrix type="matrix" values="0 0 0 0 1 0 0 0 0 1 0 0 0 0 1 0 0 0 1 0"/>
<feBlend mode="normal" in2="BackgroundImageFix" result="effect1_dropShadow_2210_82667"/>
<feBlend mode="normal" in="SourceGraphic" in2="effect1_dropShadow_2210_82667" result="shape"/>
</filter>
<filter id="filter5_d_2210_82667" x="355" y="237.8" width="36" height="36" filterUnits="userSpaceOnUse" color-interpolation-filters="sRGB">
<feFlood flood-opacity="0" result="BackgroundImageFix"/>
<feColorMatrix in="SourceAlpha" type="matrix" values="0 0 0 0 0 0 0 0 0 0 0 0 0 0 0 0 0 0 127 0" result="hardAlpha"/>
<feOffset/>
<feGaussianBlur stdDeviation="4"/>
<feComposite in2="hardAlpha" operator="out"/>
<feColorMatrix type="matrix" values="0 0 0 0 1 0 0 0 0 1 0 0 0 0 1 0 0 0 1 0"/>
<feBlend mode="normal" in2="BackgroundImageFix" result="effect1_dropShadow_2210_82667"/>
<feBlend mode="normal" in="SourceGraphic" in2="effect1_dropShadow_2210_82667" result="shape"/>
</filter>
<filter id="filter6_d_2210_82667" x="355" y="65.8" width="36" height="36" filterUnits="userSpaceOnUse" color-interpolation-filters="sRGB">
<feFlood flood-opacity="0" result="BackgroundImageFix"/>
<feColorMatrix in="SourceAlpha" type="matrix" values="0 0 0 0 0 0 0 0 0 0 0 0 0 0 0 0 0 0 127 0" result="hardAlpha"/>
<feOffset/>
<feGaussianBlur stdDeviation="4"/>
<feComposite in2="hardAlpha" operator="out"/>
<feColorMatrix type="matrix" values="0 0 0 0 1 0 0 0 0 1 0 0 0 0 1 0 0 0 1 0"/>
<feBlend mode="normal" in2="BackgroundImageFix" result="effect1_dropShadow_2210_82667"/>
<feBlend mode="normal" in="SourceGraphic" in2="effect1_dropShadow_2210_82667" result="shape"/>
</filter>
<filter id="filter7_d_2210_82667" x="149" y="257.8" width="36" height="36" filterUnits="userSpaceOnUse" color-interpolation-filters="sRGB">
<feFlood flood-opacity="0" result="BackgroundImageFix"/>
<feColorMatrix in="SourceAlpha" type="matrix" values="0 0 0 0 0 0 0 0 0 0 0 0 0 0 0 0 0 0 127 0" result="hardAlpha"/>
<feOffset/>
<feGaussianBlur stdDeviation="4"/>
<feComposite in2="hardAlpha" operator="out"/>
<feColorMatrix type="matrix" values="0 0 0 0 1 0 0 0 0 1 0 0 0 0 1 0 0 0 1 0"/>
<feBlend mode="normal" in2="BackgroundImageFix" result="effect1_dropShadow_2210_82667"/>
<feBlend mode="normal" in="SourceGraphic" in2="effect1_dropShadow_2210_82667" result="shape"/>
</filter>
<filter id="filter8_d_2210_82667" x="345.599" y="229.8" width="12.2" height="75.2" filterUnits="userSpaceOnUse" color-interpolation-filters="sRGB">
<feFlood flood-opacity="0" result="BackgroundImageFix"/>
<feColorMatrix in="SourceAlpha" type="matrix" values="0 0 0 0 0 0 0 0 0 0 0 0 0 0 0 0 0 0 127 0" result="hardAlpha"/>
<feOffset/>
<feGaussianBlur stdDeviation="2.8"/>
<feComposite in2="hardAlpha" operator="out"/>
<feColorMatrix type="matrix" values="0 0 0 0 1 0 0 0 0 1 0 0 0 0 1 0 0 0 0.8 0"/>
<feBlend mode="normal" in2="BackgroundImageFix" result="effect1_dropShadow_2210_82667"/>
<feBlend mode="normal" in="SourceGraphic" in2="effect1_dropShadow_2210_82667" result="shape"/>
</filter>
<filter id="filter9_d_2210_82667" x="144.599" y="174.8" width="12.2" height="75.2" filterUnits="userSpaceOnUse" color-interpolation-filters="sRGB">
<feFlood flood-opacity="0" result="BackgroundImageFix"/>
<feColorMatrix in="SourceAlpha" type="matrix" values="0 0 0 0 0 0 0 0 0 0 0 0 0 0 0 0 0 0 127 0" result="hardAlpha"/>
<feOffset/>
<feGaussianBlur stdDeviation="2.8"/>
<feComposite in2="hardAlpha" operator="out"/>
<feColorMatrix type="matrix" values="0 0 0 0 1 0 0 0 0 1 0 0 0 0 1 0 0 0 0.8 0"/>
<feBlend mode="normal" in2="BackgroundImageFix" result="effect1_dropShadow_2210_82667"/>
<feBlend mode="normal" in="SourceGraphic" in2="effect1_dropShadow_2210_82667" result="shape"/>
</filter>
<filter id="filter10_d_2210_82667" x="186.8" y="62.6" width="154.4" height="134.4" filterUnits="userSpaceOnUse" color-interpolation-filters="sRGB">
<feFlood flood-opacity="0" result="BackgroundImageFix"/>
<feColorMatrix in="SourceAlpha" type="matrix" values="0 0 0 0 0 0 0 0 0 0 0 0 0 0 0 0 0 0 127 0" result="hardAlpha"/>
<feOffset dy="4"/>
<feGaussianBlur stdDeviation="8.6"/>
<feComposite in2="hardAlpha" operator="out"/>
<feColorMatrix type="matrix" values="0 0 0 0 1 0 0 0 0 0.443137 0 0 0 0 0.627451 0 0 0 1 0"/>
<feBlend mode="normal" in2="BackgroundImageFix" result="effect1_dropShadow_2210_82667"/>
<feBlend mode="normal" in="SourceGraphic" in2="effect1_dropShadow_2210_82667" result="shape"/>
</filter>
<linearGradient id="paint0_linear_2210_82667" x1="-6.69861" y1="100.109" x2="84.3441" y2="-27.3604" gradientUnits="userSpaceOnUse">
<stop stop-color="white" stop-opacity="0.4"/>
<stop offset="1" stop-color="white" stop-opacity="0.1"/>
</linearGradient>
<linearGradient id="paint1_linear_2210_82667" x1="101.841" y1="-8.43061" x2="13.1386" y2="115.762" gradientUnits="userSpaceOnUse">
<stop stop-color="white" stop-opacity="0.4"/>
<stop offset="1" stop-color="white" stop-opacity="0.1"/>
</linearGradient>
<radialGradient id="paint2_radial_2210_82667" cx="0" cy="0" r="1" gradientUnits="userSpaceOnUse" gradientTransform="translate(260.4 209) rotate(90) scale(155.2 174.4)">
<stop stop-color="#FF71A0"/>
<stop offset="1" stop-color="#1E0246" stop-opacity="0"/>
</radialGradient>
<radialGradient id="paint3_radial_2210_82667" cx="0" cy="0" r="1" gradientUnits="userSpaceOnUse" gradientTransform="translate(328.4 190) rotate(90) scale(155.2 174.4)">
<stop stop-color="#FF71A0"/>
<stop offset="1" stop-color="#1E0246" stop-opacity="0"/>
</radialGradient>
<radialGradient id="paint4_radial_2210_82667" cx="0" cy="0" r="1" gradientUnits="userSpaceOnUse" gradientTransform="translate(174.4 156) rotate(90) scale(155.2 174.4)">
<stop stop-color="#FF71A0"/>
<stop offset="1" stop-color="#1E0246" stop-opacity="0"/>
</radialGradient>
<linearGradient id="paint5_linear_2210_82667" x1="-3.34931" y1="50.0544" x2="42.172" y2="-13.6802" gradientUnits="userSpaceOnUse">
<stop stop-color="white" stop-opacity="0.4"/>
<stop offset="1" stop-color="white" stop-opacity="0.1"/>
</linearGradient>
<linearGradient id="paint6_linear_2210_82667" x1="50.9204" y1="-4.21531" x2="6.56932" y2="57.8809" gradientUnits="userSpaceOnUse">
<stop stop-color="white" stop-opacity="0.4"/>
<stop offset="1" stop-color="white" stop-opacity="0.1"/>
</linearGradient>
<linearGradient id="paint7_linear_2210_82667" x1="-3.34931" y1="50.0544" x2="42.172" y2="-13.6802" gradientUnits="userSpaceOnUse">
<stop stop-color="white" stop-opacity="0.4"/>
<stop offset="1" stop-color="white" stop-opacity="0.1"/>
</linearGradient>
<linearGradient id="paint8_linear_2210_82667" x1="50.9204" y1="-4.21531" x2="6.56932" y2="57.8809" gradientUnits="userSpaceOnUse">
<stop stop-color="white" stop-opacity="0.4"/>
<stop offset="1" stop-color="white" stop-opacity="0.1"/>
</linearGradient>
<linearGradient id="paint9_linear_2210_82667" x1="0" y1="1.63296" x2="46.3706" y2="1.63296" gradientUnits="userSpaceOnUse">
<stop stop-color="white"/>
<stop offset="1" stop-color="#FF71A0"/>
</linearGradient>
<linearGradient id="paint10_linear_2210_82667" x1="0" y1="1.63296" x2="47.4274" y2="1.63296" gradientUnits="userSpaceOnUse">
<stop stop-color="white"/>
<stop offset="1" stop-color="#FF71A0"/>
</linearGradient>
<linearGradient id="paint11_linear_2210_82667" x1="228.719" y1="91.0684" x2="365.281" y2="184.397" gradientUnits="userSpaceOnUse">
<stop stop-color="white" stop-opacity="0.4"/>
<stop offset="1" stop-color="white" stop-opacity="0.2"/>
</linearGradient>
<linearGradient id="paint12_linear_2210_82667" x1="201.185" y1="62.8" x2="322.815" y2="202.8" gradientUnits="userSpaceOnUse">
<stop stop-color="white" stop-opacity="0.4"/>
<stop offset="1" stop-color="white" stop-opacity="0.1"/>
</linearGradient>
<linearGradient id="paint13_linear_2210_82667" x1="351.699" y1="235.4" x2="351.699" y2="294.6" gradientUnits="userSpaceOnUse">
<stop stop-color="white"/>
<stop offset="1" stop-color="white" stop-opacity="0"/>
</linearGradient>
<linearGradient id="paint14_linear_2210_82667" x1="150.699" y1="180.4" x2="150.699" y2="239.6" gradientUnits="userSpaceOnUse">
<stop stop-color="white"/>
<stop offset="1" stop-color="white" stop-opacity="0"/>
</linearGradient>
<radialGradient id="paint15_radial_2210_82667" cx="0" cy="0" r="1" gradientUnits="userSpaceOnUse" gradientTransform="translate(264 189.8) scale(37 4)">
<stop stop-color="#FF71A0"/>
<stop offset="1" stop-color="#B6A3C1" stop-opacity="0"/>
</radialGradient>
</defs>
</svg>
