<svg width="503" height="364" viewBox="0 0 503 364" fill="none" xmlns="http://www.w3.org/2000/svg">
<g filter="url(#filter0_bd_2210_82700)">
<rect width="93.8951" height="93.8951" transform="matrix(0.866044 0.499967 -0.866044 0.499967 260.5 180.498)" fill="url(#paint0_linear_2210_82700)" shape-rendering="crispEdges"/>
<rect y="0.499967" width="92.8951" height="92.8951" transform="matrix(0.866044 0.499967 -0.866044 0.499967 260.933 180.748)" stroke="url(#paint1_linear_2210_82700)" shape-rendering="crispEdges"/>
</g>
<ellipse cx="260.4" cy="208.4" rx="174.4" ry="155.2" fill="url(#paint2_radial_2210_82700)" fill-opacity="0.5"/>
<ellipse cx="328.4" cy="189.4" rx="174.4" ry="155.2" fill="url(#paint3_radial_2210_82700)" fill-opacity="0.5"/>
<ellipse cx="174.4" cy="155.4" rx="174.4" ry="155.2" fill="url(#paint4_radial_2210_82700)" fill-opacity="0.5"/>
<g filter="url(#filter1_bd_2210_82700)">
<rect width="46.9475" height="46.9475" transform="matrix(0.866044 0.499967 -0.866044 0.499967 260.659 198.2)" fill="url(#paint5_linear_2210_82700)" shape-rendering="crispEdges"/>
<rect y="0.249984" width="46.4475" height="46.4475" transform="matrix(0.866044 0.499967 -0.866044 0.499967 260.875 198.325)" stroke="url(#paint6_linear_2210_82700)" stroke-width="0.5" shape-rendering="crispEdges"/>
</g>
<g filter="url(#filter2_d_2210_82700)">
<rect width="46.9475" height="46.9475" transform="matrix(0.866044 0.499967 -0.866044 0.499967 260.663 171.2)" fill="url(#paint7_linear_2210_82700)" shape-rendering="crispEdges"/>
<rect y="0.249984" width="46.4475" height="46.4475" transform="matrix(0.866044 0.499967 -0.866044 0.499967 260.879 171.325)" stroke="url(#paint8_linear_2210_82700)" stroke-width="0.5" shape-rendering="crispEdges"/>
</g>
<rect width="46.3706" height="3.26592" transform="matrix(0.866025 -0.5 -7.53505e-05 1 261.004 218.02)" fill="url(#paint9_linear_2210_82700)"/>
<rect width="47.4274" height="3.26592" transform="matrix(-0.866025 -0.5 7.53505e-05 1 261.073 218.334)" fill="url(#paint10_linear_2210_82700)"/>
<g filter="url(#filter3_bdi_2210_82700)">
<circle cx="262" cy="132.2" r="70" fill="url(#paint11_linear_2210_82700)" shape-rendering="crispEdges"/>
<circle cx="262" cy="132.2" r="69.5" stroke="url(#paint12_linear_2210_82700)" shape-rendering="crispEdges"/>
</g>
<g filter="url(#filter4_d_2210_82700)">
<path d="M167.199 115.6L168.564 124.236L177.199 125.6L168.564 126.965L167.199 135.6L165.835 126.965L157.199 125.6L165.835 124.236L167.199 115.6Z" fill="white"/>
</g>
<g filter="url(#filter5_d_2210_82700)">
<path d="M373 245.2L374.365 253.835L383 255.2L374.365 256.565L373 265.2L371.635 256.565L363 255.2L371.635 253.835L373 245.2Z" fill="white"/>
</g>
<g filter="url(#filter6_d_2210_82700)">
<path d="M373 73.2001L374.365 81.8354L383 83.2001L374.365 84.5648L373 93.2001L371.635 84.5648L363 83.2001L371.635 81.8354L373 73.2001Z" fill="white"/>
</g>
<g filter="url(#filter7_d_2210_82700)">
<path d="M167 265.2L168.365 273.835L177 275.2L168.365 276.565L167 285.2L165.635 276.565L157 275.2L165.635 273.835L167 265.2Z" fill="white"/>
</g>
<g filter="url(#filter8_d_2210_82700)">
<path d="M352.199 235.3C352.199 235.024 351.975 234.8 351.699 234.8C351.423 234.8 351.199 235.024 351.199 235.3V298.8H352.199V235.3Z" fill="url(#paint13_linear_2210_82700)" shape-rendering="crispEdges"/>
</g>
<g filter="url(#filter9_d_2210_82700)">
<path d="M151.199 180.3C151.199 180.024 150.975 179.8 150.699 179.8C150.423 179.8 150.199 180.024 150.199 180.3V243.8H151.199V180.3Z" fill="url(#paint14_linear_2210_82700)" shape-rendering="crispEdges"/>
</g>
<g filter="url(#filter10_d_2210_82700)">
<path fill-rule="evenodd" clip-rule="evenodd" d="M206.649 97.3858L213.024 161.743C233.167 157.805 244.499 159.075 264.792 168.872C284.425 161.086 295.515 159.735 315.421 161.743L321.545 97.3713C322.351 97.5424 323.169 97.7197 324 97.9035L317.354 167.787C296.664 165.699 285.136 167.104 264.728 175.2C243.636 165.013 231.857 163.692 210.92 167.787L204 97.9035C204.898 97.7257 205.78 97.553 206.649 97.3858Z" fill="white"/>
<path fill-rule="evenodd" clip-rule="evenodd" d="M218.328 92.4284C215.424 92.9079 212.377 93.4816 209.11 94.1283L215.442 158.064C233.981 154.439 244.673 155.453 262.834 163.969V162.423C255.57 146.928 222.621 129.166 215.575 145.229L218.328 92.4284ZM262.834 137.389V115.777C262.703 122.742 262.735 130.335 262.834 137.389ZM262.834 100.513V95.614C261.142 95.0904 259.511 94.6151 257.931 94.1856C259.57 96.178 261.208 98.2888 262.834 100.513ZM312.831 158.064C294.64 156.229 284.19 157.344 266.834 164.005V95.4044C283.946 89.2799 295.788 89.0178 318.913 94.1283L312.831 158.064Z" fill="white"/>
<path fill-rule="evenodd" clip-rule="evenodd" d="M263.839 95.8449C248.858 71.8884 229.115 71.3679 223.555 81.2266L218.858 138.813C226.096 127.38 258.172 145.506 262.534 158.082C262.556 158.147 262.573 156.066 262.6 152.577C262.689 141.095 262.897 114.358 263.839 98.5851V95.8449Z" fill="white"/>
</g>
<ellipse cx="264" cy="189.2" rx="37" ry="4" fill="url(#paint15_radial_2210_82700)" fill-opacity="0.6"/>
<defs>
<filter id="filter0_bd_2210_82700" x="168.883" y="170.198" width="183.235" height="114.489" filterUnits="userSpaceOnUse" color-interpolation-filters="sRGB">
<feFlood flood-opacity="0" result="BackgroundImageFix"/>
<feGaussianBlur in="BackgroundImageFix" stdDeviation="2"/>
<feComposite in2="SourceAlpha" operator="in" result="effect1_backgroundBlur_2210_82700"/>
<feColorMatrix in="SourceAlpha" type="matrix" values="0 0 0 0 0 0 0 0 0 0 0 0 0 0 0 0 0 0 127 0" result="hardAlpha"/>
<feOffset/>
<feGaussianBlur stdDeviation="5.15"/>
<feComposite in2="hardAlpha" operator="out"/>
<feColorMatrix type="matrix" values="0 0 0 0 1 0 0 0 0 1 0 0 0 0 1 0 0 0 0.4 0"/>
<feBlend mode="normal" in2="effect1_backgroundBlur_2210_82700" result="effect2_dropShadow_2210_82700"/>
<feBlend mode="normal" in="SourceGraphic" in2="effect2_dropShadow_2210_82700" result="shape"/>
</filter>
<filter id="filter1_bd_2210_82700" x="214.85" y="193.05" width="91.6173" height="57.2445" filterUnits="userSpaceOnUse" color-interpolation-filters="sRGB">
<feFlood flood-opacity="0" result="BackgroundImageFix"/>
<feGaussianBlur in="BackgroundImageFix" stdDeviation="1"/>
<feComposite in2="SourceAlpha" operator="in" result="effect1_backgroundBlur_2210_82700"/>
<feColorMatrix in="SourceAlpha" type="matrix" values="0 0 0 0 0 0 0 0 0 0 0 0 0 0 0 0 0 0 127 0" result="hardAlpha"/>
<feOffset/>
<feGaussianBlur stdDeviation="2.575"/>
<feComposite in2="hardAlpha" operator="out"/>
<feColorMatrix type="matrix" values="0 0 0 0 1 0 0 0 0 1 0 0 0 0 1 0 0 0 0.4 0"/>
<feBlend mode="normal" in2="effect1_backgroundBlur_2210_82700" result="effect2_dropShadow_2210_82700"/>
<feBlend mode="normal" in="SourceGraphic" in2="effect2_dropShadow_2210_82700" result="shape"/>
</filter>
<filter id="filter2_d_2210_82700" x="214.854" y="166.05" width="91.6173" height="57.2445" filterUnits="userSpaceOnUse" color-interpolation-filters="sRGB">
<feFlood flood-opacity="0" result="BackgroundImageFix"/>
<feColorMatrix in="SourceAlpha" type="matrix" values="0 0 0 0 0 0 0 0 0 0 0 0 0 0 0 0 0 0 127 0" result="hardAlpha"/>
<feOffset/>
<feGaussianBlur stdDeviation="2.575"/>
<feComposite in2="hardAlpha" operator="out"/>
<feColorMatrix type="matrix" values="0 0 0 0 1 0 0 0 0 1 0 0 0 0 1 0 0 0 0.4 0"/>
<feBlend mode="normal" in2="BackgroundImageFix" result="effect1_dropShadow_2210_82700"/>
<feBlend mode="normal" in="SourceGraphic" in2="effect1_dropShadow_2210_82700" result="shape"/>
</filter>
<filter id="filter3_bdi_2210_82700" x="172" y="42.2001" width="180" height="180" filterUnits="userSpaceOnUse" color-interpolation-filters="sRGB">
<feFlood flood-opacity="0" result="BackgroundImageFix"/>
<feGaussianBlur in="BackgroundImageFix" stdDeviation="10"/>
<feComposite in2="SourceAlpha" operator="in" result="effect1_backgroundBlur_2210_82700"/>
<feColorMatrix in="SourceAlpha" type="matrix" values="0 0 0 0 0 0 0 0 0 0 0 0 0 0 0 0 0 0 127 0" result="hardAlpha"/>
<feOffset/>
<feGaussianBlur stdDeviation="10"/>
<feComposite in2="hardAlpha" operator="out"/>
<feColorMatrix type="matrix" values="0 0 0 0 1 0 0 0 0 1 0 0 0 0 1 0 0 0 0.5 0"/>
<feBlend mode="normal" in2="effect1_backgroundBlur_2210_82700" result="effect2_dropShadow_2210_82700"/>
<feBlend mode="normal" in="SourceGraphic" in2="effect2_dropShadow_2210_82700" result="shape"/>
<feColorMatrix in="SourceAlpha" type="matrix" values="0 0 0 0 0 0 0 0 0 0 0 0 0 0 0 0 0 0 127 0" result="hardAlpha"/>
<feOffset/>
<feGaussianBlur stdDeviation="8"/>
<feComposite in2="hardAlpha" operator="arithmetic" k2="-1" k3="1"/>
<feColorMatrix type="matrix" values="0 0 0 0 0.625 0 0 0 0 0.91875 0 0 0 0 1 0 0 0 0.5 0"/>
<feBlend mode="normal" in2="shape" result="effect3_innerShadow_2210_82700"/>
</filter>
<filter id="filter4_d_2210_82700" x="149.199" y="107.6" width="36" height="36" filterUnits="userSpaceOnUse" color-interpolation-filters="sRGB">
<feFlood flood-opacity="0" result="BackgroundImageFix"/>
<feColorMatrix in="SourceAlpha" type="matrix" values="0 0 0 0 0 0 0 0 0 0 0 0 0 0 0 0 0 0 127 0" result="hardAlpha"/>
<feOffset/>
<feGaussianBlur stdDeviation="4"/>
<feComposite in2="hardAlpha" operator="out"/>
<feColorMatrix type="matrix" values="0 0 0 0 1 0 0 0 0 1 0 0 0 0 1 0 0 0 1 0"/>
<feBlend mode="normal" in2="BackgroundImageFix" result="effect1_dropShadow_2210_82700"/>
<feBlend mode="normal" in="SourceGraphic" in2="effect1_dropShadow_2210_82700" result="shape"/>
</filter>
<filter id="filter5_d_2210_82700" x="355" y="237.2" width="36" height="36" filterUnits="userSpaceOnUse" color-interpolation-filters="sRGB">
<feFlood flood-opacity="0" result="BackgroundImageFix"/>
<feColorMatrix in="SourceAlpha" type="matrix" values="0 0 0 0 0 0 0 0 0 0 0 0 0 0 0 0 0 0 127 0" result="hardAlpha"/>
<feOffset/>
<feGaussianBlur stdDeviation="4"/>
<feComposite in2="hardAlpha" operator="out"/>
<feColorMatrix type="matrix" values="0 0 0 0 1 0 0 0 0 1 0 0 0 0 1 0 0 0 1 0"/>
<feBlend mode="normal" in2="BackgroundImageFix" result="effect1_dropShadow_2210_82700"/>
<feBlend mode="normal" in="SourceGraphic" in2="effect1_dropShadow_2210_82700" result="shape"/>
</filter>
<filter id="filter6_d_2210_82700" x="355" y="65.2001" width="36" height="36" filterUnits="userSpaceOnUse" color-interpolation-filters="sRGB">
<feFlood flood-opacity="0" result="BackgroundImageFix"/>
<feColorMatrix in="SourceAlpha" type="matrix" values="0 0 0 0 0 0 0 0 0 0 0 0 0 0 0 0 0 0 127 0" result="hardAlpha"/>
<feOffset/>
<feGaussianBlur stdDeviation="4"/>
<feComposite in2="hardAlpha" operator="out"/>
<feColorMatrix type="matrix" values="0 0 0 0 1 0 0 0 0 1 0 0 0 0 1 0 0 0 1 0"/>
<feBlend mode="normal" in2="BackgroundImageFix" result="effect1_dropShadow_2210_82700"/>
<feBlend mode="normal" in="SourceGraphic" in2="effect1_dropShadow_2210_82700" result="shape"/>
</filter>
<filter id="filter7_d_2210_82700" x="149" y="257.2" width="36" height="36" filterUnits="userSpaceOnUse" color-interpolation-filters="sRGB">
<feFlood flood-opacity="0" result="BackgroundImageFix"/>
<feColorMatrix in="SourceAlpha" type="matrix" values="0 0 0 0 0 0 0 0 0 0 0 0 0 0 0 0 0 0 127 0" result="hardAlpha"/>
<feOffset/>
<feGaussianBlur stdDeviation="4"/>
<feComposite in2="hardAlpha" operator="out"/>
<feColorMatrix type="matrix" values="0 0 0 0 1 0 0 0 0 1 0 0 0 0 1 0 0 0 1 0"/>
<feBlend mode="normal" in2="BackgroundImageFix" result="effect1_dropShadow_2210_82700"/>
<feBlend mode="normal" in="SourceGraphic" in2="effect1_dropShadow_2210_82700" result="shape"/>
</filter>
<filter id="filter8_d_2210_82700" x="345.599" y="229.2" width="12.2" height="75.2" filterUnits="userSpaceOnUse" color-interpolation-filters="sRGB">
<feFlood flood-opacity="0" result="BackgroundImageFix"/>
<feColorMatrix in="SourceAlpha" type="matrix" values="0 0 0 0 0 0 0 0 0 0 0 0 0 0 0 0 0 0 127 0" result="hardAlpha"/>
<feOffset/>
<feGaussianBlur stdDeviation="2.8"/>
<feComposite in2="hardAlpha" operator="out"/>
<feColorMatrix type="matrix" values="0 0 0 0 1 0 0 0 0 1 0 0 0 0 1 0 0 0 0.8 0"/>
<feBlend mode="normal" in2="BackgroundImageFix" result="effect1_dropShadow_2210_82700"/>
<feBlend mode="normal" in="SourceGraphic" in2="effect1_dropShadow_2210_82700" result="shape"/>
</filter>
<filter id="filter9_d_2210_82700" x="144.599" y="174.2" width="12.2" height="75.2" filterUnits="userSpaceOnUse" color-interpolation-filters="sRGB">
<feFlood flood-opacity="0" result="BackgroundImageFix"/>
<feColorMatrix in="SourceAlpha" type="matrix" values="0 0 0 0 0 0 0 0 0 0 0 0 0 0 0 0 0 0 127 0" result="hardAlpha"/>
<feOffset/>
<feGaussianBlur stdDeviation="2.8"/>
<feComposite in2="hardAlpha" operator="out"/>
<feColorMatrix type="matrix" values="0 0 0 0 1 0 0 0 0 1 0 0 0 0 1 0 0 0 0.8 0"/>
<feBlend mode="normal" in2="BackgroundImageFix" result="effect1_dropShadow_2210_82700"/>
<feBlend mode="normal" in="SourceGraphic" in2="effect1_dropShadow_2210_82700" result="shape"/>
</filter>
<filter id="filter10_d_2210_82700" x="186.8" y="62.0001" width="154.4" height="134.4" filterUnits="userSpaceOnUse" color-interpolation-filters="sRGB">
<feFlood flood-opacity="0" result="BackgroundImageFix"/>
<feColorMatrix in="SourceAlpha" type="matrix" values="0 0 0 0 0 0 0 0 0 0 0 0 0 0 0 0 0 0 127 0" result="hardAlpha"/>
<feOffset dy="4"/>
<feGaussianBlur stdDeviation="8.6"/>
<feComposite in2="hardAlpha" operator="out"/>
<feColorMatrix type="matrix" values="0 0 0 0 0.301961 0 0 0 0 0.0235294 0 0 0 0 0.690196 0 0 0 1 0"/>
<feBlend mode="normal" in2="BackgroundImageFix" result="effect1_dropShadow_2210_82700"/>
<feBlend mode="normal" in="SourceGraphic" in2="effect1_dropShadow_2210_82700" result="shape"/>
</filter>
<linearGradient id="paint0_linear_2210_82700" x1="-6.69861" y1="100.109" x2="84.3441" y2="-27.3604" gradientUnits="userSpaceOnUse">
<stop stop-color="white" stop-opacity="0.4"/>
<stop offset="1" stop-color="white" stop-opacity="0.1"/>
</linearGradient>
<linearGradient id="paint1_linear_2210_82700" x1="101.841" y1="-8.43061" x2="13.1386" y2="115.762" gradientUnits="userSpaceOnUse">
<stop stop-color="white" stop-opacity="0.4"/>
<stop offset="1" stop-color="white" stop-opacity="0.1"/>
</linearGradient>
<radialGradient id="paint2_radial_2210_82700" cx="0" cy="0" r="1" gradientUnits="userSpaceOnUse" gradientTransform="translate(260.4 208.4) rotate(90) scale(155.2 174.4)">
<stop stop-color="#D888FF"/>
<stop offset="1" stop-color="#1E0246" stop-opacity="0"/>
</radialGradient>
<radialGradient id="paint3_radial_2210_82700" cx="0" cy="0" r="1" gradientUnits="userSpaceOnUse" gradientTransform="translate(328.4 189.4) rotate(90) scale(155.2 174.4)">
<stop stop-color="#D888FF"/>
<stop offset="1" stop-color="#1E0246" stop-opacity="0"/>
</radialGradient>
<radialGradient id="paint4_radial_2210_82700" cx="0" cy="0" r="1" gradientUnits="userSpaceOnUse" gradientTransform="translate(174.4 155.4) rotate(90) scale(155.2 174.4)">
<stop stop-color="#D888FF"/>
<stop offset="1" stop-color="#1E0246" stop-opacity="0"/>
</radialGradient>
<linearGradient id="paint5_linear_2210_82700" x1="-3.34931" y1="50.0544" x2="42.172" y2="-13.6802" gradientUnits="userSpaceOnUse">
<stop stop-color="white" stop-opacity="0.4"/>
<stop offset="1" stop-color="white" stop-opacity="0.1"/>
</linearGradient>
<linearGradient id="paint6_linear_2210_82700" x1="50.9204" y1="-4.21531" x2="6.56932" y2="57.8809" gradientUnits="userSpaceOnUse">
<stop stop-color="white" stop-opacity="0.4"/>
<stop offset="1" stop-color="white" stop-opacity="0.1"/>
</linearGradient>
<linearGradient id="paint7_linear_2210_82700" x1="-3.34931" y1="50.0544" x2="42.172" y2="-13.6802" gradientUnits="userSpaceOnUse">
<stop stop-color="white" stop-opacity="0.4"/>
<stop offset="1" stop-color="white" stop-opacity="0.1"/>
</linearGradient>
<linearGradient id="paint8_linear_2210_82700" x1="50.9204" y1="-4.21531" x2="6.56932" y2="57.8809" gradientUnits="userSpaceOnUse">
<stop stop-color="white" stop-opacity="0.4"/>
<stop offset="1" stop-color="white" stop-opacity="0.1"/>
</linearGradient>
<linearGradient id="paint9_linear_2210_82700" x1="0" y1="1.63296" x2="46.3706" y2="1.63296" gradientUnits="userSpaceOnUse">
<stop stop-color="white"/>
<stop offset="1" stop-color="#D888FF"/>
</linearGradient>
<linearGradient id="paint10_linear_2210_82700" x1="0" y1="1.63296" x2="47.4274" y2="1.63296" gradientUnits="userSpaceOnUse">
<stop stop-color="white"/>
<stop offset="1" stop-color="#D888FF"/>
</linearGradient>
<linearGradient id="paint11_linear_2210_82700" x1="228.719" y1="90.4684" x2="365.281" y2="183.797" gradientUnits="userSpaceOnUse">
<stop stop-color="white" stop-opacity="0.4"/>
<stop offset="1" stop-color="white" stop-opacity="0.2"/>
</linearGradient>
<linearGradient id="paint12_linear_2210_82700" x1="201.185" y1="62.2001" x2="322.815" y2="202.2" gradientUnits="userSpaceOnUse">
<stop stop-color="white" stop-opacity="0.4"/>
<stop offset="1" stop-color="white" stop-opacity="0.1"/>
</linearGradient>
<linearGradient id="paint13_linear_2210_82700" x1="351.699" y1="234.8" x2="351.699" y2="294" gradientUnits="userSpaceOnUse">
<stop stop-color="white"/>
<stop offset="1" stop-color="white" stop-opacity="0"/>
</linearGradient>
<linearGradient id="paint14_linear_2210_82700" x1="150.699" y1="179.8" x2="150.699" y2="239" gradientUnits="userSpaceOnUse">
<stop stop-color="white"/>
<stop offset="1" stop-color="white" stop-opacity="0"/>
</linearGradient>
<radialGradient id="paint15_radial_2210_82700" cx="0" cy="0" r="1" gradientUnits="userSpaceOnUse" gradientTransform="translate(264 189.2) scale(37 4)">
<stop stop-color="#4D06B0"/>
<stop offset="1" stop-color="#B6A3C1" stop-opacity="0"/>
</radialGradient>
</defs>
</svg>
