<svg width="503" height="364" viewBox="0 0 503 364" fill="none" xmlns="http://www.w3.org/2000/svg">
<g filter="url(#filter0_bd_2210_82634)">
<rect width="93.8951" height="93.8951" transform="matrix(0.866044 0.499967 -0.866044 0.499967 260.5 180.698)" fill="url(#paint0_linear_2210_82634)" shape-rendering="crispEdges"/>
<rect y="0.499967" width="92.8951" height="92.8951" transform="matrix(0.866044 0.499967 -0.866044 0.499967 260.933 180.948)" stroke="url(#paint1_linear_2210_82634)" shape-rendering="crispEdges"/>
</g>
<ellipse cx="260.4" cy="208.6" rx="174.4" ry="155.2" fill="url(#paint2_radial_2210_82634)" fill-opacity="0.5"/>
<ellipse cx="328.4" cy="189.6" rx="174.4" ry="155.2" fill="url(#paint3_radial_2210_82634)" fill-opacity="0.5"/>
<ellipse cx="174.4" cy="155.6" rx="174.4" ry="155.2" fill="url(#paint4_radial_2210_82634)" fill-opacity="0.5"/>
<g filter="url(#filter1_bd_2210_82634)">
<rect width="46.9475" height="46.9475" transform="matrix(0.866044 0.499967 -0.866044 0.499967 260.659 198.4)" fill="url(#paint5_linear_2210_82634)" shape-rendering="crispEdges"/>
<rect y="0.249984" width="46.4475" height="46.4475" transform="matrix(0.866044 0.499967 -0.866044 0.499967 260.875 198.525)" stroke="url(#paint6_linear_2210_82634)" stroke-width="0.5" shape-rendering="crispEdges"/>
</g>
<g filter="url(#filter2_d_2210_82634)">
<rect width="46.9475" height="46.9475" transform="matrix(0.866044 0.499967 -0.866044 0.499967 260.663 171.4)" fill="url(#paint7_linear_2210_82634)" shape-rendering="crispEdges"/>
<rect y="0.249984" width="46.4475" height="46.4475" transform="matrix(0.866044 0.499967 -0.866044 0.499967 260.879 171.525)" stroke="url(#paint8_linear_2210_82634)" stroke-width="0.5" shape-rendering="crispEdges"/>
</g>
<rect width="46.3706" height="3.26592" transform="matrix(0.866025 -0.5 -7.53505e-05 1 261.004 218.22)" fill="url(#paint9_linear_2210_82634)"/>
<rect width="47.4274" height="3.26592" transform="matrix(-0.866025 -0.5 7.53505e-05 1 261.073 218.534)" fill="url(#paint10_linear_2210_82634)"/>
<g filter="url(#filter3_bdi_2210_82634)">
<circle cx="262" cy="132.4" r="70" fill="url(#paint11_linear_2210_82634)" shape-rendering="crispEdges"/>
<circle cx="262" cy="132.4" r="69.5" stroke="url(#paint12_linear_2210_82634)" shape-rendering="crispEdges"/>
</g>
<g filter="url(#filter4_d_2210_82634)">
<path d="M167.199 115.8L168.564 124.436L177.199 125.8L168.564 127.165L167.199 135.8L165.835 127.165L157.199 125.8L165.835 124.436L167.199 115.8Z" fill="white"/>
</g>
<g filter="url(#filter5_d_2210_82634)">
<path d="M373 245.4L374.365 254.035L383 255.4L374.365 256.765L373 265.4L371.635 256.765L363 255.4L371.635 254.035L373 245.4Z" fill="white"/>
</g>
<g filter="url(#filter6_d_2210_82634)">
<path d="M373 73.4L374.365 82.0353L383 83.4L374.365 84.7647L373 93.4L371.635 84.7647L363 83.4L371.635 82.0353L373 73.4Z" fill="white"/>
</g>
<g filter="url(#filter7_d_2210_82634)">
<path d="M167 265.4L168.365 274.035L177 275.4L168.365 276.765L167 285.4L165.635 276.765L157 275.4L165.635 274.035L167 265.4Z" fill="white"/>
</g>
<g filter="url(#filter8_d_2210_82634)">
<path d="M352.199 235.5C352.199 235.224 351.975 235 351.699 235C351.423 235 351.199 235.224 351.199 235.5V299H352.199V235.5Z" fill="url(#paint13_linear_2210_82634)" shape-rendering="crispEdges"/>
</g>
<g filter="url(#filter9_d_2210_82634)">
<path d="M151.199 180.5C151.199 180.224 150.975 180 150.699 180C150.423 180 150.199 180.224 150.199 180.5V244H151.199V180.5Z" fill="url(#paint14_linear_2210_82634)" shape-rendering="crispEdges"/>
</g>
<g filter="url(#filter10_d_2210_82634)">
<path fill-rule="evenodd" clip-rule="evenodd" d="M206.649 97.5857L213.024 161.943C233.167 158.005 244.499 159.275 264.792 169.072C284.425 161.286 295.515 159.935 315.421 161.943L321.545 97.5713C322.351 97.7423 323.169 97.9197 324 98.1034L317.354 167.987C296.664 165.899 285.136 167.304 264.728 175.4C243.636 165.213 231.857 163.892 210.92 167.987L204 98.1034C204.898 97.9257 205.78 97.753 206.649 97.5857Z" fill="white"/>
<path fill-rule="evenodd" clip-rule="evenodd" d="M218.328 92.6284C215.424 93.1078 212.377 93.6816 209.11 94.3283L215.442 158.264C233.981 154.639 244.673 155.653 262.834 164.169V162.623C255.57 147.128 222.621 129.366 215.575 145.429L218.328 92.6284ZM262.834 137.589V115.977C262.703 122.942 262.735 130.535 262.834 137.589ZM262.834 100.713V95.814C261.142 95.2904 259.511 94.8151 257.931 94.3856C259.57 96.3779 261.208 98.4888 262.834 100.713ZM312.831 158.264C294.64 156.429 284.19 157.544 266.834 164.205V95.6043C283.946 89.4799 295.788 89.2177 318.913 94.3283L312.831 158.264Z" fill="white"/>
<path fill-rule="evenodd" clip-rule="evenodd" d="M263.839 96.0449C248.858 72.0884 229.115 71.5679 223.555 81.4266L218.858 139.013C226.096 127.58 258.172 145.705 262.534 158.282C262.556 158.347 262.573 156.266 262.6 152.777C262.689 141.295 262.897 114.558 263.839 98.785V96.0449Z" fill="white"/>
</g>
<ellipse cx="264" cy="189.4" rx="37" ry="4" fill="url(#paint15_radial_2210_82634)" fill-opacity="0.6"/>
<defs>
<filter id="filter0_bd_2210_82634" x="168.883" y="170.398" width="183.235" height="114.489" filterUnits="userSpaceOnUse" color-interpolation-filters="sRGB">
<feFlood flood-opacity="0" result="BackgroundImageFix"/>
<feGaussianBlur in="BackgroundImageFix" stdDeviation="2"/>
<feComposite in2="SourceAlpha" operator="in" result="effect1_backgroundBlur_2210_82634"/>
<feColorMatrix in="SourceAlpha" type="matrix" values="0 0 0 0 0 0 0 0 0 0 0 0 0 0 0 0 0 0 127 0" result="hardAlpha"/>
<feOffset/>
<feGaussianBlur stdDeviation="5.15"/>
<feComposite in2="hardAlpha" operator="out"/>
<feColorMatrix type="matrix" values="0 0 0 0 1 0 0 0 0 1 0 0 0 0 1 0 0 0 0.4 0"/>
<feBlend mode="normal" in2="effect1_backgroundBlur_2210_82634" result="effect2_dropShadow_2210_82634"/>
<feBlend mode="normal" in="SourceGraphic" in2="effect2_dropShadow_2210_82634" result="shape"/>
</filter>
<filter id="filter1_bd_2210_82634" x="214.85" y="193.25" width="91.6173" height="57.2445" filterUnits="userSpaceOnUse" color-interpolation-filters="sRGB">
<feFlood flood-opacity="0" result="BackgroundImageFix"/>
<feGaussianBlur in="BackgroundImageFix" stdDeviation="1"/>
<feComposite in2="SourceAlpha" operator="in" result="effect1_backgroundBlur_2210_82634"/>
<feColorMatrix in="SourceAlpha" type="matrix" values="0 0 0 0 0 0 0 0 0 0 0 0 0 0 0 0 0 0 127 0" result="hardAlpha"/>
<feOffset/>
<feGaussianBlur stdDeviation="2.575"/>
<feComposite in2="hardAlpha" operator="out"/>
<feColorMatrix type="matrix" values="0 0 0 0 1 0 0 0 0 1 0 0 0 0 1 0 0 0 0.4 0"/>
<feBlend mode="normal" in2="effect1_backgroundBlur_2210_82634" result="effect2_dropShadow_2210_82634"/>
<feBlend mode="normal" in="SourceGraphic" in2="effect2_dropShadow_2210_82634" result="shape"/>
</filter>
<filter id="filter2_d_2210_82634" x="214.854" y="166.25" width="91.6173" height="57.2445" filterUnits="userSpaceOnUse" color-interpolation-filters="sRGB">
<feFlood flood-opacity="0" result="BackgroundImageFix"/>
<feColorMatrix in="SourceAlpha" type="matrix" values="0 0 0 0 0 0 0 0 0 0 0 0 0 0 0 0 0 0 127 0" result="hardAlpha"/>
<feOffset/>
<feGaussianBlur stdDeviation="2.575"/>
<feComposite in2="hardAlpha" operator="out"/>
<feColorMatrix type="matrix" values="0 0 0 0 1 0 0 0 0 1 0 0 0 0 1 0 0 0 0.4 0"/>
<feBlend mode="normal" in2="BackgroundImageFix" result="effect1_dropShadow_2210_82634"/>
<feBlend mode="normal" in="SourceGraphic" in2="effect1_dropShadow_2210_82634" result="shape"/>
</filter>
<filter id="filter3_bdi_2210_82634" x="172" y="42.4" width="180" height="180" filterUnits="userSpaceOnUse" color-interpolation-filters="sRGB">
<feFlood flood-opacity="0" result="BackgroundImageFix"/>
<feGaussianBlur in="BackgroundImageFix" stdDeviation="10"/>
<feComposite in2="SourceAlpha" operator="in" result="effect1_backgroundBlur_2210_82634"/>
<feColorMatrix in="SourceAlpha" type="matrix" values="0 0 0 0 0 0 0 0 0 0 0 0 0 0 0 0 0 0 127 0" result="hardAlpha"/>
<feOffset/>
<feGaussianBlur stdDeviation="10"/>
<feComposite in2="hardAlpha" operator="out"/>
<feColorMatrix type="matrix" values="0 0 0 0 1 0 0 0 0 1 0 0 0 0 1 0 0 0 0.5 0"/>
<feBlend mode="normal" in2="effect1_backgroundBlur_2210_82634" result="effect2_dropShadow_2210_82634"/>
<feBlend mode="normal" in="SourceGraphic" in2="effect2_dropShadow_2210_82634" result="shape"/>
<feColorMatrix in="SourceAlpha" type="matrix" values="0 0 0 0 0 0 0 0 0 0 0 0 0 0 0 0 0 0 127 0" result="hardAlpha"/>
<feOffset/>
<feGaussianBlur stdDeviation="8"/>
<feComposite in2="hardAlpha" operator="arithmetic" k2="-1" k3="1"/>
<feColorMatrix type="matrix" values="0 0 0 0 0.625 0 0 0 0 0.91875 0 0 0 0 1 0 0 0 0.5 0"/>
<feBlend mode="normal" in2="shape" result="effect3_innerShadow_2210_82634"/>
</filter>
<filter id="filter4_d_2210_82634" x="149.199" y="107.8" width="36" height="36" filterUnits="userSpaceOnUse" color-interpolation-filters="sRGB">
<feFlood flood-opacity="0" result="BackgroundImageFix"/>
<feColorMatrix in="SourceAlpha" type="matrix" values="0 0 0 0 0 0 0 0 0 0 0 0 0 0 0 0 0 0 127 0" result="hardAlpha"/>
<feOffset/>
<feGaussianBlur stdDeviation="4"/>
<feComposite in2="hardAlpha" operator="out"/>
<feColorMatrix type="matrix" values="0 0 0 0 1 0 0 0 0 1 0 0 0 0 1 0 0 0 1 0"/>
<feBlend mode="normal" in2="BackgroundImageFix" result="effect1_dropShadow_2210_82634"/>
<feBlend mode="normal" in="SourceGraphic" in2="effect1_dropShadow_2210_82634" result="shape"/>
</filter>
<filter id="filter5_d_2210_82634" x="355" y="237.4" width="36" height="36" filterUnits="userSpaceOnUse" color-interpolation-filters="sRGB">
<feFlood flood-opacity="0" result="BackgroundImageFix"/>
<feColorMatrix in="SourceAlpha" type="matrix" values="0 0 0 0 0 0 0 0 0 0 0 0 0 0 0 0 0 0 127 0" result="hardAlpha"/>
<feOffset/>
<feGaussianBlur stdDeviation="4"/>
<feComposite in2="hardAlpha" operator="out"/>
<feColorMatrix type="matrix" values="0 0 0 0 1 0 0 0 0 1 0 0 0 0 1 0 0 0 1 0"/>
<feBlend mode="normal" in2="BackgroundImageFix" result="effect1_dropShadow_2210_82634"/>
<feBlend mode="normal" in="SourceGraphic" in2="effect1_dropShadow_2210_82634" result="shape"/>
</filter>
<filter id="filter6_d_2210_82634" x="355" y="65.4" width="36" height="36" filterUnits="userSpaceOnUse" color-interpolation-filters="sRGB">
<feFlood flood-opacity="0" result="BackgroundImageFix"/>
<feColorMatrix in="SourceAlpha" type="matrix" values="0 0 0 0 0 0 0 0 0 0 0 0 0 0 0 0 0 0 127 0" result="hardAlpha"/>
<feOffset/>
<feGaussianBlur stdDeviation="4"/>
<feComposite in2="hardAlpha" operator="out"/>
<feColorMatrix type="matrix" values="0 0 0 0 1 0 0 0 0 1 0 0 0 0 1 0 0 0 1 0"/>
<feBlend mode="normal" in2="BackgroundImageFix" result="effect1_dropShadow_2210_82634"/>
<feBlend mode="normal" in="SourceGraphic" in2="effect1_dropShadow_2210_82634" result="shape"/>
</filter>
<filter id="filter7_d_2210_82634" x="149" y="257.4" width="36" height="36" filterUnits="userSpaceOnUse" color-interpolation-filters="sRGB">
<feFlood flood-opacity="0" result="BackgroundImageFix"/>
<feColorMatrix in="SourceAlpha" type="matrix" values="0 0 0 0 0 0 0 0 0 0 0 0 0 0 0 0 0 0 127 0" result="hardAlpha"/>
<feOffset/>
<feGaussianBlur stdDeviation="4"/>
<feComposite in2="hardAlpha" operator="out"/>
<feColorMatrix type="matrix" values="0 0 0 0 1 0 0 0 0 1 0 0 0 0 1 0 0 0 1 0"/>
<feBlend mode="normal" in2="BackgroundImageFix" result="effect1_dropShadow_2210_82634"/>
<feBlend mode="normal" in="SourceGraphic" in2="effect1_dropShadow_2210_82634" result="shape"/>
</filter>
<filter id="filter8_d_2210_82634" x="345.599" y="229.4" width="12.2" height="75.2" filterUnits="userSpaceOnUse" color-interpolation-filters="sRGB">
<feFlood flood-opacity="0" result="BackgroundImageFix"/>
<feColorMatrix in="SourceAlpha" type="matrix" values="0 0 0 0 0 0 0 0 0 0 0 0 0 0 0 0 0 0 127 0" result="hardAlpha"/>
<feOffset/>
<feGaussianBlur stdDeviation="2.8"/>
<feComposite in2="hardAlpha" operator="out"/>
<feColorMatrix type="matrix" values="0 0 0 0 1 0 0 0 0 1 0 0 0 0 1 0 0 0 0.8 0"/>
<feBlend mode="normal" in2="BackgroundImageFix" result="effect1_dropShadow_2210_82634"/>
<feBlend mode="normal" in="SourceGraphic" in2="effect1_dropShadow_2210_82634" result="shape"/>
</filter>
<filter id="filter9_d_2210_82634" x="144.599" y="174.4" width="12.2" height="75.2" filterUnits="userSpaceOnUse" color-interpolation-filters="sRGB">
<feFlood flood-opacity="0" result="BackgroundImageFix"/>
<feColorMatrix in="SourceAlpha" type="matrix" values="0 0 0 0 0 0 0 0 0 0 0 0 0 0 0 0 0 0 127 0" result="hardAlpha"/>
<feOffset/>
<feGaussianBlur stdDeviation="2.8"/>
<feComposite in2="hardAlpha" operator="out"/>
<feColorMatrix type="matrix" values="0 0 0 0 1 0 0 0 0 1 0 0 0 0 1 0 0 0 0.8 0"/>
<feBlend mode="normal" in2="BackgroundImageFix" result="effect1_dropShadow_2210_82634"/>
<feBlend mode="normal" in="SourceGraphic" in2="effect1_dropShadow_2210_82634" result="shape"/>
</filter>
<filter id="filter10_d_2210_82634" x="186.8" y="62.2" width="154.4" height="134.4" filterUnits="userSpaceOnUse" color-interpolation-filters="sRGB">
<feFlood flood-opacity="0" result="BackgroundImageFix"/>
<feColorMatrix in="SourceAlpha" type="matrix" values="0 0 0 0 0 0 0 0 0 0 0 0 0 0 0 0 0 0 127 0" result="hardAlpha"/>
<feOffset dy="4"/>
<feGaussianBlur stdDeviation="8.6"/>
<feComposite in2="hardAlpha" operator="out"/>
<feColorMatrix type="matrix" values="0 0 0 0 0.282353 0 0 0 0 0.901961 0 0 0 0 1 0 0 0 1 0"/>
<feBlend mode="normal" in2="BackgroundImageFix" result="effect1_dropShadow_2210_82634"/>
<feBlend mode="normal" in="SourceGraphic" in2="effect1_dropShadow_2210_82634" result="shape"/>
</filter>
<linearGradient id="paint0_linear_2210_82634" x1="-6.69861" y1="100.109" x2="84.3441" y2="-27.3604" gradientUnits="userSpaceOnUse">
<stop stop-color="white" stop-opacity="0.4"/>
<stop offset="1" stop-color="white" stop-opacity="0.1"/>
</linearGradient>
<linearGradient id="paint1_linear_2210_82634" x1="101.841" y1="-8.43061" x2="13.1386" y2="115.762" gradientUnits="userSpaceOnUse">
<stop stop-color="white" stop-opacity="0.4"/>
<stop offset="1" stop-color="white" stop-opacity="0.1"/>
</linearGradient>
<radialGradient id="paint2_radial_2210_82634" cx="0" cy="0" r="1" gradientUnits="userSpaceOnUse" gradientTransform="translate(260.4 208.6) rotate(90) scale(155.2 174.4)">
<stop stop-color="#48E6FF"/>
<stop offset="1" stop-color="#1E0246" stop-opacity="0"/>
</radialGradient>
<radialGradient id="paint3_radial_2210_82634" cx="0" cy="0" r="1" gradientUnits="userSpaceOnUse" gradientTransform="translate(328.4 189.6) rotate(90) scale(155.2 174.4)">
<stop stop-color="#48E6FF"/>
<stop offset="1" stop-color="#1E0246" stop-opacity="0"/>
</radialGradient>
<radialGradient id="paint4_radial_2210_82634" cx="0" cy="0" r="1" gradientUnits="userSpaceOnUse" gradientTransform="translate(174.4 155.6) rotate(90) scale(155.2 174.4)">
<stop stop-color="#48E6FF"/>
<stop offset="1" stop-color="#1E0246" stop-opacity="0"/>
</radialGradient>
<linearGradient id="paint5_linear_2210_82634" x1="-3.34931" y1="50.0544" x2="42.172" y2="-13.6802" gradientUnits="userSpaceOnUse">
<stop stop-color="white" stop-opacity="0.4"/>
<stop offset="1" stop-color="white" stop-opacity="0.1"/>
</linearGradient>
<linearGradient id="paint6_linear_2210_82634" x1="50.9204" y1="-4.21531" x2="6.56932" y2="57.8809" gradientUnits="userSpaceOnUse">
<stop stop-color="white" stop-opacity="0.4"/>
<stop offset="1" stop-color="white" stop-opacity="0.1"/>
</linearGradient>
<linearGradient id="paint7_linear_2210_82634" x1="-3.34931" y1="50.0544" x2="42.172" y2="-13.6802" gradientUnits="userSpaceOnUse">
<stop stop-color="white" stop-opacity="0.4"/>
<stop offset="1" stop-color="white" stop-opacity="0.1"/>
</linearGradient>
<linearGradient id="paint8_linear_2210_82634" x1="50.9204" y1="-4.21531" x2="6.56932" y2="57.8809" gradientUnits="userSpaceOnUse">
<stop stop-color="white" stop-opacity="0.4"/>
<stop offset="1" stop-color="white" stop-opacity="0.1"/>
</linearGradient>
<linearGradient id="paint9_linear_2210_82634" x1="0" y1="1.63296" x2="46.3706" y2="1.63296" gradientUnits="userSpaceOnUse">
<stop stop-color="white"/>
<stop offset="1" stop-color="#48E6FF"/>
</linearGradient>
<linearGradient id="paint10_linear_2210_82634" x1="0" y1="1.63296" x2="47.4274" y2="1.63296" gradientUnits="userSpaceOnUse">
<stop stop-color="white"/>
<stop offset="1" stop-color="#48E6FF"/>
</linearGradient>
<linearGradient id="paint11_linear_2210_82634" x1="228.719" y1="90.6684" x2="365.281" y2="183.997" gradientUnits="userSpaceOnUse">
<stop stop-color="white" stop-opacity="0.4"/>
<stop offset="1" stop-color="white" stop-opacity="0.2"/>
</linearGradient>
<linearGradient id="paint12_linear_2210_82634" x1="201.185" y1="62.4" x2="322.815" y2="202.4" gradientUnits="userSpaceOnUse">
<stop stop-color="white" stop-opacity="0.4"/>
<stop offset="1" stop-color="white" stop-opacity="0.1"/>
</linearGradient>
<linearGradient id="paint13_linear_2210_82634" x1="351.699" y1="235" x2="351.699" y2="294.2" gradientUnits="userSpaceOnUse">
<stop stop-color="white"/>
<stop offset="1" stop-color="white" stop-opacity="0"/>
</linearGradient>
<linearGradient id="paint14_linear_2210_82634" x1="150.699" y1="180" x2="150.699" y2="239.2" gradientUnits="userSpaceOnUse">
<stop stop-color="white"/>
<stop offset="1" stop-color="white" stop-opacity="0"/>
</linearGradient>
<radialGradient id="paint15_radial_2210_82634" cx="0" cy="0" r="1" gradientUnits="userSpaceOnUse" gradientTransform="translate(264 189.4) scale(37 4)">
<stop stop-color="#390516" stop-opacity="0.8"/>
<stop offset="1" stop-color="#B6A3C1" stop-opacity="0"/>
</radialGradient>
</defs>
</svg>
