<svg width="503"
     height="364"
     viewBox="0 0 503 364"
     fill="none"
     xmlns="http://www.w3.org/2000/svg">
    <g filter="url(#filter0_bd_2210_82700)">
        <rect width="93.8951"
              height="93.8951"
              transform="matrix(0.866044 0.499967 -0.866044 0.499967 260.5 180.498)"
              fill="url(#paint0_linear_2210_82700)"
              shape-rendering="crispEdges" />
        <rect y="0.499967"
              width="92.8951"
              height="92.8951"
              transform="matrix(0.866044 0.499967 -0.866044 0.499967 260.933 180.748)"
              stroke="url(#paint1_linear_2210_82700)"
              shape-rendering="crispEdges" />
    </g>
    <ellipse cx="260.4"
             cy="208.4"
             rx="174.4"
             ry="155.2"
             fill="url(#paint2_radial_2210_82700)"
             fill-opacity="0.5" />
    <ellipse cx="328.4"
             cy="189.4"
             rx="174.4"
             ry="155.2"
             fill="url(#paint3_radial_2210_82700)"
             fill-opacity="0.5" />
    <ellipse cx="174.4"
             cy="155.4"
             rx="174.4"
             ry="155.2"
             fill="url(#paint4_radial_2210_82700)"
             fill-opacity="0.5" />
    <g filter="url(#filter1_bd_2210_82700)">
        <rect width="46.9475"
              height="46.9475"
              transform="matrix(0.866044 0.499967 -0.866044 0.499967 260.659 198.2)"
              fill="url(#paint5_linear_2210_82700)"
              shape-rendering="crispEdges" />
        <rect y="0.249984"
              width="46.4475"
              height="46.4475"
              transform="matrix(0.866044 0.499967 -0.866044 0.499967 260.875 198.325)"
              stroke="url(#paint6_linear_2210_82700)"
              stroke-width="0.5"
              shape-rendering="crispEdges" />
    </g>
    <g filter="url(#filter2_d_2210_82700)">
        <rect width="46.9475"
              height="46.9475"
              transform="matrix(0.866044 0.499967 -0.866044 0.499967 260.663 171.2)"
              fill="url(#paint7_linear_2210_82700)"
              shape-rendering="crispEdges" />
        <rect y="0.249984"
              width="46.4475"
              height="46.4475"
              transform="matrix(0.866044 0.499967 -0.866044 0.499967 260.879 171.325)"
              stroke="url(#paint8_linear_2210_82700)"
              stroke-width="0.5"
              shape-rendering="crispEdges" />
    </g>
    <rect width="46.3706"
          height="3.26592"
          transform="matrix(0.866025 -0.5 -7.53505e-05 1 261.004 218.02)"
          fill="url(#paint9_linear_2210_82700)" />
    <rect width="47.4274"
          height="3.26592"
          transform="matrix(-0.866025 -0.5 7.53505e-05 1 261.073 218.334)"
          fill="url(#paint10_linear_2210_82700)" />
    <g filter="url(#filter3_bdi_2210_82700)">
        <circle cx="262"
                cy="132.2"
                r="70"
                fill="url(#paint11_linear_2210_82700)"
                shape-rendering="crispEdges" />
        <circle cx="262"
                cy="132.2"
                r="69.5"
                stroke="url(#paint12_linear_2210_82700)"
                shape-rendering="crispEdges" />
    </g>
    <g filter="url(#filter4_d_2210_82700)">
        <path d="M167.199 115.6L168.564 124.236L177.199 125.6L168.564 126.965L167.199 135.6L165.835 126.965L157.199 125.6L165.835 124.236L167.199 115.6Z"
              fill="white" />
    </g>
    <g filter="url(#filter5_d_2210_82700)">
        <path d="M373 245.2L374.365 253.835L383 255.2L374.365 256.565L373 265.2L371.635 256.565L363 255.2L371.635 253.835L373 245.2Z"
              fill="white" />
    </g>
    <g filter="url(#filter6_d_2210_82700)">
        <path d="M373 73.2001L374.365 81.8354L383 83.2001L374.365 84.5648L373 93.2001L371.635 84.5648L363 83.2001L371.635 81.8354L373 73.2001Z"
              fill="white" />
    </g>
    <g filter="url(#filter7_d_2210_82700)">
        <path d="M167 265.2L168.365 273.835L177 275.2L168.365 276.565L167 285.2L165.635 276.565L157 275.2L165.635 273.835L167 265.2Z"
              fill="white" />
    </g>
    <g filter="url(#filter8_d_2210_82700)">
        <path d="M352.199 235.3C352.199 235.024 351.975 234.8 351.699 234.8C351.423 234.8 351.199 235.024 351.199 235.3V298.8H352.199V235.3Z"
              fill="url(#paint13_linear_2210_82700)"
              shape-rendering="crispEdges" />
    </g>
    <g filter="url(#filter9_d_2210_82700)">
        <path d="M151.199 180.3C151.199 180.024 150.975 179.8 150.699 179.8C150.423 179.8 150.199 180.024 150.199 180.3V243.8H151.199V180.3Z"
              fill="url(#paint14_linear_2210_82700)"
              shape-rendering="crispEdges" />
    </g>
    <g filter="url(#filter10_d_2210_82700)">
        <path fill-rule="evenodd"
              clip-rule="evenodd"
              d="M206.649 97.3858L213.024 161.743C233.167 157.805 244.499 159.075 264.792 168.872C284.425 161.086 295.515 159.735 315.421 161.743L321.545 97.3713C322.351 97.5424 323.169 97.7197 324 97.9035L317.354 167.787C296.664 165.699 285.136 167.104 264.728 175.2C243.636 165.013 231.857 163.692 210.92 167.787L204 97.9035C204.898 97.7257 205.78 97.553 206.649 97.3858Z"
              fill="white" />
        <path fill-rule="evenodd"
              clip-rule="evenodd"
              d="M218.328 92.4284C215.424 92.9079 212.377 93.4816 209.11 94.1283L215.442 158.064C233.981 154.439 244.673 155.453 262.834 163.969V162.423C255.57 146.928 222.621 129.166 215.575 145.229L218.328 92.4284ZM262.834 137.389V115.777C262.703 122.742 262.735 130.335 262.834 137.389ZM262.834 100.513V95.614C261.142 95.0904 259.511 94.6151 257.931 94.1856C259.57 96.178 261.208 98.2888 262.834 100.513ZM312.831 158.064C294.64 156.229 284.19 157.344 266.834 164.005V95.4044C283.946 89.2799 295.788 89.0178 318.913 94.1283L312.831 158.064Z"
              fill="white" />
        <path fill-rule="evenodd"
              clip-rule="evenodd"
              d="M263.839 95.8449C248.858 71.8884 229.115 71.3679 223.555 81.2266L218.858 138.813C226.096 127.38 258.172 145.506 262.534 158.082C262.556 158.147 262.573 156.066 262.6 152.577C262.689 141.095 262.897 114.358 263.839 98.5851V95.8449Z"
              fill="white" />
    </g>
    <ellipse cx="264"
             cy="189.2"
             rx="37"
             ry="4"
             fill="url(#paint15_radial_2210_82700)"
             fill-opacity="0.6" />
    <path d="M173.4 317.2V303.2H178.46C179.58 303.2 180.507 303.387 181.24 303.76C181.973 304.133 182.513 304.647 182.86 305.3C183.22 305.94 183.4 306.667 183.4 307.48C183.4 308.24 183.227 308.947 182.88 309.6C182.533 310.24 181.993 310.76 181.26 311.16C180.54 311.547 179.607 311.74 178.46 311.74H175.8V317.2H173.4ZM175.8 309.78H178.32C179.253 309.78 179.927 309.573 180.34 309.16C180.753 308.733 180.96 308.173 180.96 307.48C180.96 306.747 180.753 306.18 180.34 305.78C179.927 305.367 179.253 305.16 178.32 305.16H175.8V309.78ZM185.371 317.2V307.22H187.531L187.751 309.1C187.977 308.66 188.264 308.287 188.611 307.98C188.971 307.66 189.384 307.413 189.851 307.24C190.331 307.067 190.864 306.98 191.451 306.98V309.5H190.711C190.297 309.5 189.911 309.553 189.551 309.66C189.191 309.753 188.877 309.913 188.611 310.14C188.344 310.367 188.137 310.673 187.991 311.06C187.844 311.447 187.771 311.927 187.771 312.5V317.2H185.371ZM197.708 317.44C196.761 317.44 195.901 317.22 195.128 316.78C194.368 316.34 193.768 315.727 193.328 314.94C192.888 314.153 192.668 313.247 192.668 312.22C192.668 311.18 192.888 310.267 193.328 309.48C193.781 308.693 194.388 308.08 195.148 307.64C195.921 307.2 196.781 306.98 197.728 306.98C198.688 306.98 199.548 307.2 200.308 307.64C201.081 308.08 201.688 308.693 202.128 309.48C202.568 310.253 202.788 311.167 202.788 312.22C202.788 313.247 202.561 314.153 202.108 314.94C201.668 315.727 201.061 316.34 200.288 316.78C199.528 317.22 198.668 317.44 197.708 317.44ZM197.708 315.38C198.188 315.38 198.621 315.26 199.008 315.02C199.408 314.78 199.728 314.427 199.968 313.96C200.221 313.493 200.348 312.907 200.348 312.2C200.348 311.507 200.228 310.927 199.988 310.46C199.748 309.993 199.428 309.64 199.028 309.4C198.641 309.16 198.208 309.04 197.728 309.04C197.274 309.04 196.848 309.16 196.448 309.4C196.048 309.64 195.728 309.993 195.488 310.46C195.248 310.927 195.128 311.513 195.128 312.22C195.128 312.9 195.248 313.48 195.488 313.96C195.728 314.427 196.041 314.78 196.428 315.02C196.828 315.26 197.254 315.38 197.708 315.38ZM209.598 317.44C208.664 317.44 207.831 317.213 207.098 316.76C206.364 316.307 205.784 315.687 205.358 314.9C204.944 314.1 204.738 313.2 204.738 312.2C204.738 311.187 204.944 310.287 205.358 309.5C205.784 308.713 206.364 308.1 207.098 307.66C207.844 307.207 208.691 306.98 209.638 306.98C210.384 306.98 211.044 307.127 211.618 307.42C212.191 307.7 212.644 308.1 212.978 308.62V302.8H215.378V317.2H213.238L212.978 315.74C212.778 316.033 212.518 316.313 212.198 316.58C211.891 316.833 211.524 317.04 211.098 317.2C210.671 317.36 210.171 317.44 209.598 317.44ZM210.098 315.36C210.671 315.36 211.178 315.227 211.618 314.96C212.058 314.68 212.398 314.307 212.638 313.84C212.891 313.373 213.018 312.827 213.018 312.2C213.018 311.587 212.891 311.047 212.638 310.58C212.398 310.1 212.058 309.727 211.618 309.46C211.178 309.193 210.671 309.06 210.098 309.06C209.538 309.06 209.038 309.193 208.598 309.46C208.158 309.727 207.811 310.1 207.558 310.58C207.304 311.047 207.178 311.587 207.178 312.2C207.178 312.813 207.304 313.36 207.558 313.84C207.811 314.307 208.158 314.68 208.598 314.96C209.038 315.227 209.538 315.36 210.098 315.36ZM221.747 317.44C220.934 317.44 220.234 317.273 219.647 316.94C219.074 316.607 218.634 316.107 218.327 315.44C218.02 314.773 217.867 313.947 217.867 312.96V307.22H220.267V312.72C220.267 313.6 220.447 314.273 220.807 314.74C221.18 315.193 221.74 315.42 222.487 315.42C222.967 315.42 223.4 315.307 223.787 315.08C224.174 314.84 224.474 314.5 224.687 314.06C224.914 313.62 225.027 313.08 225.027 312.44V307.22H227.427V317.2H225.307L225.127 315.52C224.82 316.107 224.374 316.573 223.787 316.92C223.2 317.267 222.52 317.44 221.747 317.44ZM234.858 317.44C233.858 317.44 232.972 317.22 232.198 316.78C231.425 316.327 230.818 315.713 230.378 314.94C229.938 314.153 229.718 313.247 229.718 312.22C229.718 311.18 229.938 310.273 230.378 309.5C230.818 308.713 231.425 308.1 232.198 307.66C232.972 307.207 233.858 306.98 234.858 306.98C236.125 306.98 237.185 307.307 238.038 307.96C238.892 308.613 239.432 309.507 239.658 310.64H237.138C237.018 310.133 236.745 309.74 236.318 309.46C235.905 309.18 235.412 309.04 234.838 309.04C234.345 309.04 233.898 309.167 233.498 309.42C233.098 309.66 232.778 310.02 232.538 310.5C232.298 310.967 232.178 311.533 232.178 312.2C232.178 312.707 232.245 313.16 232.378 313.56C232.512 313.947 232.698 314.28 232.938 314.56C233.192 314.84 233.478 315.053 233.798 315.2C234.132 315.333 234.478 315.4 234.838 315.4C235.225 315.4 235.572 315.34 235.878 315.22C236.198 315.087 236.465 314.9 236.678 314.66C236.905 314.407 237.058 314.113 237.138 313.78H239.658C239.432 314.887 238.885 315.773 238.018 316.44C237.165 317.107 236.112 317.44 234.858 317.44ZM246.157 317.2C245.477 317.2 244.883 317.093 244.377 316.88C243.883 316.667 243.497 316.313 243.217 315.82C242.95 315.327 242.817 314.66 242.817 313.82V309.22H241.097V307.22H242.817L243.077 304.6H245.197V307.22H247.937V309.22H245.217V313.82C245.217 314.327 245.323 314.68 245.537 314.88C245.75 315.067 246.117 315.16 246.637 315.16H247.857V317.2H246.157ZM255.099 317.2V303.2H257.939L262.459 312.24L266.959 303.2H269.819V317.2H267.419V307.32L263.399 315.22H261.519L257.499 307.32V317.2H255.099ZM275.899 317.44C275.073 317.44 274.386 317.307 273.839 317.04C273.293 316.76 272.886 316.393 272.619 315.94C272.353 315.473 272.219 314.96 272.219 314.4C272.219 313.773 272.379 313.227 272.699 312.76C273.033 312.293 273.519 311.933 274.159 311.68C274.799 311.413 275.586 311.28 276.519 311.28H279.059C279.059 310.76 278.979 310.327 278.819 309.98C278.673 309.633 278.446 309.373 278.139 309.2C277.833 309.027 277.439 308.94 276.959 308.94C276.413 308.94 275.939 309.073 275.539 309.34C275.153 309.593 274.913 309.967 274.819 310.46H272.459C272.539 309.74 272.779 309.12 273.179 308.6C273.593 308.08 274.133 307.68 274.799 307.4C275.466 307.12 276.193 306.98 276.979 306.98C277.913 306.98 278.713 307.147 279.379 307.48C280.059 307.8 280.573 308.26 280.919 308.86C281.279 309.46 281.459 310.187 281.459 311.04V317.2H279.419L279.179 315.6C279.046 315.853 278.873 316.093 278.659 316.32C278.459 316.547 278.226 316.747 277.959 316.92C277.693 317.08 277.386 317.207 277.039 317.3C276.706 317.393 276.326 317.44 275.899 317.44ZM276.439 315.54C276.826 315.54 277.173 315.473 277.479 315.34C277.786 315.193 278.046 314.993 278.259 314.74C278.473 314.487 278.639 314.2 278.759 313.88C278.893 313.56 278.973 313.22 278.999 312.86V312.84H276.779C276.299 312.84 275.906 312.9 275.599 313.02C275.306 313.14 275.086 313.307 274.939 313.52C274.806 313.72 274.739 313.953 274.739 314.22C274.739 314.5 274.806 314.74 274.939 314.94C275.073 315.14 275.266 315.293 275.519 315.4C275.786 315.493 276.093 315.54 276.439 315.54ZM283.965 317.2V307.22H286.105L286.265 308.9C286.585 308.313 287.031 307.847 287.605 307.5C288.191 307.153 288.871 306.98 289.645 306.98C290.471 306.98 291.171 307.153 291.745 307.5C292.318 307.833 292.758 308.333 293.065 309C293.371 309.667 293.525 310.487 293.525 311.46V317.2H291.125V311.7C291.125 310.833 290.938 310.167 290.565 309.7C290.205 309.233 289.651 309 288.905 309C288.425 309 287.991 309.12 287.605 309.36C287.218 309.6 286.911 309.94 286.685 310.38C286.471 310.807 286.365 311.34 286.365 311.98V317.2H283.965ZM299.376 317.44C298.549 317.44 297.862 317.307 297.316 317.04C296.769 316.76 296.362 316.393 296.096 315.94C295.829 315.473 295.696 314.96 295.696 314.4C295.696 313.773 295.856 313.227 296.176 312.76C296.509 312.293 296.996 311.933 297.636 311.68C298.276 311.413 299.062 311.28 299.996 311.28H302.536C302.536 310.76 302.456 310.327 302.296 309.98C302.149 309.633 301.922 309.373 301.616 309.2C301.309 309.027 300.916 308.94 300.436 308.94C299.889 308.94 299.416 309.073 299.016 309.34C298.629 309.593 298.389 309.967 298.296 310.46H295.936C296.016 309.74 296.256 309.12 296.656 308.6C297.069 308.08 297.609 307.68 298.276 307.4C298.942 307.12 299.669 306.98 300.456 306.98C301.389 306.98 302.189 307.147 302.856 307.48C303.536 307.8 304.049 308.26 304.396 308.86C304.756 309.46 304.936 310.187 304.936 311.04V317.2H302.896L302.656 315.6C302.522 315.853 302.349 316.093 302.136 316.32C301.936 316.547 301.702 316.747 301.436 316.92C301.169 317.08 300.862 317.207 300.516 317.3C300.182 317.393 299.802 317.44 299.376 317.44ZM299.916 315.54C300.302 315.54 300.649 315.473 300.956 315.34C301.262 315.193 301.522 314.993 301.736 314.74C301.949 314.487 302.116 314.2 302.236 313.88C302.369 313.56 302.449 313.22 302.476 312.86V312.84H300.256C299.776 312.84 299.382 312.9 299.076 313.02C298.782 313.14 298.562 313.307 298.416 313.52C298.282 313.72 298.216 313.953 298.216 314.22C298.216 314.5 298.282 314.74 298.416 314.94C298.549 315.14 298.742 315.293 298.996 315.4C299.262 315.493 299.569 315.54 299.916 315.54ZM311.661 321.84C310.728 321.84 309.908 321.72 309.201 321.48C308.494 321.253 307.941 320.9 307.541 320.42C307.154 319.953 306.961 319.367 306.961 318.66C306.961 318.247 307.061 317.847 307.261 317.46C307.474 317.073 307.788 316.713 308.201 316.38C308.628 316.033 309.168 315.733 309.821 315.48L310.861 316.64C310.234 316.867 309.794 317.14 309.541 317.46C309.288 317.78 309.161 318.1 309.161 318.42C309.161 318.767 309.268 319.053 309.481 319.28C309.708 319.52 310.008 319.7 310.381 319.82C310.768 319.94 311.194 320 311.661 320C312.128 320 312.528 319.933 312.861 319.8C313.208 319.68 313.474 319.507 313.661 319.28C313.861 319.053 313.961 318.78 313.961 318.46C313.961 318.073 313.821 317.753 313.541 317.5C313.261 317.26 312.714 317.113 311.901 317.06C311.194 317.007 310.574 316.933 310.041 316.84C309.521 316.733 309.068 316.613 308.681 316.48C308.308 316.347 307.988 316.2 307.721 316.04C307.454 315.867 307.234 315.693 307.061 315.52V315.06L309.141 312.84L310.921 313.44L308.581 315.74L309.201 314.6C309.334 314.693 309.468 314.78 309.601 314.86C309.748 314.927 309.928 314.993 310.141 315.06C310.368 315.113 310.654 315.167 311.001 315.22C311.361 315.273 311.828 315.327 312.401 315.38C313.281 315.447 314.001 315.607 314.561 315.86C315.121 316.113 315.528 316.453 315.781 316.88C316.048 317.307 316.181 317.813 316.181 318.4C316.181 318.987 316.021 319.54 315.701 320.06C315.381 320.58 314.888 321.007 314.221 321.34C313.554 321.673 312.701 321.84 311.661 321.84ZM311.681 314.2C310.841 314.2 310.114 314.04 309.501 313.72C308.901 313.387 308.441 312.953 308.121 312.42C307.801 311.873 307.641 311.26 307.641 310.58C307.641 309.913 307.801 309.313 308.121 308.78C308.454 308.233 308.921 307.8 309.521 307.48C310.121 307.147 310.841 306.98 311.681 306.98C312.521 306.98 313.241 307.147 313.841 307.48C314.441 307.8 314.901 308.233 315.221 308.78C315.541 309.313 315.701 309.913 315.701 310.58C315.701 311.26 315.541 311.873 315.221 312.42C314.901 312.953 314.441 313.387 313.841 313.72C313.241 314.04 312.521 314.2 311.681 314.2ZM311.681 312.34C312.241 312.34 312.694 312.193 313.041 311.9C313.401 311.593 313.581 311.16 313.581 310.6C313.581 310.04 313.401 309.613 313.041 309.32C312.694 309.013 312.241 308.86 311.681 308.86C311.108 308.86 310.641 309.013 310.281 309.32C309.934 309.613 309.761 310.04 309.761 310.6C309.761 311.16 309.934 311.593 310.281 311.9C310.641 312.193 311.108 312.34 311.681 312.34ZM313.301 308.98L312.841 307.22H317.001V308.72L313.301 308.98ZM323.47 317.44C322.483 317.44 321.603 317.227 320.83 316.8C320.07 316.36 319.47 315.753 319.03 314.98C318.603 314.207 318.39 313.307 318.39 312.28C318.39 311.227 318.603 310.307 319.03 309.52C319.457 308.72 320.05 308.1 320.81 307.66C321.583 307.207 322.477 306.98 323.49 306.98C324.477 306.98 325.337 307.2 326.07 307.64C326.803 308.067 327.37 308.647 327.77 309.38C328.183 310.1 328.39 310.92 328.39 311.84C328.39 311.973 328.39 312.12 328.39 312.28C328.39 312.44 328.377 312.607 328.35 312.78H320.13V311.24H325.97C325.93 310.533 325.677 309.973 325.21 309.56C324.757 309.147 324.183 308.94 323.49 308.94C322.997 308.94 322.537 309.053 322.11 309.28C321.697 309.493 321.363 309.82 321.11 310.26C320.87 310.7 320.75 311.253 320.75 311.92V312.5C320.75 313.127 320.87 313.66 321.11 314.1C321.35 314.54 321.677 314.88 322.09 315.12C322.503 315.347 322.963 315.46 323.47 315.46C324.017 315.46 324.47 315.34 324.83 315.1C325.203 314.86 325.483 314.533 325.67 314.12H328.11C327.923 314.747 327.617 315.313 327.19 315.82C326.763 316.313 326.237 316.707 325.61 317C324.983 317.293 324.27 317.44 323.47 317.44ZM330.566 317.2V307.22H332.706L332.886 308.58C333.206 308.087 333.633 307.7 334.166 307.42C334.699 307.127 335.306 306.98 335.986 306.98C336.493 306.98 336.953 307.047 337.366 307.18C337.779 307.313 338.139 307.513 338.446 307.78C338.766 308.047 339.026 308.38 339.226 308.78C339.599 308.22 340.086 307.78 340.686 307.46C341.299 307.14 341.959 306.98 342.666 306.98C343.506 306.98 344.219 307.153 344.806 307.5C345.406 307.833 345.859 308.333 346.166 309C346.473 309.667 346.626 310.493 346.626 311.48V317.2H344.246V311.7C344.246 310.833 344.073 310.167 343.726 309.7C343.379 309.233 342.866 309 342.186 309C341.719 309 341.306 309.12 340.946 309.36C340.586 309.6 340.306 309.94 340.106 310.38C339.906 310.82 339.806 311.353 339.806 311.98V317.2H337.406V311.7C337.406 310.833 337.233 310.167 336.886 309.7C336.539 309.233 336.013 309 335.306 309C334.866 309 334.466 309.12 334.106 309.36C333.759 309.6 333.479 309.94 333.266 310.38C333.066 310.82 332.966 311.353 332.966 311.98V317.2H330.566ZM353.861 317.44C352.874 317.44 351.994 317.227 351.221 316.8C350.461 316.36 349.861 315.753 349.421 314.98C348.994 314.207 348.781 313.307 348.781 312.28C348.781 311.227 348.994 310.307 349.421 309.52C349.847 308.72 350.441 308.1 351.201 307.66C351.974 307.207 352.867 306.98 353.881 306.98C354.867 306.98 355.727 307.2 356.461 307.64C357.194 308.067 357.761 308.647 358.161 309.38C358.574 310.1 358.781 310.92 358.781 311.84C358.781 311.973 358.781 312.12 358.781 312.28C358.781 312.44 358.767 312.607 358.741 312.78H350.521V311.24H356.361C356.321 310.533 356.067 309.973 355.601 309.56C355.147 309.147 354.574 308.94 353.881 308.94C353.387 308.94 352.927 309.053 352.501 309.28C352.087 309.493 351.754 309.82 351.501 310.26C351.261 310.7 351.141 311.253 351.141 311.92V312.5C351.141 313.127 351.261 313.66 351.501 314.1C351.741 314.54 352.067 314.88 352.481 315.12C352.894 315.347 353.354 315.46 353.861 315.46C354.407 315.46 354.861 315.34 355.221 315.1C355.594 314.86 355.874 314.533 356.061 314.12H358.501C358.314 314.747 358.007 315.313 357.581 315.82C357.154 316.313 356.627 316.707 356.001 317C355.374 317.293 354.661 317.44 353.861 317.44ZM360.957 317.2V307.22H363.097L363.257 308.9C363.577 308.313 364.023 307.847 364.597 307.5C365.183 307.153 365.863 306.98 366.637 306.98C367.463 306.98 368.163 307.153 368.737 307.5C369.31 307.833 369.75 308.333 370.057 309C370.363 309.667 370.517 310.487 370.517 311.46V317.2H368.117V311.7C368.117 310.833 367.93 310.167 367.557 309.7C367.197 309.233 366.643 309 365.897 309C365.417 309 364.983 309.12 364.597 309.36C364.21 309.6 363.903 309.94 363.677 310.38C363.463 310.807 363.357 311.34 363.357 311.98V317.2H360.957ZM377.348 317.2C376.668 317.2 376.075 317.093 375.568 316.88C375.075 316.667 374.688 316.313 374.408 315.82C374.141 315.327 374.008 314.66 374.008 313.82V309.22H372.288V307.22H374.008L374.268 304.6H376.388V307.22H379.128V309.22H376.408V313.82C376.408 314.327 376.515 314.68 376.728 314.88C376.941 315.067 377.308 315.16 377.828 315.16H379.048V317.2H377.348Z"
          fill="white" />
    <defs>
        <filter id="filter0_bd_2210_82700"
                x="168.883"
                y="170.198"
                width="183.235"
                height="114.489"
                filterUnits="userSpaceOnUse"
                color-interpolation-filters="sRGB">
            <feFlood flood-opacity="0"
                     result="BackgroundImageFix" />
            <feGaussianBlur in="BackgroundImageFix"
                            stdDeviation="2" />
            <feComposite in2="SourceAlpha"
                         operator="in"
                         result="effect1_backgroundBlur_2210_82700" />
            <feColorMatrix in="SourceAlpha"
                           type="matrix"
                           values="0 0 0 0 0 0 0 0 0 0 0 0 0 0 0 0 0 0 127 0"
                           result="hardAlpha" />
            <feOffset />
            <feGaussianBlur stdDeviation="5.15" />
            <feComposite in2="hardAlpha"
                         operator="out" />
            <feColorMatrix type="matrix"
                           values="0 0 0 0 1 0 0 0 0 1 0 0 0 0 1 0 0 0 0.4 0" />
            <feBlend mode="normal"
                     in2="effect1_backgroundBlur_2210_82700"
                     result="effect2_dropShadow_2210_82700" />
            <feBlend mode="normal"
                     in="SourceGraphic"
                     in2="effect2_dropShadow_2210_82700"
                     result="shape" />
        </filter>
        <filter id="filter1_bd_2210_82700"
                x="214.85"
                y="193.05"
                width="91.6173"
                height="57.2445"
                filterUnits="userSpaceOnUse"
                color-interpolation-filters="sRGB">
            <feFlood flood-opacity="0"
                     result="BackgroundImageFix" />
            <feGaussianBlur in="BackgroundImageFix"
                            stdDeviation="1" />
            <feComposite in2="SourceAlpha"
                         operator="in"
                         result="effect1_backgroundBlur_2210_82700" />
            <feColorMatrix in="SourceAlpha"
                           type="matrix"
                           values="0 0 0 0 0 0 0 0 0 0 0 0 0 0 0 0 0 0 127 0"
                           result="hardAlpha" />
            <feOffset />
            <feGaussianBlur stdDeviation="2.575" />
            <feComposite in2="hardAlpha"
                         operator="out" />
            <feColorMatrix type="matrix"
                           values="0 0 0 0 1 0 0 0 0 1 0 0 0 0 1 0 0 0 0.4 0" />
            <feBlend mode="normal"
                     in2="effect1_backgroundBlur_2210_82700"
                     result="effect2_dropShadow_2210_82700" />
            <feBlend mode="normal"
                     in="SourceGraphic"
                     in2="effect2_dropShadow_2210_82700"
                     result="shape" />
        </filter>
        <filter id="filter2_d_2210_82700"
                x="214.854"
                y="166.05"
                width="91.6173"
                height="57.2445"
                filterUnits="userSpaceOnUse"
                color-interpolation-filters="sRGB">
            <feFlood flood-opacity="0"
                     result="BackgroundImageFix" />
            <feColorMatrix in="SourceAlpha"
                           type="matrix"
                           values="0 0 0 0 0 0 0 0 0 0 0 0 0 0 0 0 0 0 127 0"
                           result="hardAlpha" />
            <feOffset />
            <feGaussianBlur stdDeviation="2.575" />
            <feComposite in2="hardAlpha"
                         operator="out" />
            <feColorMatrix type="matrix"
                           values="0 0 0 0 1 0 0 0 0 1 0 0 0 0 1 0 0 0 0.4 0" />
            <feBlend mode="normal"
                     in2="BackgroundImageFix"
                     result="effect1_dropShadow_2210_82700" />
            <feBlend mode="normal"
                     in="SourceGraphic"
                     in2="effect1_dropShadow_2210_82700"
                     result="shape" />
        </filter>
        <filter id="filter3_bdi_2210_82700"
                x="172"
                y="42.2001"
                width="180"
                height="180"
                filterUnits="userSpaceOnUse"
                color-interpolation-filters="sRGB">
            <feFlood flood-opacity="0"
                     result="BackgroundImageFix" />
            <feGaussianBlur in="BackgroundImageFix"
                            stdDeviation="10" />
            <feComposite in2="SourceAlpha"
                         operator="in"
                         result="effect1_backgroundBlur_2210_82700" />
            <feColorMatrix in="SourceAlpha"
                           type="matrix"
                           values="0 0 0 0 0 0 0 0 0 0 0 0 0 0 0 0 0 0 127 0"
                           result="hardAlpha" />
            <feOffset />
            <feGaussianBlur stdDeviation="10" />
            <feComposite in2="hardAlpha"
                         operator="out" />
            <feColorMatrix type="matrix"
                           values="0 0 0 0 1 0 0 0 0 1 0 0 0 0 1 0 0 0 0.5 0" />
            <feBlend mode="normal"
                     in2="effect1_backgroundBlur_2210_82700"
                     result="effect2_dropShadow_2210_82700" />
            <feBlend mode="normal"
                     in="SourceGraphic"
                     in2="effect2_dropShadow_2210_82700"
                     result="shape" />
            <feColorMatrix in="SourceAlpha"
                           type="matrix"
                           values="0 0 0 0 0 0 0 0 0 0 0 0 0 0 0 0 0 0 127 0"
                           result="hardAlpha" />
            <feOffset />
            <feGaussianBlur stdDeviation="8" />
            <feComposite in2="hardAlpha"
                         operator="arithmetic"
                         k2="-1"
                         k3="1" />
            <feColorMatrix type="matrix"
                           values="0 0 0 0 0.625 0 0 0 0 0.91875 0 0 0 0 1 0 0 0 0.5 0" />
            <feBlend mode="normal"
                     in2="shape"
                     result="effect3_innerShadow_2210_82700" />
        </filter>
        <filter id="filter4_d_2210_82700"
                x="149.199"
                y="107.6"
                width="36"
                height="36"
                filterUnits="userSpaceOnUse"
                color-interpolation-filters="sRGB">
            <feFlood flood-opacity="0"
                     result="BackgroundImageFix" />
            <feColorMatrix in="SourceAlpha"
                           type="matrix"
                           values="0 0 0 0 0 0 0 0 0 0 0 0 0 0 0 0 0 0 127 0"
                           result="hardAlpha" />
            <feOffset />
            <feGaussianBlur stdDeviation="4" />
            <feComposite in2="hardAlpha"
                         operator="out" />
            <feColorMatrix type="matrix"
                           values="0 0 0 0 1 0 0 0 0 1 0 0 0 0 1 0 0 0 1 0" />
            <feBlend mode="normal"
                     in2="BackgroundImageFix"
                     result="effect1_dropShadow_2210_82700" />
            <feBlend mode="normal"
                     in="SourceGraphic"
                     in2="effect1_dropShadow_2210_82700"
                     result="shape" />
        </filter>
        <filter id="filter5_d_2210_82700"
                x="355"
                y="237.2"
                width="36"
                height="36"
                filterUnits="userSpaceOnUse"
                color-interpolation-filters="sRGB">
            <feFlood flood-opacity="0"
                     result="BackgroundImageFix" />
            <feColorMatrix in="SourceAlpha"
                           type="matrix"
                           values="0 0 0 0 0 0 0 0 0 0 0 0 0 0 0 0 0 0 127 0"
                           result="hardAlpha" />
            <feOffset />
            <feGaussianBlur stdDeviation="4" />
            <feComposite in2="hardAlpha"
                         operator="out" />
            <feColorMatrix type="matrix"
                           values="0 0 0 0 1 0 0 0 0 1 0 0 0 0 1 0 0 0 1 0" />
            <feBlend mode="normal"
                     in2="BackgroundImageFix"
                     result="effect1_dropShadow_2210_82700" />
            <feBlend mode="normal"
                     in="SourceGraphic"
                     in2="effect1_dropShadow_2210_82700"
                     result="shape" />
        </filter>
        <filter id="filter6_d_2210_82700"
                x="355"
                y="65.2001"
                width="36"
                height="36"
                filterUnits="userSpaceOnUse"
                color-interpolation-filters="sRGB">
            <feFlood flood-opacity="0"
                     result="BackgroundImageFix" />
            <feColorMatrix in="SourceAlpha"
                           type="matrix"
                           values="0 0 0 0 0 0 0 0 0 0 0 0 0 0 0 0 0 0 127 0"
                           result="hardAlpha" />
            <feOffset />
            <feGaussianBlur stdDeviation="4" />
            <feComposite in2="hardAlpha"
                         operator="out" />
            <feColorMatrix type="matrix"
                           values="0 0 0 0 1 0 0 0 0 1 0 0 0 0 1 0 0 0 1 0" />
            <feBlend mode="normal"
                     in2="BackgroundImageFix"
                     result="effect1_dropShadow_2210_82700" />
            <feBlend mode="normal"
                     in="SourceGraphic"
                     in2="effect1_dropShadow_2210_82700"
                     result="shape" />
        </filter>
        <filter id="filter7_d_2210_82700"
                x="149"
                y="257.2"
                width="36"
                height="36"
                filterUnits="userSpaceOnUse"
                color-interpolation-filters="sRGB">
            <feFlood flood-opacity="0"
                     result="BackgroundImageFix" />
            <feColorMatrix in="SourceAlpha"
                           type="matrix"
                           values="0 0 0 0 0 0 0 0 0 0 0 0 0 0 0 0 0 0 127 0"
                           result="hardAlpha" />
            <feOffset />
            <feGaussianBlur stdDeviation="4" />
            <feComposite in2="hardAlpha"
                         operator="out" />
            <feColorMatrix type="matrix"
                           values="0 0 0 0 1 0 0 0 0 1 0 0 0 0 1 0 0 0 1 0" />
            <feBlend mode="normal"
                     in2="BackgroundImageFix"
                     result="effect1_dropShadow_2210_82700" />
            <feBlend mode="normal"
                     in="SourceGraphic"
                     in2="effect1_dropShadow_2210_82700"
                     result="shape" />
        </filter>
        <filter id="filter8_d_2210_82700"
                x="345.599"
                y="229.2"
                width="12.2"
                height="75.2"
                filterUnits="userSpaceOnUse"
                color-interpolation-filters="sRGB">
            <feFlood flood-opacity="0"
                     result="BackgroundImageFix" />
            <feColorMatrix in="SourceAlpha"
                           type="matrix"
                           values="0 0 0 0 0 0 0 0 0 0 0 0 0 0 0 0 0 0 127 0"
                           result="hardAlpha" />
            <feOffset />
            <feGaussianBlur stdDeviation="2.8" />
            <feComposite in2="hardAlpha"
                         operator="out" />
            <feColorMatrix type="matrix"
                           values="0 0 0 0 1 0 0 0 0 1 0 0 0 0 1 0 0 0 0.8 0" />
            <feBlend mode="normal"
                     in2="BackgroundImageFix"
                     result="effect1_dropShadow_2210_82700" />
            <feBlend mode="normal"
                     in="SourceGraphic"
                     in2="effect1_dropShadow_2210_82700"
                     result="shape" />
        </filter>
        <filter id="filter9_d_2210_82700"
                x="144.599"
                y="174.2"
                width="12.2"
                height="75.2"
                filterUnits="userSpaceOnUse"
                color-interpolation-filters="sRGB">
            <feFlood flood-opacity="0"
                     result="BackgroundImageFix" />
            <feColorMatrix in="SourceAlpha"
                           type="matrix"
                           values="0 0 0 0 0 0 0 0 0 0 0 0 0 0 0 0 0 0 127 0"
                           result="hardAlpha" />
            <feOffset />
            <feGaussianBlur stdDeviation="2.8" />
            <feComposite in2="hardAlpha"
                         operator="out" />
            <feColorMatrix type="matrix"
                           values="0 0 0 0 1 0 0 0 0 1 0 0 0 0 1 0 0 0 0.8 0" />
            <feBlend mode="normal"
                     in2="BackgroundImageFix"
                     result="effect1_dropShadow_2210_82700" />
            <feBlend mode="normal"
                     in="SourceGraphic"
                     in2="effect1_dropShadow_2210_82700"
                     result="shape" />
        </filter>
        <filter id="filter10_d_2210_82700"
                x="186.8"
                y="62.0001"
                width="154.4"
                height="134.4"
                filterUnits="userSpaceOnUse"
                color-interpolation-filters="sRGB">
            <feFlood flood-opacity="0"
                     result="BackgroundImageFix" />
            <feColorMatrix in="SourceAlpha"
                           type="matrix"
                           values="0 0 0 0 0 0 0 0 0 0 0 0 0 0 0 0 0 0 127 0"
                           result="hardAlpha" />
            <feOffset dy="4" />
            <feGaussianBlur stdDeviation="8.6" />
            <feComposite in2="hardAlpha"
                         operator="out" />
            <feColorMatrix type="matrix"
                           values="0 0 0 0 0.301961 0 0 0 0 0.0235294 0 0 0 0 0.690196 0 0 0 1 0" />
            <feBlend mode="normal"
                     in2="BackgroundImageFix"
                     result="effect1_dropShadow_2210_82700" />
            <feBlend mode="normal"
                     in="SourceGraphic"
                     in2="effect1_dropShadow_2210_82700"
                     result="shape" />
        </filter>
        <linearGradient id="paint0_linear_2210_82700"
                        x1="-6.69861"
                        y1="100.109"
                        x2="84.3441"
                        y2="-27.3604"
                        gradientUnits="userSpaceOnUse">
            <stop stop-color="white"
                  stop-opacity="0.4" />
            <stop offset="1"
                  stop-color="white"
                  stop-opacity="0.1" />
        </linearGradient>
        <linearGradient id="paint1_linear_2210_82700"
                        x1="101.841"
                        y1="-8.43061"
                        x2="13.1386"
                        y2="115.762"
                        gradientUnits="userSpaceOnUse">
            <stop stop-color="white"
                  stop-opacity="0.4" />
            <stop offset="1"
                  stop-color="white"
                  stop-opacity="0.1" />
        </linearGradient>
        <radialGradient id="paint2_radial_2210_82700"
                        cx="0"
                        cy="0"
                        r="1"
                        gradientUnits="userSpaceOnUse"
                        gradientTransform="translate(260.4 208.4) rotate(90) scale(155.2 174.4)">
            <stop stop-color="#D888FF" />
            <stop offset="1"
                  stop-color="#1E0246"
                  stop-opacity="0" />
        </radialGradient>
        <radialGradient id="paint3_radial_2210_82700"
                        cx="0"
                        cy="0"
                        r="1"
                        gradientUnits="userSpaceOnUse"
                        gradientTransform="translate(328.4 189.4) rotate(90) scale(155.2 174.4)">
            <stop stop-color="#D888FF" />
            <stop offset="1"
                  stop-color="#1E0246"
                  stop-opacity="0" />
        </radialGradient>
        <radialGradient id="paint4_radial_2210_82700"
                        cx="0"
                        cy="0"
                        r="1"
                        gradientUnits="userSpaceOnUse"
                        gradientTransform="translate(174.4 155.4) rotate(90) scale(155.2 174.4)">
            <stop stop-color="#D888FF" />
            <stop offset="1"
                  stop-color="#1E0246"
                  stop-opacity="0" />
        </radialGradient>
        <linearGradient id="paint5_linear_2210_82700"
                        x1="-3.34931"
                        y1="50.0544"
                        x2="42.172"
                        y2="-13.6802"
                        gradientUnits="userSpaceOnUse">
            <stop stop-color="white"
                  stop-opacity="0.4" />
            <stop offset="1"
                  stop-color="white"
                  stop-opacity="0.1" />
        </linearGradient>
        <linearGradient id="paint6_linear_2210_82700"
                        x1="50.9204"
                        y1="-4.21531"
                        x2="6.56932"
                        y2="57.8809"
                        gradientUnits="userSpaceOnUse">
            <stop stop-color="white"
                  stop-opacity="0.4" />
            <stop offset="1"
                  stop-color="white"
                  stop-opacity="0.1" />
        </linearGradient>
        <linearGradient id="paint7_linear_2210_82700"
                        x1="-3.34931"
                        y1="50.0544"
                        x2="42.172"
                        y2="-13.6802"
                        gradientUnits="userSpaceOnUse">
            <stop stop-color="white"
                  stop-opacity="0.4" />
            <stop offset="1"
                  stop-color="white"
                  stop-opacity="0.1" />
        </linearGradient>
        <linearGradient id="paint8_linear_2210_82700"
                        x1="50.9204"
                        y1="-4.21531"
                        x2="6.56932"
                        y2="57.8809"
                        gradientUnits="userSpaceOnUse">
            <stop stop-color="white"
                  stop-opacity="0.4" />
            <stop offset="1"
                  stop-color="white"
                  stop-opacity="0.1" />
        </linearGradient>
        <linearGradient id="paint9_linear_2210_82700"
                        x1="0"
                        y1="1.63296"
                        x2="46.3706"
                        y2="1.63296"
                        gradientUnits="userSpaceOnUse">
            <stop stop-color="white" />
            <stop offset="1"
                  stop-color="#D888FF" />
        </linearGradient>
        <linearGradient id="paint10_linear_2210_82700"
                        x1="0"
                        y1="1.63296"
                        x2="47.4274"
                        y2="1.63296"
                        gradientUnits="userSpaceOnUse">
            <stop stop-color="white" />
            <stop offset="1"
                  stop-color="#D888FF" />
        </linearGradient>
        <linearGradient id="paint11_linear_2210_82700"
                        x1="228.719"
                        y1="90.4684"
                        x2="365.281"
                        y2="183.797"
                        gradientUnits="userSpaceOnUse">
            <stop stop-color="white"
                  stop-opacity="0.4" />
            <stop offset="1"
                  stop-color="white"
                  stop-opacity="0.2" />
        </linearGradient>
        <linearGradient id="paint12_linear_2210_82700"
                        x1="201.185"
                        y1="62.2001"
                        x2="322.815"
                        y2="202.2"
                        gradientUnits="userSpaceOnUse">
            <stop stop-color="white"
                  stop-opacity="0.4" />
            <stop offset="1"
                  stop-color="white"
                  stop-opacity="0.1" />
        </linearGradient>
        <linearGradient id="paint13_linear_2210_82700"
                        x1="351.699"
                        y1="234.8"
                        x2="351.699"
                        y2="294"
                        gradientUnits="userSpaceOnUse">
            <stop stop-color="white" />
            <stop offset="1"
                  stop-color="white"
                  stop-opacity="0" />
        </linearGradient>
        <linearGradient id="paint14_linear_2210_82700"
                        x1="150.699"
                        y1="179.8"
                        x2="150.699"
                        y2="239"
                        gradientUnits="userSpaceOnUse">
            <stop stop-color="white" />
            <stop offset="1"
                  stop-color="white"
                  stop-opacity="0" />
        </linearGradient>
        <radialGradient id="paint15_radial_2210_82700"
                        cx="0"
                        cy="0"
                        r="1"
                        gradientUnits="userSpaceOnUse"
                        gradientTransform="translate(264 189.2) scale(37 4)">
            <stop stop-color="#4D06B0" />
            <stop offset="1"
                  stop-color="#B6A3C1"
                  stop-opacity="0" />
        </radialGradient>
    </defs>
</svg>