<svg width="1340" height="1080" viewBox="0 0 1340 1080" fill="none" xmlns="http://www.w3.org/2000/svg">
<g filter="url(#filter0_d_185_234)">
<g filter="url(#filter1_d_185_234)">
<path d="M1234.66 709L1246.95 693.64L1246.05 694.28C1243.19 694.109 1240.65 693.384 1238.43 692.104C1236.26 690.781 1234.55 689.053 1233.31 686.92C1232.08 684.744 1231.46 682.312 1231.46 679.624C1231.46 676.808 1232.14 674.291 1233.51 672.072C1234.87 669.811 1236.69 668.04 1238.95 666.76C1241.25 665.437 1243.79 664.776 1246.56 664.776C1249.29 664.776 1251.79 665.437 1254.05 666.76C1256.35 668.04 1258.19 669.811 1259.55 672.072C1260.92 674.291 1261.6 676.787 1261.6 679.56C1261.6 681.352 1261.28 683.059 1260.64 684.68C1260.05 686.259 1259.21 687.709 1258.15 689.032L1242.34 709H1234.66ZM1246.5 688.264C1248.08 688.264 1249.55 687.88 1250.91 687.112C1252.28 686.301 1253.37 685.256 1254.18 683.976C1255.03 682.653 1255.46 681.181 1255.46 679.56C1255.46 677.939 1255.03 676.467 1254.18 675.144C1253.37 673.779 1252.28 672.712 1250.91 671.944C1249.59 671.176 1248.12 670.792 1246.5 670.792C1244.83 670.792 1243.32 671.176 1241.95 671.944C1240.63 672.712 1239.59 673.757 1238.82 675.08C1238.05 676.403 1237.67 677.853 1237.67 679.432C1237.67 681.053 1238.05 682.525 1238.82 683.848C1239.63 685.171 1240.7 686.237 1242.02 687.048C1243.34 687.859 1244.83 688.264 1246.5 688.264ZM1269.3 709.448C1268.23 709.448 1267.27 709.043 1266.42 708.232C1265.56 707.421 1265.14 706.483 1265.14 705.416C1265.14 704.264 1265.54 703.283 1266.35 702.472C1267.21 701.661 1268.19 701.256 1269.3 701.256C1270.49 701.256 1271.49 701.661 1272.3 702.472C1273.11 703.24 1273.52 704.2 1273.52 705.352C1273.52 706.504 1273.09 707.485 1272.24 708.296C1271.39 709.064 1270.41 709.448 1269.3 709.448ZM1296.21 709.64C1293.36 709.64 1290.92 708.979 1288.92 707.656C1286.91 706.291 1285.29 704.499 1284.05 702.28C1282.86 700.061 1281.99 697.651 1281.43 695.048C1280.88 692.403 1280.6 689.8 1280.6 687.24C1280.6 685.277 1280.77 683.251 1281.11 681.16C1281.45 679.069 1281.99 677.064 1282.71 675.144C1283.44 673.181 1284.4 671.432 1285.59 669.896C1286.83 668.317 1288.32 667.08 1290.07 666.184C1291.82 665.245 1293.87 664.776 1296.21 664.776C1298.6 664.776 1300.67 665.245 1302.42 666.184C1304.17 667.08 1305.64 668.317 1306.84 669.896C1308.03 671.432 1308.99 673.181 1309.72 675.144C1310.49 677.064 1311.04 679.069 1311.38 681.16C1311.72 683.251 1311.89 685.277 1311.89 687.24C1311.89 689.8 1311.62 692.403 1311.06 695.048C1310.51 697.651 1309.61 700.061 1308.37 702.28C1307.14 704.499 1305.52 706.291 1303.51 707.656C1301.55 708.979 1299.12 709.64 1296.21 709.64ZM1296.09 703.688C1297.79 703.688 1299.24 703.176 1300.44 702.152C1301.68 701.128 1302.68 699.805 1303.45 698.184C1304.21 696.52 1304.77 694.728 1305.11 692.808C1305.49 690.888 1305.69 689.075 1305.69 687.368C1305.69 685.533 1305.52 683.656 1305.17 681.736C1304.83 679.773 1304.28 677.96 1303.51 676.296C1302.79 674.589 1301.8 673.224 1300.57 672.2C1299.33 671.176 1297.86 670.664 1296.15 670.664C1294.44 670.664 1292.99 671.176 1291.8 672.2C1290.6 673.181 1289.62 674.483 1288.85 676.104C1288.13 677.683 1287.6 679.411 1287.25 681.288C1286.96 683.123 1286.81 684.893 1286.81 686.6C1286.81 687.88 1286.87 689.288 1287 690.824C1287.13 692.36 1287.38 693.896 1287.77 695.432C1288.15 696.925 1288.68 698.312 1289.37 699.592C1290.05 700.829 1290.95 701.832 1292.05 702.6C1293.16 703.325 1294.51 703.688 1296.09 703.688Z" fill="#FCEDFF"/>
</g>
<path d="M54.7546 635.61C45.1054 634.231 35.2771 633.683 25.538 633.396C23.243 633.329 22.7655 633.177 23.0925 635.507C23.5923 639.068 24.5184 642.646 25.538 646.087C25.9606 647.513 26.5585 649.48 27.3141 650.875C28.226 652.558 30.9433 650.64 31.9991 650.18C40.2969 646.558 48.635 643.046 57.0713 639.78" stroke="white" stroke-width="3" stroke-linecap="round"/>
<path d="M64.9478 650.901C60.1279 654.288 52.5539 659.352 50.79 665.316C50.4308 666.53 50.7657 666.559 51.8711 666.654C56.0726 667.016 59.4492 668.687 62.837 671.133C63.5654 671.659 65.7198 674.017 66.4408 672.395C68.0155 668.852 69.0986 664.876 70.1219 661.146C70.8208 658.598 72.9532 653.745 70.0447 652.291" stroke="white" stroke-width="3" stroke-linecap="round"/>
<path d="M1281.44 484.416C1290.41 488.245 1299.76 491.319 1309.09 494.116C1311.29 494.775 1311.71 495.045 1312 492.71C1312.44 489.141 1312.47 485.446 1312.38 481.858C1312.34 480.371 1312.27 478.316 1311.9 476.773C1311.46 474.911 1308.33 476.06 1307.19 476.232C1298.24 477.583 1289.28 478.817 1280.29 479.788" stroke="white" stroke-width="3" stroke-linecap="round"/>
<path d="M1275.56 467.008C1281.09 464.984 1289.71 462.052 1292.96 456.748C1293.62 455.668 1293.31 455.554 1292.26 455.176C1288.3 453.739 1285.47 451.251 1282.83 448.011C1282.26 447.314 1280.79 444.479 1279.68 445.86C1277.24 448.875 1275.16 452.435 1273.21 455.773C1271.87 458.053 1268.56 462.189 1270.99 464.346" stroke="white" stroke-width="3" stroke-linecap="round"/>
</g>
<g filter="url(#filter2_dddi_185_234)">
<path d="M729.26 453.159C731.434 453.159 733.023 454.288 734.026 456.546C734.695 457.967 735.28 459.514 735.782 461.186C736.284 462.775 736.827 464.322 737.413 465.827L744.185 484.389C748.282 495.761 752.296 507.216 756.226 518.755C760.156 530.21 764.253 541.581 768.517 552.869C768.601 553.12 768.768 553.538 769.019 554.124C769.353 554.625 769.688 554.876 770.022 554.876C770.44 554.876 770.775 554.625 771.025 554.124C771.276 553.538 771.444 553.12 771.527 552.869C772.781 549.274 773.994 545.637 775.164 541.958C776.335 538.279 777.506 534.641 778.676 531.046C781.268 523.27 783.86 515.494 786.452 507.718C789.044 499.942 791.636 492.207 794.228 484.515L800.499 465.952C801.001 464.447 801.503 462.9 802.005 461.312C802.506 459.64 803.05 458.093 803.635 456.671C804.638 454.33 806.269 453.159 808.526 453.159H834.99C836.245 453.159 837.499 453.41 838.753 453.912C840.007 454.33 840.634 455.333 840.634 456.922C840.634 457.842 840.342 458.971 839.756 460.308C833.151 476.195 826.587 492.124 820.065 508.094C813.627 523.981 807.23 539.951 800.876 556.005L781.812 603.916C780.474 607.511 779.094 611.107 777.673 614.702C776.335 618.214 774.914 621.726 773.408 625.237C773.074 625.99 772.489 627.16 771.653 628.749C770.816 630.338 769.813 631.132 768.642 631.132C767.472 631.132 766.469 630.338 765.632 628.749C764.796 627.16 764.211 625.99 763.876 625.237C762.371 621.726 760.95 618.214 759.612 614.702C758.274 611.107 756.895 607.511 755.473 603.916L738.541 561.273C731.936 544.382 725.205 527.534 718.349 510.728C711.492 493.838 704.552 477.031 697.529 460.308C696.943 458.971 696.651 457.8 696.651 456.797C696.651 455.208 697.278 454.205 698.532 453.787C699.786 453.368 700.999 453.159 702.169 453.159H729.26ZM862.458 458.302C862.458 454.874 864.172 453.159 867.6 453.159H889.298C892.726 453.159 894.44 454.874 894.44 458.302C894.44 472.098 894.398 485.894 894.315 499.691C894.231 513.487 894.189 527.283 894.189 541.08C894.189 554.876 894.231 568.672 894.315 582.469C894.398 596.265 894.44 610.061 894.44 623.858C894.44 627.286 892.726 629 889.298 629H867.6C864.172 629 862.458 627.286 862.458 623.858C862.458 610.061 862.499 596.265 862.583 582.469C862.667 568.672 862.708 554.876 862.708 541.08C862.708 527.283 862.667 513.487 862.583 499.691C862.499 485.894 862.458 472.098 862.458 458.302ZM929.809 629C926.381 629 924.667 627.244 924.667 623.732C924.667 619.301 924.75 614.911 924.917 610.563C925.085 606.132 925.21 601.742 925.294 597.394C925.461 587.695 925.586 578.037 925.67 568.422C925.837 558.722 925.921 549.065 925.921 539.449C925.921 530.168 925.879 520.887 925.795 511.606C925.712 502.325 925.586 493.043 925.419 483.762C925.335 479.581 925.21 475.359 925.043 471.095C924.876 466.83 924.792 462.608 924.792 458.427C924.792 454.915 926.506 453.159 929.934 453.159H976.967C991.014 453.159 1004.23 455.166 1016.6 459.18C1029.06 463.193 1039.89 469.59 1049.08 478.369C1058.28 487.065 1065.05 498.52 1069.4 512.735C1072.5 522.935 1074.04 533.304 1074.04 543.839C1074.04 560.98 1070.16 575.947 1062.38 588.74C1054.69 601.449 1044.15 611.357 1030.77 618.465C1017.48 625.488 1002.43 629 985.621 629H929.809ZM956.9 598.773H980.103C998.749 598.773 1013.63 593.882 1024.75 584.099C1035.96 574.233 1041.56 559.726 1041.56 540.578C1041.56 529.708 1039.26 519.967 1034.66 511.355C1030.06 502.659 1023.62 495.803 1015.35 490.786C1007.07 485.769 997.369 483.261 986.248 483.261H957.025C957.109 492.124 957.151 501.029 957.151 509.975C957.234 518.922 957.276 527.869 957.276 536.815C957.276 557.384 957.151 578.037 956.9 598.773ZM1098.25 458.302C1098.25 454.874 1099.96 453.159 1103.39 453.159H1125.09C1128.52 453.159 1130.23 454.874 1130.23 458.302C1130.23 472.098 1130.19 485.894 1130.11 499.691C1130.02 513.487 1129.98 527.283 1129.98 541.08C1129.98 554.876 1130.02 568.672 1130.11 582.469C1130.19 596.265 1130.23 610.061 1130.23 623.858C1130.23 627.286 1128.52 629 1125.09 629H1103.39C1099.96 629 1098.25 627.286 1098.25 623.858C1098.25 610.061 1098.29 596.265 1098.37 582.469C1098.46 568.672 1098.5 554.876 1098.5 541.08C1098.5 527.283 1098.46 513.487 1098.37 499.691C1098.29 485.894 1098.25 472.098 1098.25 458.302ZM1154.81 629C1153.64 629 1152.39 628.833 1151.05 628.498C1149.71 628.08 1149.05 627.077 1149.05 625.488C1149.05 624.819 1149.17 624.15 1149.42 623.481C1149.67 622.813 1149.92 622.185 1150.17 621.6C1157.53 605.713 1164.81 589.827 1172 573.94C1179.27 558.053 1186.42 542.083 1193.44 526.029C1199.21 512.818 1204.94 499.607 1210.63 486.396C1216.31 473.101 1222.17 459.932 1228.19 446.888C1228.44 446.387 1228.85 446.136 1229.44 446.136C1230.03 446.136 1230.44 446.387 1230.69 446.888C1236.71 459.932 1242.57 473.101 1248.25 486.396C1253.94 499.607 1259.67 512.818 1265.44 526.029C1272.46 542.083 1279.57 558.053 1286.76 573.94C1294.03 589.827 1301.35 605.713 1308.71 621.6C1308.96 622.185 1309.21 622.813 1309.46 623.481C1309.71 624.15 1309.84 624.819 1309.84 625.488C1309.84 627.077 1309.17 628.08 1307.83 628.498C1306.49 628.833 1305.24 629 1304.07 629H1278.73C1276.64 629 1275.05 627.955 1273.96 625.864C1273.3 624.527 1272.67 623.105 1272.08 621.6C1271.5 620.095 1270.91 618.674 1270.33 617.336C1268.49 613.155 1266.69 608.891 1264.93 604.543C1263.26 600.195 1261.46 595.931 1259.54 591.75C1259.29 591.081 1258.83 590.747 1258.16 590.747H1196.08C1195.41 590.747 1194.95 591.081 1194.7 591.75C1192.69 595.931 1190.77 600.195 1188.93 604.543C1187.17 608.891 1185.33 613.197 1183.41 617.461C1182.83 618.799 1182.2 620.221 1181.53 621.726C1180.94 623.231 1180.28 624.652 1179.52 625.99C1178.44 627.997 1176.89 629 1174.88 629H1154.81ZM1206.49 564.533H1248.25C1244.91 556.172 1241.52 547.852 1238.09 539.575C1234.67 531.213 1231.24 522.852 1227.81 514.49C1224.3 522.852 1220.74 531.213 1217.15 539.575C1213.64 547.852 1210.08 556.172 1206.49 564.533Z" fill="url(#paint0_linear_185_234)"/>
</g>
<g filter="url(#filter3_dddi_185_234)">
<path d="M84.229 629C83.0584 629 81.8042 628.833 80.4664 628.498C79.1285 628.08 78.4596 627.077 78.4596 625.488C78.4596 624.819 78.5851 624.15 78.8359 623.481C79.0867 622.813 79.3376 622.185 79.5884 621.6C86.9465 605.713 94.2209 589.827 101.412 573.94C108.686 558.053 115.835 542.083 122.859 526.029C128.628 512.818 134.356 499.607 140.041 486.396C145.727 473.101 151.58 459.932 157.6 446.888C157.851 446.387 158.269 446.136 158.855 446.136C159.44 446.136 159.858 446.387 160.109 446.888C166.129 459.932 171.982 473.101 177.668 486.396C183.354 499.607 189.081 512.818 194.851 526.029C201.874 542.083 208.981 558.053 216.172 573.94C223.447 589.827 230.763 605.713 238.121 621.6C238.372 622.185 238.623 622.813 238.873 623.481C239.124 624.15 239.25 624.819 239.25 625.488C239.25 627.077 238.581 628.08 237.243 628.498C235.905 628.833 234.651 629 233.48 629H208.145C206.055 629 204.466 627.955 203.379 625.864C202.71 624.527 202.083 623.105 201.498 621.6C200.913 620.095 200.327 618.674 199.742 617.336C197.902 613.155 196.105 608.891 194.349 604.543C192.677 600.195 190.879 595.931 188.956 591.75C188.705 591.081 188.245 590.747 187.576 590.747H125.493C124.824 590.747 124.364 591.081 124.113 591.75C122.106 595.931 120.183 600.195 118.344 604.543C116.588 608.891 114.748 613.197 112.825 617.461C112.24 618.799 111.613 620.221 110.944 621.726C110.358 623.231 109.69 624.652 108.937 625.99C107.85 627.997 106.303 629 104.296 629H84.229ZM135.903 564.533H177.668C174.323 556.172 170.937 547.852 167.509 539.575C164.081 531.213 160.652 522.852 157.224 514.49C153.712 522.852 150.159 531.213 146.563 539.575C143.052 547.852 139.498 556.172 135.903 564.533ZM310.991 453.159C323.366 453.159 334.57 455.208 344.604 459.305C354.637 463.319 362.581 469.59 368.434 478.118C374.37 486.563 377.338 497.517 377.338 510.979C377.338 521.765 375.248 531.506 371.067 540.202C366.887 548.898 360.198 556.172 351 562.025C350.415 562.276 350.122 562.694 350.122 563.279C350.122 563.614 351.209 565.579 353.383 569.174C355.641 572.769 358.442 577.201 361.786 582.469C365.214 587.736 368.684 593.088 372.196 598.523C375.792 603.958 378.927 608.765 381.603 612.946C384.278 617.127 385.993 619.802 386.745 620.973C387.163 621.642 387.581 622.394 387.999 623.231C388.417 623.983 388.626 624.819 388.626 625.739C388.626 627.244 387.832 628.164 386.243 628.498C384.738 628.833 383.484 629 382.481 629H357.522C355.85 629 354.428 628.247 353.258 626.742C350.666 623.398 348.241 619.886 345.983 616.207C343.726 612.444 341.426 608.807 339.085 605.295C335.406 599.61 331.685 593.966 327.922 588.364C324.16 582.678 320.481 576.95 316.885 571.181C316.551 570.596 316.091 570.303 315.506 570.303H293.055C292.052 570.303 291.55 570.805 291.55 571.808C291.55 577.577 291.509 583.388 291.425 589.241C291.425 595.011 291.383 600.78 291.299 606.55C291.299 608.974 291.341 611.943 291.425 615.455C291.592 618.883 291.509 621.726 291.174 623.983C290.923 625.655 290.463 626.91 289.794 627.746C289.209 628.582 287.955 629 286.032 629H264.334C260.906 629 259.192 627.244 259.192 623.732C259.192 619.217 259.275 614.702 259.442 610.187C259.61 605.588 259.735 600.989 259.819 596.39C260.07 577.326 260.195 558.221 260.195 539.073C260.195 520.929 260.07 502.701 259.819 484.389C259.735 480.041 259.61 475.735 259.442 471.471C259.359 467.123 259.317 462.775 259.317 458.427C259.317 454.915 261.031 453.159 264.459 453.159H310.991ZM291.55 540.202H316.885C325.163 540.202 331.894 537.61 337.078 532.426C342.262 527.242 344.854 520.469 344.854 512.107C344.854 503.495 342.43 496.555 337.58 491.287C332.73 486.02 325.958 483.386 317.262 483.386H291.425C291.509 492.834 291.55 502.325 291.55 511.857C291.55 521.305 291.55 530.753 291.55 540.202ZM439.171 453.285C442.348 453.285 444.063 454.999 444.313 458.427C444.564 462.106 444.648 465.869 444.564 469.715C444.481 473.561 444.481 477.366 444.564 481.128C444.648 489.072 444.69 497.015 444.69 504.958C444.69 512.902 444.69 520.845 444.69 528.788C444.69 529.792 445.108 530.293 445.944 530.293H446.571C474.833 522.517 494.147 504.833 504.516 477.24C505.77 474.063 506.731 470.886 507.4 467.708C508.153 464.447 508.947 461.145 509.783 457.8C510.201 456.295 510.745 455.166 511.414 454.414C512.083 453.661 513.253 453.285 514.926 453.285H535.745C537.167 453.285 538.379 453.577 539.383 454.163C540.386 454.748 540.888 455.877 540.888 457.549C540.888 458.302 540.846 458.845 540.762 459.18C537.836 473.478 532.819 486.898 525.712 499.44C518.605 511.982 509.323 522.852 497.868 532.049C495.694 533.889 493.437 535.603 491.096 537.192C488.838 538.697 486.497 540.202 484.072 541.707C483.487 541.958 483.194 542.376 483.194 542.961C483.194 543.295 484.406 545.219 486.831 548.73C489.34 552.159 492.559 556.59 496.489 562.025C500.419 567.46 504.641 573.271 509.156 579.459C513.755 585.562 518.187 591.499 522.451 597.268C526.715 603.038 530.394 608.013 533.488 612.194C536.582 616.291 538.588 619.008 539.508 620.346C540.01 621.015 540.511 621.809 541.013 622.729C541.598 623.649 541.891 624.568 541.891 625.488C541.891 626.993 541.055 627.913 539.383 628.247C537.71 628.498 536.373 628.624 535.369 628.624H511.038C509.449 628.624 508.111 627.955 507.024 626.617C504.599 623.691 502.216 620.68 499.875 617.587C497.617 614.409 495.318 611.274 492.977 608.18C488.629 602.411 484.281 596.641 479.933 590.872C475.669 585.103 471.363 579.291 467.015 573.438C464.673 570.345 462.374 567.251 460.116 564.157C457.943 560.98 455.643 557.886 453.218 554.876C452.8 554.458 452.466 554.249 452.215 554.249C451.379 554.249 450.375 554.374 449.205 554.625C448.034 554.792 446.989 554.96 446.069 555.127C445.15 555.294 444.69 555.838 444.69 556.757C444.69 564.366 444.648 571.975 444.564 579.584C444.564 587.109 444.522 594.635 444.439 602.16C444.355 605.755 444.355 609.392 444.439 613.072C444.522 616.751 444.439 620.346 444.188 623.858C443.937 627.286 442.223 629 439.046 629H417.222C413.794 629 412.08 627.244 412.08 623.732C412.08 619.217 412.164 614.702 412.331 610.187C412.498 605.588 412.624 601.031 412.707 596.516C412.958 577.285 413.084 558.179 413.084 539.198C413.084 520.887 412.958 502.659 412.707 484.515C412.624 480.167 412.498 475.861 412.331 471.596C412.247 467.248 412.206 462.9 412.206 458.553C412.206 455.041 413.92 453.285 417.348 453.285H439.171ZM559.576 629C558.405 629 557.151 628.833 555.813 628.498C554.475 628.08 553.806 627.077 553.806 625.488C553.806 624.819 553.932 624.15 554.182 623.481C554.433 622.813 554.684 622.185 554.935 621.6C562.293 605.713 569.567 589.827 576.758 573.94C584.033 558.053 591.182 542.083 598.205 526.029C603.975 512.818 609.702 499.607 615.388 486.396C621.074 473.101 626.927 459.932 632.947 446.888C633.198 446.387 633.616 446.136 634.201 446.136C634.786 446.136 635.205 446.387 635.455 446.888C641.476 459.932 647.329 473.101 653.014 486.396C658.7 499.607 664.428 512.818 670.197 526.029C677.221 542.083 684.328 558.053 691.519 573.94C698.793 589.827 706.109 605.713 713.467 621.6C713.718 622.185 713.969 622.813 714.22 623.481C714.471 624.15 714.596 624.819 714.596 625.488C714.596 627.077 713.927 628.08 712.589 628.498C711.252 628.833 709.997 629 708.827 629H683.492C681.401 629 679.813 627.955 678.726 625.864C678.057 624.527 677.43 623.105 676.844 621.6C676.259 620.095 675.674 618.674 675.088 617.336C673.249 613.155 671.451 608.891 669.695 604.543C668.023 600.195 666.225 595.931 664.302 591.75C664.051 591.081 663.592 590.747 662.923 590.747H600.839C600.17 590.747 599.71 591.081 599.459 591.75C597.453 595.931 595.53 600.195 593.69 604.543C591.934 608.891 590.095 613.197 588.172 617.461C587.586 618.799 586.959 620.221 586.29 621.726C585.705 623.231 585.036 624.652 584.283 625.99C583.197 627.997 581.65 629 579.643 629H559.576ZM611.249 564.533H653.014C649.67 556.172 646.283 547.852 642.855 539.575C639.427 531.213 635.999 522.852 632.571 514.49C629.059 522.852 625.505 531.213 621.91 539.575C618.398 547.852 614.844 556.172 611.249 564.533Z" fill="url(#paint1_linear_185_234)"/>
</g>
<defs>
<filter id="filter0_d_185_234" x="17.5002" y="443.986" width="1300.42" height="273.654" filterUnits="userSpaceOnUse" color-interpolation-filters="sRGB">
<feFlood flood-opacity="0" result="BackgroundImageFix"/>
<feColorMatrix in="SourceAlpha" type="matrix" values="0 0 0 0 0 0 0 0 0 0 0 0 0 0 0 0 0 0 127 0" result="hardAlpha"/>
<feOffset dy="4"/>
<feGaussianBlur stdDeviation="2"/>
<feComposite in2="hardAlpha" operator="out"/>
<feColorMatrix type="matrix" values="0 0 0 0 0 0 0 0 0 0 0 0 0 0 0 0 0 0 0.25 0"/>
<feBlend mode="normal" in2="BackgroundImageFix" result="effect1_dropShadow_185_234"/>
<feBlend mode="normal" in="SourceGraphic" in2="effect1_dropShadow_185_234" result="shape"/>
</filter>
<filter id="filter1_d_185_234" x="1211.46" y="644.776" width="120.436" height="84.864" filterUnits="userSpaceOnUse" color-interpolation-filters="sRGB">
<feFlood flood-opacity="0" result="BackgroundImageFix"/>
<feColorMatrix in="SourceAlpha" type="matrix" values="0 0 0 0 0 0 0 0 0 0 0 0 0 0 0 0 0 0 127 0" result="hardAlpha"/>
<feOffset/>
<feGaussianBlur stdDeviation="10"/>
<feComposite in2="hardAlpha" operator="out"/>
<feColorMatrix type="matrix" values="0 0 0 0 0.936516 0 0 0 0 0.826823 0 0 0 0 0.826823 0 0 0 0.51 0"/>
<feBlend mode="normal" in2="BackgroundImageFix" result="effect1_dropShadow_185_234"/>
<feBlend mode="normal" in="SourceGraphic" in2="effect1_dropShadow_185_234" result="shape"/>
</filter>
<filter id="filter2_dddi_185_234" x="669.651" y="427.436" width="658.885" height="227.696" filterUnits="userSpaceOnUse" color-interpolation-filters="sRGB">
<feFlood flood-opacity="0" result="BackgroundImageFix"/>
<feColorMatrix in="SourceAlpha" type="matrix" values="0 0 0 0 0 0 0 0 0 0 0 0 0 0 0 0 0 0 127 0" result="hardAlpha"/>
<feOffset dx="-12" dy="9"/>
<feGaussianBlur stdDeviation="7.5"/>
<feComposite in2="hardAlpha" operator="out"/>
<feColorMatrix type="matrix" values="0 0 0 0 0.212183 0 0 0 0 0.10096 0 0 0 0 0.614294 0 0 0 1 0"/>
<feBlend mode="normal" in2="BackgroundImageFix" result="effect1_dropShadow_185_234"/>
<feColorMatrix in="SourceAlpha" type="matrix" values="0 0 0 0 0 0 0 0 0 0 0 0 0 0 0 0 0 0 127 0" result="hardAlpha"/>
<feOffset dy="4"/>
<feGaussianBlur stdDeviation="2"/>
<feComposite in2="hardAlpha" operator="out"/>
<feColorMatrix type="matrix" values="0 0 0 0 0 0 0 0 0 0 0 0 0 0 0 0 0 0 0.25 0"/>
<feBlend mode="normal" in2="effect1_dropShadow_185_234" result="effect2_dropShadow_185_234"/>
<feColorMatrix in="SourceAlpha" type="matrix" values="0 0 0 0 0 0 0 0 0 0 0 0 0 0 0 0 0 0 127 0" result="hardAlpha"/>
<feOffset/>
<feGaussianBlur stdDeviation="9.35"/>
<feComposite in2="hardAlpha" operator="out"/>
<feColorMatrix type="matrix" values="0 0 0 0 0.930316 0 0 0 0 0.619907 0 0 0 0 1 0 0 0 0.04 0"/>
<feBlend mode="normal" in2="effect2_dropShadow_185_234" result="effect3_dropShadow_185_234"/>
<feBlend mode="normal" in="SourceGraphic" in2="effect3_dropShadow_185_234" result="shape"/>
<feColorMatrix in="SourceAlpha" type="matrix" values="0 0 0 0 0 0 0 0 0 0 0 0 0 0 0 0 0 0 127 0" result="hardAlpha"/>
<feOffset dy="4"/>
<feGaussianBlur stdDeviation="2"/>
<feComposite in2="hardAlpha" operator="arithmetic" k2="-1" k3="1"/>
<feColorMatrix type="matrix" values="0 0 0 0 0 0 0 0 0 0 0 0 0 0 0 0 0 0 0.25 0"/>
<feBlend mode="normal" in2="shape" result="effect4_innerShadow_185_234"/>
</filter>
<filter id="filter3_dddi_185_234" x="51.4597" y="427.436" width="681.837" height="225.564" filterUnits="userSpaceOnUse" color-interpolation-filters="sRGB">
<feFlood flood-opacity="0" result="BackgroundImageFix"/>
<feColorMatrix in="SourceAlpha" type="matrix" values="0 0 0 0 0 0 0 0 0 0 0 0 0 0 0 0 0 0 127 0" result="hardAlpha"/>
<feOffset dx="-12" dy="9"/>
<feGaussianBlur stdDeviation="7.5"/>
<feComposite in2="hardAlpha" operator="out"/>
<feColorMatrix type="matrix" values="0 0 0 0 0.212183 0 0 0 0 0.10096 0 0 0 0 0.614294 0 0 0 1 0"/>
<feBlend mode="normal" in2="BackgroundImageFix" result="effect1_dropShadow_185_234"/>
<feColorMatrix in="SourceAlpha" type="matrix" values="0 0 0 0 0 0 0 0 0 0 0 0 0 0 0 0 0 0 127 0" result="hardAlpha"/>
<feOffset dy="4"/>
<feGaussianBlur stdDeviation="2"/>
<feComposite in2="hardAlpha" operator="out"/>
<feColorMatrix type="matrix" values="0 0 0 0 0 0 0 0 0 0 0 0 0 0 0 0 0 0 0.25 0"/>
<feBlend mode="normal" in2="effect1_dropShadow_185_234" result="effect2_dropShadow_185_234"/>
<feColorMatrix in="SourceAlpha" type="matrix" values="0 0 0 0 0 0 0 0 0 0 0 0 0 0 0 0 0 0 127 0" result="hardAlpha"/>
<feOffset/>
<feGaussianBlur stdDeviation="9.35"/>
<feComposite in2="hardAlpha" operator="out"/>
<feColorMatrix type="matrix" values="0 0 0 0 0.930316 0 0 0 0 0.619907 0 0 0 0 1 0 0 0 0.04 0"/>
<feBlend mode="normal" in2="effect2_dropShadow_185_234" result="effect3_dropShadow_185_234"/>
<feBlend mode="normal" in="SourceGraphic" in2="effect3_dropShadow_185_234" result="shape"/>
<feColorMatrix in="SourceAlpha" type="matrix" values="0 0 0 0 0 0 0 0 0 0 0 0 0 0 0 0 0 0 127 0" result="hardAlpha"/>
<feOffset dy="4"/>
<feGaussianBlur stdDeviation="2"/>
<feComposite in2="hardAlpha" operator="arithmetic" k2="-1" k3="1"/>
<feColorMatrix type="matrix" values="0 0 0 0 0 0 0 0 0 0 0 0 0 0 0 0 0 0 0.25 0"/>
<feBlend mode="normal" in2="shape" result="effect4_innerShadow_185_234"/>
</filter>
<linearGradient id="paint0_linear_185_234" x1="689" y1="540.5" x2="1315" y2="540.5" gradientUnits="userSpaceOnUse">
<stop stop-color="#9274FF"/>
<stop offset="1" stop-color="#C159D8"/>
</linearGradient>
<linearGradient id="paint1_linear_185_234" x1="74.1953" y1="540.5" x2="719.195" y2="540.5" gradientUnits="userSpaceOnUse">
<stop stop-color="#48E6FF"/>
<stop offset="1" stop-color="#9274FF"/>
</linearGradient>
</defs>
</svg>
