<svg width="162"
     height="56"
     viewBox="0 0 162 56"
     fill="none"
     xmlns="http://www.w3.org/2000/svg">
    <g clip-path="url(#clip0_185_281)">
        <g filter="url(#filter0_d_185_281)">
            <g filter="url(#filter1_d_185_281)">
                <path d="M150.435 48.1877L151.922 46.3293L151.814 46.4067C151.468 46.3861 151.161 46.2983 150.892 46.1434C150.629 45.9834 150.423 45.7744 150.273 45.5162C150.123 45.253 150.048 44.9587 150.048 44.6335C150.048 44.2928 150.131 43.9883 150.296 43.7198C150.461 43.4462 150.681 43.232 150.954 43.0771C151.233 42.9171 151.54 42.8371 151.876 42.8371C152.206 42.8371 152.508 42.9171 152.782 43.0771C153.06 43.232 153.282 43.4462 153.448 43.7198C153.613 43.9883 153.695 44.2902 153.695 44.6258C153.695 44.8426 153.657 45.0491 153.579 45.2452C153.507 45.4362 153.406 45.6117 153.277 45.7718L151.365 48.1877H150.435ZM151.868 45.6789C152.059 45.6789 152.237 45.6324 152.402 45.5395C152.567 45.4414 152.699 45.3149 152.797 45.1601C152.9 45 152.952 44.8219 152.952 44.6258C152.952 44.4296 152.9 44.2515 152.797 44.0915C152.699 43.9263 152.567 43.7973 152.402 43.7043C152.242 43.6114 152.064 43.565 151.868 43.565C151.667 43.565 151.483 43.6114 151.318 43.7043C151.158 43.7973 151.032 43.9237 150.939 44.0838C150.846 44.2438 150.799 44.4193 150.799 44.6103C150.799 44.8065 150.846 44.9845 150.939 45.1446C151.037 45.3046 151.166 45.4337 151.326 45.5317C151.486 45.6298 151.667 45.6789 151.868 45.6789ZM154.626 48.2419C154.497 48.2419 154.381 48.1928 154.278 48.0947C154.174 47.9967 154.123 47.8831 154.123 47.754C154.123 47.6147 154.172 47.4959 154.27 47.3978C154.373 47.2998 154.492 47.2507 154.626 47.2507C154.771 47.2507 154.892 47.2998 154.99 47.3978C155.088 47.4908 155.137 47.6069 155.137 47.7463C155.137 47.8857 155.086 48.0044 154.982 48.1025C154.879 48.1954 154.76 48.2419 154.626 48.2419ZM157.883 48.2651C157.537 48.2651 157.243 48.1851 157 48.025C156.758 47.8599 156.561 47.643 156.412 47.3746C156.267 47.1062 156.161 46.8145 156.094 46.4996C156.027 46.1796 155.994 45.8647 155.994 45.555C155.994 45.3175 156.014 45.0723 156.056 44.8194C156.097 44.5664 156.161 44.3238 156.249 44.0915C156.337 43.854 156.453 43.6424 156.598 43.4566C156.747 43.2656 156.928 43.1158 157.14 43.0074C157.351 42.8939 157.599 42.8371 157.883 42.8371C158.172 42.8371 158.422 42.8939 158.634 43.0074C158.846 43.1158 159.024 43.2656 159.168 43.4566C159.313 43.6424 159.429 43.854 159.517 44.0915C159.61 44.3238 159.677 44.5664 159.718 44.8194C159.759 45.0723 159.78 45.3175 159.78 45.555C159.78 45.8647 159.746 46.1796 159.679 46.4996C159.612 46.8145 159.504 47.1062 159.354 47.3746C159.204 47.643 159.008 47.8599 158.766 48.025C158.528 48.1851 158.234 48.2651 157.883 48.2651ZM157.867 47.545C158.074 47.545 158.249 47.483 158.394 47.3591C158.544 47.2352 158.665 47.0752 158.758 46.879C158.851 46.6777 158.918 46.4609 158.959 46.2286C159.006 45.9963 159.029 45.7769 159.029 45.5704C159.029 45.3485 159.008 45.1213 158.967 44.889C158.926 44.6516 158.859 44.4322 158.766 44.2309C158.678 44.0244 158.559 43.8592 158.409 43.7353C158.26 43.6114 158.082 43.5495 157.875 43.5495C157.669 43.5495 157.493 43.6114 157.349 43.7353C157.204 43.854 157.085 44.0115 156.992 44.2076C156.905 44.3986 156.84 44.6077 156.799 44.8348C156.763 45.0568 156.745 45.271 156.745 45.4775C156.745 45.6324 156.752 45.8027 156.768 45.9886C156.783 46.1744 156.814 46.3603 156.861 46.5461C156.907 46.7268 156.972 46.8945 157.054 47.0494C157.137 47.1991 157.245 47.3204 157.38 47.4133C157.514 47.5011 157.676 47.545 157.867 47.545Z"
                      fill="#FCEDFF" />
            </g>
            <path d="M7.38403 39.5676C6.21659 39.4008 5.02749 39.3344 3.84918 39.2998C3.57151 39.2916 3.51374 39.2733 3.55331 39.5552C3.61378 39.986 3.72582 40.4189 3.84918 40.8352C3.90031 41.0078 3.97265 41.2457 4.06407 41.4145C4.17439 41.6181 4.50316 41.3861 4.63089 41.3304C5.63483 40.8922 6.64363 40.4673 7.66432 40.0722"
                  stroke="white"
                  stroke-width="0.362963"
                  stroke-linecap="round" />
            <path d="M8.61729 41.4176C8.03413 41.8274 7.11778 42.4401 6.90436 43.1617C6.8609 43.3086 6.90142 43.3121 7.03517 43.3236C7.5435 43.3673 7.95202 43.5695 8.36191 43.8655C8.45003 43.9292 8.71069 44.2144 8.79792 44.0181C8.98843 43.5895 9.11947 43.1084 9.24328 42.6571C9.32785 42.3489 9.58584 41.7617 9.23394 41.5858"
                  stroke="white"
                  stroke-width="0.362963"
                  stroke-linecap="round" />
            <path d="M155.798 21.275C156.883 21.7382 158.014 22.1102 159.143 22.4486C159.409 22.5283 159.461 22.561 159.495 22.2785C159.548 21.8467 159.552 21.3996 159.541 20.9655C159.536 20.7856 159.528 20.537 159.483 20.3504C159.429 20.1251 159.052 20.2641 158.914 20.2849C157.831 20.4483 156.746 20.5976 155.658 20.7151"
                  stroke="white"
                  stroke-width="0.362963"
                  stroke-linecap="round" />
            <path d="M155.086 19.1689C155.755 18.924 156.799 18.5693 157.192 17.9276C157.272 17.7969 157.234 17.783 157.107 17.7373C156.628 17.5635 156.285 17.2625 155.966 16.8705C155.897 16.7862 155.719 16.4432 155.584 16.6102C155.289 16.9749 155.038 17.4057 154.802 17.8096C154.641 18.0854 154.239 18.5858 154.534 18.8468"
                  stroke="white"
                  stroke-width="0.362963"
                  stroke-linecap="round" />
        </g>
        <g filter="url(#filter2_dddi_185_281)">
            <path d="M88.9909 17.1106C89.2539 17.1106 89.4461 17.2472 89.5675 17.5204C89.6485 17.6923 89.7193 17.8795 89.78 18.0818C89.8407 18.274 89.9064 18.4612 89.9772 18.6433L90.7966 20.8891C91.2923 22.2649 91.7779 23.6508 92.2534 25.0469C92.7289 26.4328 93.2246 27.8086 93.7405 29.1743C93.7506 29.2047 93.7708 29.2552 93.8012 29.3261C93.8417 29.3868 93.8821 29.4171 93.9226 29.4171C93.9732 29.4171 94.0136 29.3868 94.044 29.3261C94.0743 29.2552 94.0946 29.2047 94.1047 29.1743C94.2564 28.7393 94.4031 28.2993 94.5447 27.8541C94.6864 27.409 94.828 26.969 94.9696 26.534C95.2832 25.5931 95.5968 24.6523 95.9104 23.7115C96.224 22.7707 96.5376 21.8349 96.8512 20.9042L97.61 18.6584C97.6707 18.4763 97.7314 18.2892 97.7921 18.097C97.8528 17.8947 97.9185 17.7075 97.9893 17.5355C98.1107 17.2523 98.308 17.1106 98.5811 17.1106H101.783C101.935 17.1106 102.086 17.141 102.238 17.2017C102.39 17.2523 102.466 17.3737 102.466 17.5659C102.466 17.6772 102.43 17.8137 102.36 17.9756C101.56 19.8977 100.766 21.8248 99.9772 23.757C99.1982 25.6791 98.4243 27.6113 97.6555 29.5537L95.349 35.3503C95.1871 35.7853 95.0202 36.2203 94.8482 36.6553C94.6864 37.0802 94.5144 37.5051 94.3323 37.93C94.2918 38.021 94.221 38.1626 94.1198 38.3548C94.0187 38.547 93.8973 38.6432 93.7557 38.6432C93.614 38.6432 93.4926 38.547 93.3915 38.3548C93.2903 38.1626 93.2195 38.021 93.179 37.93C92.9969 37.5051 92.825 37.0802 92.6631 36.6553C92.5012 36.2203 92.3343 35.7853 92.1623 35.3503L90.1138 30.191C89.3146 28.1475 88.5003 26.1091 87.6707 24.0757C86.8412 22.0322 86.0015 19.9988 85.1518 17.9756C85.081 17.8137 85.0455 17.6721 85.0455 17.5507C85.0455 17.3585 85.1214 17.2371 85.2732 17.1865C85.4249 17.1359 85.5716 17.1106 85.7132 17.1106H88.9909ZM105.106 17.7328C105.106 17.318 105.314 17.1106 105.728 17.1106H108.353C108.768 17.1106 108.976 17.318 108.976 17.7328C108.976 19.402 108.971 21.0712 108.96 22.7404C108.95 24.4095 108.945 26.0787 108.945 27.7479C108.945 29.4171 108.95 31.0863 108.96 32.7555C108.971 34.4247 108.976 36.0938 108.976 37.763C108.976 38.1778 108.768 38.3852 108.353 38.3852H105.728C105.314 38.3852 105.106 38.1778 105.106 37.763C105.106 36.0938 105.111 34.4247 105.121 32.7555C105.131 31.0863 105.136 29.4171 105.136 27.7479C105.136 26.0787 105.131 24.4095 105.121 22.7404C105.111 21.0712 105.106 19.402 105.106 17.7328ZM113.255 38.3852C112.84 38.3852 112.633 38.1727 112.633 37.7479C112.633 37.2117 112.643 36.6806 112.663 36.1545C112.683 35.6184 112.698 35.0873 112.709 34.5612C112.729 33.3877 112.744 32.2193 112.754 31.0559C112.774 29.8825 112.784 28.714 112.784 27.5506C112.784 26.4277 112.779 25.3048 112.769 24.1819C112.759 23.059 112.744 21.9361 112.724 20.8132C112.714 20.3074 112.698 19.7965 112.678 19.2806C112.658 18.7647 112.648 18.2538 112.648 17.748C112.648 17.3231 112.855 17.1106 113.27 17.1106H118.96C120.66 17.1106 122.258 17.3534 123.755 17.839C125.263 18.3246 126.573 19.0985 127.686 20.1607C128.798 21.2128 129.618 22.5987 130.144 24.3185C130.518 25.5527 130.705 26.8071 130.705 28.0818C130.705 30.1556 130.235 31.9664 129.294 33.5142C128.363 35.0519 127.089 36.2506 125.47 37.1105C123.862 37.9603 122.041 38.3852 120.007 38.3852H113.255ZM116.532 34.7281H119.34C121.596 34.7281 123.396 34.1363 124.742 32.9527C126.097 31.759 126.775 30.0038 126.775 27.6872C126.775 26.3721 126.497 25.1936 125.941 24.1516C125.384 23.0995 124.605 22.2699 123.604 21.663C122.602 21.056 121.429 20.7525 120.083 20.7525H116.548C116.558 21.8248 116.563 22.9022 116.563 23.9847C116.573 25.0671 116.578 26.1495 116.578 27.232C116.578 29.7206 116.563 32.2193 116.532 34.7281ZM133.634 17.7328C133.634 17.318 133.841 17.1106 134.256 17.1106H136.881C137.296 17.1106 137.504 17.318 137.504 17.7328C137.504 19.402 137.498 21.0712 137.488 22.7404C137.478 24.4095 137.473 26.0787 137.473 27.7479C137.473 29.4171 137.478 31.0863 137.488 32.7555C137.498 34.4247 137.504 36.0938 137.504 37.763C137.504 38.1778 137.296 38.3852 136.881 38.3852H134.256C133.841 38.3852 133.634 38.1778 133.634 37.763C133.634 36.0938 133.639 34.4247 133.649 32.7555C133.659 31.0863 133.664 29.4171 133.664 27.7479C133.664 26.0787 133.659 24.4095 133.649 22.7404C133.639 21.0712 133.634 19.402 133.634 17.7328ZM140.478 38.3852C140.336 38.3852 140.184 38.365 140.022 38.3245C139.861 38.2739 139.78 38.1525 139.78 37.9603C139.78 37.8794 139.795 37.7984 139.825 37.7175C139.856 37.6366 139.886 37.5607 139.916 37.4899C140.806 35.5678 141.687 33.6457 142.557 31.7236C143.437 29.8015 144.302 27.8693 145.151 25.927C145.849 24.3286 146.542 22.7302 147.23 21.1319C147.918 19.5234 148.626 17.9301 149.355 16.3519C149.385 16.2912 149.436 16.2609 149.506 16.2609C149.577 16.2609 149.628 16.2912 149.658 16.3519C150.387 17.9301 151.095 19.5234 151.783 21.1319C152.471 22.7302 153.164 24.3286 153.862 25.927C154.711 27.8693 155.571 29.8015 156.441 31.7236C157.321 33.6457 158.206 35.5678 159.097 37.4899C159.127 37.5607 159.157 37.6366 159.188 37.7175C159.218 37.7984 159.233 37.8794 159.233 37.9603C159.233 38.1525 159.152 38.2739 158.991 38.3245C158.829 38.365 158.677 38.3852 158.535 38.3852H155.47C155.217 38.3852 155.025 38.2587 154.893 38.0058C154.812 37.844 154.737 37.672 154.666 37.4899C154.595 37.3078 154.524 37.1358 154.453 36.974C154.231 36.4681 154.013 35.9522 153.801 35.4262C153.599 34.9001 153.381 34.3842 153.148 33.8784C153.118 33.7975 153.062 33.757 152.981 33.757H145.47C145.389 33.757 145.334 33.7975 145.303 33.8784C145.06 34.3842 144.828 34.9001 144.605 35.4262C144.393 35.9522 144.17 36.4732 143.937 36.9891C143.867 37.151 143.791 37.323 143.71 37.5051C143.639 37.6872 143.558 37.8591 143.467 38.021C143.336 38.2638 143.148 38.3852 142.906 38.3852H140.478ZM146.73 30.5855H151.783C151.378 29.5739 150.968 28.5673 150.554 27.5658C150.139 26.5542 149.724 25.5426 149.309 24.5309C148.884 25.5426 148.454 26.5542 148.019 27.5658C147.595 28.5673 147.165 29.5739 146.73 30.5855Z"
                  fill="url(#paint0_linear_185_281)" />
        </g>
        <g filter="url(#filter3_dddi_185_281)">
            <path d="M10.9501 38.3852C10.8084 38.3852 10.6567 38.365 10.4948 38.3245C10.333 38.2739 10.252 38.1525 10.252 37.9603C10.252 37.8794 10.2672 37.7984 10.2976 37.7175C10.3279 37.6366 10.3583 37.5607 10.3886 37.4899C11.2788 35.5678 12.159 33.6457 13.029 31.7236C13.9091 29.8015 14.774 27.8693 15.6238 25.927C16.3218 24.3286 17.0148 22.7302 17.7027 21.1319C18.3906 19.5234 19.0987 17.9301 19.8271 16.3519C19.8575 16.2912 19.908 16.2609 19.9789 16.2609C20.0497 16.2609 20.1002 16.2912 20.1306 16.3519C20.859 17.9301 21.5671 19.5234 22.255 21.1319C22.9429 22.7302 23.6359 24.3286 24.3339 25.927C25.1837 27.8693 26.0436 29.8015 26.9136 31.7236C27.7937 33.6457 28.6789 35.5678 29.5691 37.4899C29.5994 37.5607 29.6298 37.6366 29.6601 37.7175C29.6905 37.7984 29.7057 37.8794 29.7057 37.9603C29.7057 38.1525 29.6247 38.2739 29.4629 38.3245C29.301 38.365 29.1493 38.3852 29.0076 38.3852H25.9424C25.6895 38.3852 25.4973 38.2587 25.3658 38.0058C25.2848 37.844 25.209 37.672 25.1382 37.4899C25.0673 37.3078 24.9965 37.1358 24.9257 36.974C24.7032 36.4681 24.4857 35.9522 24.2732 35.4262C24.0709 34.9001 23.8534 34.3842 23.6207 33.8784C23.5904 33.7975 23.5347 33.757 23.4538 33.757H15.9425C15.8615 33.757 15.8059 33.7975 15.7755 33.8784C15.5327 34.3842 15.3001 34.9001 15.0775 35.4262C14.8651 35.9522 14.6425 36.4732 14.4098 36.9891C14.339 37.151 14.2632 37.323 14.1822 37.5051C14.1114 37.6872 14.0305 37.8591 13.9394 38.021C13.8079 38.2638 13.6208 38.3852 13.378 38.3852H10.9501ZM17.2019 30.5855H22.255C21.8504 29.5739 21.4407 28.5673 21.0259 27.5658C20.6111 26.5542 20.1964 25.5426 19.7816 24.5309C19.3567 25.5426 18.9268 26.5542 18.4918 27.5658C18.0669 28.5673 17.6369 29.5739 17.2019 30.5855ZM38.3854 17.1106C39.8826 17.1106 41.2382 17.3585 42.4522 17.8542C43.6661 18.3398 44.6272 19.0985 45.3353 20.1304C46.0536 21.1521 46.4127 22.4773 46.4127 24.1061C46.4127 25.4111 46.1598 26.5896 45.654 27.6417C45.1482 28.6938 44.3389 29.5739 43.2261 30.282C43.1553 30.3124 43.1198 30.363 43.1198 30.4338C43.1198 30.4743 43.2514 30.712 43.5144 31.147C43.7875 31.582 44.1264 32.1181 44.5311 32.7555C44.9458 33.3928 45.3657 34.0402 45.7905 34.6978C46.2255 35.3554 46.6049 35.937 46.9286 36.4429C47.2523 36.9487 47.4597 37.2724 47.5508 37.414C47.6014 37.495 47.6519 37.586 47.7025 37.6872C47.7531 37.7782 47.7784 37.8794 47.7784 37.9907C47.7784 38.1727 47.6823 38.284 47.4901 38.3245C47.308 38.365 47.1562 38.3852 47.0348 38.3852H44.0151C43.8128 38.3852 43.6408 38.2941 43.4992 38.112C43.1856 37.7074 42.8922 37.2825 42.6191 36.8374C42.346 36.3822 42.0678 35.9421 41.7845 35.5172C41.3394 34.8293 40.8892 34.1465 40.434 33.4687C39.9787 32.7808 39.5336 32.0878 39.0986 31.3898C39.0582 31.319 39.0025 31.2836 38.9317 31.2836H36.2155C36.0941 31.2836 36.0334 31.3443 36.0334 31.4656C36.0334 32.1637 36.0283 32.8668 36.0182 33.5749C36.0182 34.2729 36.0132 34.9709 36.003 35.669C36.003 35.9623 36.0081 36.3215 36.0182 36.7463C36.0384 37.1611 36.0283 37.5051 35.9879 37.7782C35.9575 37.9805 35.9019 38.1323 35.8209 38.2334C35.7501 38.3346 35.5984 38.3852 35.3657 38.3852H32.7405C32.3258 38.3852 32.1184 38.1727 32.1184 37.7479C32.1184 37.2016 32.1285 36.6553 32.1487 36.109C32.169 35.5526 32.1841 34.9962 32.1943 34.4398C32.2246 32.1333 32.2398 29.8218 32.2398 27.5051C32.2398 25.3099 32.2246 23.1045 32.1943 20.8891C32.1841 20.363 32.169 19.842 32.1487 19.3261C32.1386 18.8001 32.1336 18.274 32.1336 17.748C32.1336 17.3231 32.3409 17.1106 32.7557 17.1106H38.3854ZM36.0334 27.6417H39.0986C40.1001 27.6417 40.9145 27.3281 41.5417 26.7009C42.1689 26.0737 42.4825 25.2543 42.4825 24.2426C42.4825 23.2006 42.1891 22.361 41.6024 21.7237C41.0157 21.0863 40.1962 20.7677 39.1441 20.7677H36.0182C36.0283 21.9108 36.0334 23.059 36.0334 24.2123C36.0334 25.3554 36.0334 26.4986 36.0334 27.6417ZM53.8937 17.1258C54.2781 17.1258 54.4855 17.3332 54.5158 17.748C54.5462 18.1931 54.5563 18.6483 54.5462 19.1137C54.5361 19.579 54.5361 20.0393 54.5462 20.4945C54.5563 21.4556 54.5614 22.4166 54.5614 23.3777C54.5614 24.3387 54.5614 25.2998 54.5614 26.2608C54.5614 26.3822 54.6119 26.4429 54.7131 26.4429H54.789C58.2083 25.5021 60.5451 23.3625 61.7996 20.0241C61.9513 19.6397 62.0676 19.2553 62.1486 18.8709C62.2396 18.4763 62.3357 18.0767 62.4369 17.6721C62.4875 17.49 62.5532 17.3534 62.6342 17.2624C62.7151 17.1713 62.8567 17.1258 63.059 17.1258H65.578C65.75 17.1258 65.8967 17.1612 66.018 17.232C66.1394 17.3029 66.2001 17.4394 66.2001 17.6417C66.2001 17.7328 66.1951 17.7986 66.185 17.839C65.8309 19.5689 65.2239 21.1926 64.364 22.71C63.5042 24.2274 62.3812 25.5426 60.9953 26.6554C60.7323 26.8779 60.4592 27.0853 60.1759 27.2775C59.9028 27.4596 59.6195 27.6417 59.3261 27.8238C59.2553 27.8541 59.2199 27.9047 59.2199 27.9755C59.2199 28.016 59.3666 28.2487 59.66 28.6736C59.9635 29.0883 60.3529 29.6245 60.8284 30.282C61.3039 30.9396 61.8147 31.6427 62.361 32.3913C62.9174 33.1298 63.4536 33.848 63.9695 34.5461C64.4854 35.2441 64.9305 35.846 65.3049 36.3518C65.6792 36.8475 65.9219 37.1763 66.0332 37.3382C66.0939 37.4191 66.1546 37.5152 66.2153 37.6265C66.2861 37.7377 66.3215 37.849 66.3215 37.9603C66.3215 38.1424 66.2204 38.2537 66.018 38.2941C65.8157 38.3245 65.6539 38.3397 65.5325 38.3397H62.5886C62.3964 38.3397 62.2346 38.2587 62.103 38.0969C61.8097 37.7428 61.5214 37.3786 61.2381 37.0043C60.965 36.6199 60.6868 36.2405 60.4035 35.8662C59.8775 35.1682 59.3514 34.4702 58.8254 33.7722C58.3094 33.0741 57.7885 32.3711 57.2624 31.6629C56.9792 31.2886 56.701 30.9143 56.4278 30.54C56.1648 30.1556 55.8866 29.7813 55.5932 29.4171C55.5426 29.3665 55.5022 29.3412 55.4718 29.3412C55.3707 29.3412 55.2493 29.3564 55.1076 29.3868C54.966 29.407 54.8396 29.4272 54.7283 29.4474C54.617 29.4677 54.5614 29.5334 54.5614 29.6447C54.5614 30.5653 54.5563 31.4859 54.5462 32.4065C54.5462 33.3169 54.5411 34.2274 54.531 35.1379C54.5209 35.5729 54.5209 36.0129 54.531 36.458C54.5411 36.9031 54.531 37.3382 54.5007 37.763C54.4703 38.1778 54.2629 38.3852 53.8785 38.3852H51.2382C50.8234 38.3852 50.616 38.1727 50.616 37.7479C50.616 37.2016 50.6261 36.6553 50.6464 36.109C50.6666 35.5526 50.6818 35.0013 50.6919 34.455C50.7222 32.1283 50.7374 29.8167 50.7374 27.5203C50.7374 25.3048 50.7222 23.0995 50.6919 20.9042C50.6818 20.3782 50.6666 19.8572 50.6464 19.3413C50.6362 18.8152 50.6312 18.2892 50.6312 17.7631C50.6312 17.3383 50.8386 17.1258 51.2533 17.1258H53.8937ZM68.4611 38.3852C68.3195 38.3852 68.1678 38.365 68.0059 38.3245C67.844 38.2739 67.7631 38.1525 67.7631 37.9603C67.7631 37.8794 67.7783 37.7984 67.8086 37.7175C67.839 37.6366 67.8693 37.5607 67.8997 37.4899C68.7899 35.5678 69.67 33.6457 70.54 31.7236C71.4201 29.8015 72.2851 27.8693 73.1349 25.927C73.8329 24.3286 74.5258 22.7302 75.2138 21.1319C75.9017 19.5234 76.6098 17.9301 77.3382 16.3519C77.3685 16.2912 77.4191 16.2609 77.4899 16.2609C77.5607 16.2609 77.6113 16.2912 77.6417 16.3519C78.37 17.9301 79.0782 19.5234 79.7661 21.1319C80.454 22.7302 81.147 24.3286 81.845 25.927C82.6947 27.8693 83.5546 29.8015 84.4246 31.7236C85.3047 33.6457 86.1899 35.5678 87.0802 37.4899C87.1105 37.5607 87.1408 37.6366 87.1712 37.7175C87.2015 37.7984 87.2167 37.8794 87.2167 37.9603C87.2167 38.1525 87.1358 38.2739 86.9739 38.3245C86.8121 38.365 86.6603 38.3852 86.5187 38.3852H83.4535C83.2006 38.3852 83.0083 38.2587 82.8768 38.0058C82.7959 37.844 82.72 37.672 82.6492 37.4899C82.5784 37.3078 82.5076 37.1358 82.4368 36.974C82.2142 36.4681 81.9967 35.9522 81.7843 35.4262C81.582 34.9001 81.3645 34.3842 81.1318 33.8784C81.1014 33.7975 81.0458 33.757 80.9649 33.757H73.4535C73.3726 33.757 73.317 33.7975 73.2866 33.8784C73.0438 34.3842 72.8111 34.9001 72.5886 35.4262C72.3761 35.9522 72.1536 36.4732 71.9209 36.9891C71.8501 37.151 71.7742 37.323 71.6933 37.5051C71.6225 37.6872 71.5415 37.8591 71.4505 38.021C71.319 38.2638 71.1318 38.3852 70.889 38.3852H68.4611ZM74.713 30.5855H79.7661C79.3614 29.5739 78.9517 28.5673 78.537 27.5658C78.1222 26.5542 77.7074 25.5426 77.2926 24.5309C76.8678 25.5426 76.4378 26.5542 76.0028 27.5658C75.5779 28.5673 75.148 29.5739 74.713 30.5855Z"
                  fill="url(#paint1_linear_185_281)" />
        </g>
    </g>
    <defs>
        <filter id="filter0_d_185_281"
                x="2.87671"
                y="16.3835"
                width="157.387"
                height="32.8495"
                filterUnits="userSpaceOnUse"
                color-interpolation-filters="sRGB">
            <feFlood flood-opacity="0"
                     result="BackgroundImageFix" />
            <feColorMatrix in="SourceAlpha"
                           type="matrix"
                           values="0 0 0 0 0 0 0 0 0 0 0 0 0 0 0 0 0 0 127 0"
                           result="hardAlpha" />
            <feOffset dy="0.483951" />
            <feGaussianBlur stdDeviation="0.241975" />
            <feComposite in2="hardAlpha"
                         operator="out" />
            <feColorMatrix type="matrix"
                           values="0 0 0 0 0 0 0 0 0 0 0 0 0 0 0 0 0 0 0.25 0" />
            <feBlend mode="normal"
                     in2="BackgroundImageFix"
                     result="effect1_dropShadow_185_281" />
            <feBlend mode="normal"
                     in="SourceGraphic"
                     in2="effect1_dropShadow_185_281"
                     result="shape" />
        </filter>
        <filter id="filter1_d_185_281"
                x="147.628"
                y="40.4173"
                width="14.5713"
                height="10.2675"
                filterUnits="userSpaceOnUse"
                color-interpolation-filters="sRGB">
            <feFlood flood-opacity="0"
                     result="BackgroundImageFix" />
            <feColorMatrix in="SourceAlpha"
                           type="matrix"
                           values="0 0 0 0 0 0 0 0 0 0 0 0 0 0 0 0 0 0 127 0"
                           result="hardAlpha" />
            <feOffset />
            <feGaussianBlur stdDeviation="1.20988" />
            <feComposite in2="hardAlpha"
                         operator="out" />
            <feColorMatrix type="matrix"
                           values="0 0 0 0 0.936516 0 0 0 0 0.826823 0 0 0 0 0.826823 0 0 0 0.51 0" />
            <feBlend mode="normal"
                     in2="BackgroundImageFix"
                     result="effect1_dropShadow_185_281" />
            <feBlend mode="normal"
                     in="SourceGraphic"
                     in2="effect1_dropShadow_185_281"
                     result="shape" />
        </filter>
        <filter id="filter2_dddi_185_281"
                x="81.7789"
                y="13.9984"
                width="79.7169"
                height="27.5484"
                filterUnits="userSpaceOnUse"
                color-interpolation-filters="sRGB">
            <feFlood flood-opacity="0"
                     result="BackgroundImageFix" />
            <feColorMatrix in="SourceAlpha"
                           type="matrix"
                           values="0 0 0 0 0 0 0 0 0 0 0 0 0 0 0 0 0 0 127 0"
                           result="hardAlpha" />
            <feOffset dx="-1.45185"
                      dy="1.08889" />
            <feGaussianBlur stdDeviation="0.907408" />
            <feComposite in2="hardAlpha"
                         operator="out" />
            <feColorMatrix type="matrix"
                           values="0 0 0 0 0.212183 0 0 0 0 0.10096 0 0 0 0 0.614294 0 0 0 1 0" />
            <feBlend mode="normal"
                     in2="BackgroundImageFix"
                     result="effect1_dropShadow_185_281" />
            <feColorMatrix in="SourceAlpha"
                           type="matrix"
                           values="0 0 0 0 0 0 0 0 0 0 0 0 0 0 0 0 0 0 127 0"
                           result="hardAlpha" />
            <feOffset dy="0.483951" />
            <feGaussianBlur stdDeviation="0.241975" />
            <feComposite in2="hardAlpha"
                         operator="out" />
            <feColorMatrix type="matrix"
                           values="0 0 0 0 0 0 0 0 0 0 0 0 0 0 0 0 0 0 0.25 0" />
            <feBlend mode="normal"
                     in2="effect1_dropShadow_185_281"
                     result="effect2_dropShadow_185_281" />
            <feColorMatrix in="SourceAlpha"
                           type="matrix"
                           values="0 0 0 0 0 0 0 0 0 0 0 0 0 0 0 0 0 0 127 0"
                           result="hardAlpha" />
            <feOffset />
            <feGaussianBlur stdDeviation="1.13123" />
            <feComposite in2="hardAlpha"
                         operator="out" />
            <feColorMatrix type="matrix"
                           values="0 0 0 0 0.930316 0 0 0 0 0.619907 0 0 0 0 1 0 0 0 0.04 0" />
            <feBlend mode="normal"
                     in2="effect2_dropShadow_185_281"
                     result="effect3_dropShadow_185_281" />
            <feBlend mode="normal"
                     in="SourceGraphic"
                     in2="effect3_dropShadow_185_281"
                     result="shape" />
            <feColorMatrix in="SourceAlpha"
                           type="matrix"
                           values="0 0 0 0 0 0 0 0 0 0 0 0 0 0 0 0 0 0 127 0"
                           result="hardAlpha" />
            <feOffset dy="0.483951" />
            <feGaussianBlur stdDeviation="0.241975" />
            <feComposite in2="hardAlpha"
                         operator="arithmetic"
                         k2="-1"
                         k3="1" />
            <feColorMatrix type="matrix"
                           values="0 0 0 0 0 0 0 0 0 0 0 0 0 0 0 0 0 0 0.25 0" />
            <feBlend mode="normal"
                     in2="shape"
                     result="effect4_innerShadow_185_281" />
        </filter>
        <filter id="filter3_dddi_185_281"
                x="6.98538"
                y="13.9984"
                width="82.4938"
                height="27.2905"
                filterUnits="userSpaceOnUse"
                color-interpolation-filters="sRGB">
            <feFlood flood-opacity="0"
                     result="BackgroundImageFix" />
            <feColorMatrix in="SourceAlpha"
                           type="matrix"
                           values="0 0 0 0 0 0 0 0 0 0 0 0 0 0 0 0 0 0 127 0"
                           result="hardAlpha" />
            <feOffset dx="-1.45185"
                      dy="1.08889" />
            <feGaussianBlur stdDeviation="0.907408" />
            <feComposite in2="hardAlpha"
                         operator="out" />
            <feColorMatrix type="matrix"
                           values="0 0 0 0 0.212183 0 0 0 0 0.10096 0 0 0 0 0.614294 0 0 0 1 0" />
            <feBlend mode="normal"
                     in2="BackgroundImageFix"
                     result="effect1_dropShadow_185_281" />
            <feColorMatrix in="SourceAlpha"
                           type="matrix"
                           values="0 0 0 0 0 0 0 0 0 0 0 0 0 0 0 0 0 0 127 0"
                           result="hardAlpha" />
            <feOffset dy="0.483951" />
            <feGaussianBlur stdDeviation="0.241975" />
            <feComposite in2="hardAlpha"
                         operator="out" />
            <feColorMatrix type="matrix"
                           values="0 0 0 0 0 0 0 0 0 0 0 0 0 0 0 0 0 0 0.25 0" />
            <feBlend mode="normal"
                     in2="effect1_dropShadow_185_281"
                     result="effect2_dropShadow_185_281" />
            <feColorMatrix in="SourceAlpha"
                           type="matrix"
                           values="0 0 0 0 0 0 0 0 0 0 0 0 0 0 0 0 0 0 127 0"
                           result="hardAlpha" />
            <feOffset />
            <feGaussianBlur stdDeviation="1.13123" />
            <feComposite in2="hardAlpha"
                         operator="out" />
            <feColorMatrix type="matrix"
                           values="0 0 0 0 0.930316 0 0 0 0 0.619907 0 0 0 0 1 0 0 0 0.04 0" />
            <feBlend mode="normal"
                     in2="effect2_dropShadow_185_281"
                     result="effect3_dropShadow_185_281" />
            <feBlend mode="normal"
                     in="SourceGraphic"
                     in2="effect3_dropShadow_185_281"
                     result="shape" />
            <feColorMatrix in="SourceAlpha"
                           type="matrix"
                           values="0 0 0 0 0 0 0 0 0 0 0 0 0 0 0 0 0 0 127 0"
                           result="hardAlpha" />
            <feOffset dy="0.483951" />
            <feGaussianBlur stdDeviation="0.241975" />
            <feComposite in2="hardAlpha"
                         operator="arithmetic"
                         k2="-1"
                         k3="1" />
            <feColorMatrix type="matrix"
                           values="0 0 0 0 0 0 0 0 0 0 0 0 0 0 0 0 0 0 0.25 0" />
            <feBlend mode="normal"
                     in2="shape"
                     result="effect4_innerShadow_185_281" />
        </filter>
        <linearGradient id="paint0_linear_185_281"
                        x1="84.1199"
                        y1="27.8852"
                        x2="160.12"
                        y2="27.8852"
                        gradientUnits="userSpaceOnUse">
            <stop stop-color="#9274FF" />
            <stop offset="1"
                  stop-color="#C159D8" />
        </linearGradient>
        <linearGradient id="paint1_linear_185_281"
                        x1="9.73611"
                        y1="27.8852"
                        x2="87.7361"
                        y2="27.8852"
                        gradientUnits="userSpaceOnUse">
            <stop stop-color="#48E6FF" />
            <stop offset="1"
                  stop-color="#9274FF" />
        </linearGradient>
        <clipPath id="clip0_185_281">
            <rect width="161"
                  height="56"
                  fill="white"
                  transform="translate(0.821136)" />
        </clipPath>
    </defs>
</svg>