<svg width="1058" height="310" viewBox="0 0 1058 310" fill="none" xmlns="http://www.w3.org/2000/svg">
<g opacity="0.4">
<g opacity="0.3">
<circle cx="8.4477" cy="8.4477" r="8.4477" transform="matrix(-1 8.74228e-08 8.74228e-08 1 898.528 41.4705)" fill="url(#paint0_radial_185_3340)" fill-opacity="0.2"/>
<g filter="url(#filter0_f_185_3340)">
<circle cx="3.79632" cy="3.79632" r="3.79632" transform="matrix(-1 8.74228e-08 8.74228e-08 1 893.876 46.1218)" fill="#F5F5F5"/>
</g>
</g>
<g opacity="0.3">
<circle cx="7.06575" cy="7.06575" r="7.06575" transform="matrix(-1 8.74228e-08 8.74228e-08 1 180.473 92.1567)" fill="url(#paint1_radial_185_3340)" fill-opacity="0.2"/>
<g filter="url(#filter1_f_185_3340)">
<circle cx="3.17528" cy="3.17528" r="3.17528" transform="matrix(-1 8.74228e-08 8.74228e-08 1 176.582 96.0471)" fill="#F5F5F5"/>
</g>
</g>
<g opacity="0.1">
<circle cx="7.06575" cy="7.06575" r="7.06575" transform="matrix(-1 8.74228e-08 8.74228e-08 1 748.005 105.98)" fill="url(#paint2_radial_185_3340)" fill-opacity="0.2"/>
<g filter="url(#filter2_f_185_3340)">
<circle cx="3.17528" cy="3.17528" r="3.17528" transform="matrix(-1 8.74228e-08 8.74228e-08 1 744.115 109.87)" fill="#F5F5F5"/>
</g>
</g>
<g opacity="0.1">
<circle cx="7.06575" cy="7.06575" r="7.06575" transform="matrix(-1 8.74228e-08 8.74228e-08 1 863.201 189.689)" fill="url(#paint3_radial_185_3340)" fill-opacity="0.2"/>
<g filter="url(#filter3_f_185_3340)">
<circle cx="3.17528" cy="3.17528" r="3.17528" transform="matrix(-1 8.74228e-08 8.74228e-08 1 859.31 193.58)" fill="#F5F5F5"/>
</g>
</g>
<g opacity="0.1">
<circle cx="7.06575" cy="7.06575" r="7.06575" transform="matrix(-1 8.74228e-08 8.74228e-08 1 287.221 150.523)" fill="url(#paint4_radial_185_3340)" fill-opacity="0.2"/>
<g filter="url(#filter4_f_185_3340)">
<circle cx="3.17528" cy="3.17528" r="3.17528" transform="matrix(-1 8.74228e-08 8.74228e-08 1 283.331 154.413)" fill="#F5F5F5"/>
</g>
</g>
<g opacity="0.1">
<circle cx="7.06575" cy="7.06575" r="7.06575" transform="matrix(-1 8.74228e-08 8.74228e-08 1 1030.62 252.663)" fill="url(#paint5_radial_185_3340)" fill-opacity="0.2"/>
<g filter="url(#filter5_f_185_3340)">
<circle cx="3.17528" cy="3.17528" r="3.17528" transform="matrix(-1 8.74228e-08 8.74228e-08 1 1026.73 256.553)" fill="#F5F5F5"/>
</g>
</g>
<circle cx="8.4477" cy="8.4477" r="8.4477" transform="matrix(-1 8.74228e-08 8.74228e-08 1 791.779 16.1273)" fill="url(#paint6_radial_185_3340)" fill-opacity="0.2"/>
<g filter="url(#filter6_f_185_3340)">
<circle cx="3.79632" cy="3.79632" r="3.79632" transform="matrix(-1 8.74228e-08 8.74228e-08 1 787.128 20.7787)" fill="#F5F5F5"/>
</g>
<circle cx="7.06575" cy="7.06575" r="7.06575" transform="matrix(-1 8.74228e-08 8.74228e-08 1 150.523 1.53601)" fill="url(#paint7_radial_185_3340)" fill-opacity="0.2"/>
<g filter="url(#filter7_f_185_3340)">
<circle cx="3.17528" cy="3.17528" r="3.17528" transform="matrix(-1 8.74228e-08 8.74228e-08 1 146.632 5.42645)" fill="#ADF4FF" fill-opacity="0.68"/>
</g>
<g opacity="0.7">
<circle cx="8.4477" cy="8.4477" r="8.4477" transform="matrix(-1 8.74228e-08 8.74228e-08 1 1067.48 10.7515)" fill="url(#paint8_radial_185_3340)" fill-opacity="0.2"/>
<g filter="url(#filter8_f_185_3340)">
<circle cx="3.79632" cy="3.79632" r="3.79632" transform="matrix(-1 8.74228e-08 8.74228e-08 1 1062.83 15.4028)" fill="#ED9EFF"/>
</g>
</g>
<circle cx="7.06575" cy="7.06575" r="7.06575" transform="matrix(-1 8.74228e-08 8.74228e-08 1 107.516 62.2057)" fill="url(#paint9_radial_185_3340)" fill-opacity="0.2"/>
<g filter="url(#filter9_f_185_3340)">
<circle cx="3.17528" cy="3.17528" r="3.17528" transform="matrix(-1 8.74228e-08 8.74228e-08 1 103.626 66.0961)" fill="#ED9EFF"/>
</g>
<g opacity="0.4">
<circle cx="3.83986" cy="3.83986" r="3.83986" transform="matrix(-1 8.74228e-08 8.74228e-08 1 728.038 5.37573)" fill="url(#paint10_radial_185_3340)" fill-opacity="0.2"/>
<g filter="url(#filter10_f_185_3340)">
<circle cx="1.7256" cy="1.7256" r="1.7256" transform="matrix(-1 8.74228e-08 8.74228e-08 1 725.923 7.48987)" fill="#F5F5F5"/>
</g>
</g>
<g opacity="0.1">
<circle cx="3.83986" cy="3.83986" r="3.83986" transform="matrix(-1 8.74228e-08 8.74228e-08 1 827.106 163.578)" fill="url(#paint11_radial_185_3340)" fill-opacity="0.2"/>
<g filter="url(#filter11_f_185_3340)">
<circle cx="1.7256" cy="1.7256" r="1.7256" transform="matrix(-1 8.74228e-08 8.74228e-08 1 824.992 165.692)" fill="#F5F5F5"/>
</g>
</g>
<circle cx="3.83986" cy="3.83986" r="3.83986" transform="matrix(-1 8.74228e-08 8.74228e-08 1 427.76 1.53589)" fill="url(#paint12_radial_185_3340)" fill-opacity="0.2"/>
<g filter="url(#filter12_f_185_3340)">
<circle cx="1.7256" cy="1.7256" r="1.7256" transform="matrix(-1 8.74228e-08 8.74228e-08 1 425.646 3.65027)" fill="#F5F5F5"/>
</g>
<circle cx="3.83986" cy="3.83986" r="3.83986" transform="matrix(-1 8.74228e-08 8.74228e-08 1 832.482 102.908)" fill="url(#paint13_radial_185_3340)" fill-opacity="0.2"/>
<g filter="url(#filter13_f_185_3340)">
<circle cx="1.7256" cy="1.7256" r="1.7256" transform="matrix(-1 8.74228e-08 8.74228e-08 1 830.368 105.023)" fill="#F5F5F5"/>
</g>
<circle cx="3.83986" cy="3.83986" r="3.83986" transform="matrix(-1 8.74228e-08 8.74228e-08 1 326.388 29.183)" fill="url(#paint14_radial_185_3340)" fill-opacity="0.2"/>
<g filter="url(#filter14_f_185_3340)">
<circle cx="1.7256" cy="1.7256" r="1.7256" transform="matrix(-1 8.74228e-08 8.74228e-08 1 324.274 31.2972)" fill="#F5F5F5"/>
</g>
<g opacity="0.3">
<circle cx="10.7516" cy="10.7516" r="10.7516" transform="matrix(-1 8.74228e-08 8.74228e-08 1 913.887 135.931)" fill="url(#paint15_radial_185_3340)" fill-opacity="0.2"/>
<g filter="url(#filter15_f_185_3340)">
<circle cx="4.83168" cy="4.83168" r="4.83168" transform="matrix(-1 8.74228e-08 8.74228e-08 1 907.967 141.851)" fill="#87D7D7"/>
</g>
</g>
<circle cx="6.35249" cy="6.35249" r="6.35249" transform="matrix(-1 8.74228e-08 8.74228e-08 1 67.9987 163.929)" fill="url(#paint16_radial_185_3340)" fill-opacity="0.1"/>
<g filter="url(#filter16_f_185_3340)">
<circle cx="2.85475" cy="2.85475" r="2.85475" transform="matrix(-1 8.74228e-08 8.74228e-08 1 64.5013 167.426)" fill="#F5F5F5"/>
</g>
<circle cx="6.14378" cy="6.14378" r="6.14378" transform="matrix(-1 8.74228e-08 8.74228e-08 1 519.917 29.1829)" fill="url(#paint17_radial_185_3340)" fill-opacity="0.1"/>
<g filter="url(#filter17_f_185_3340)">
<circle cx="2.76096" cy="2.76096" r="2.76096" transform="matrix(-1 8.74228e-08 8.74228e-08 1 516.535 32.5657)" fill="#F5F5F5"/>
</g>
<circle cx="15.3594" cy="15.3594" r="15.3594" transform="matrix(-1 8.74228e-08 8.74228e-08 1 1043.67 76.0292)" fill="url(#paint18_radial_185_3340)" fill-opacity="0.1"/>
<g filter="url(#filter18_f_185_3340)">
<circle cx="6.90239" cy="6.90239" r="6.90239" transform="matrix(-1 8.74228e-08 8.74228e-08 1 1035.22 84.4862)" fill="#F5F5F5"/>
</g>
<circle cx="7.06575" cy="7.06575" r="7.06575" transform="matrix(-1 8.74228e-08 8.74228e-08 1 19.967 43.0064)" fill="url(#paint19_radial_185_3340)" fill-opacity="0.2"/>
<g filter="url(#filter19_f_185_3340)">
<circle cx="3.17528" cy="3.17528" r="3.17528" transform="matrix(-1 8.74228e-08 8.74228e-08 1 16.0765 46.8968)" fill="#F5F5F5"/>
</g>
<circle cx="1.53594" cy="1.53594" r="1.53594" transform="matrix(-1 8.74228e-08 8.74228e-08 1 661.224 69.1174)" fill="#D9D9D9"/>
<ellipse opacity="0.3" cx="1.15196" cy="1.53594" rx="1.15196" ry="1.53594" transform="matrix(-1 8.74228e-08 8.74228e-08 1 137.466 115.964)" fill="#D9D9D9"/>
<ellipse opacity="0.3" cx="1.15196" cy="1.53594" rx="1.15196" ry="1.53594" transform="matrix(-1 8.74228e-08 8.74228e-08 1 26.1106 139.003)" fill="#D9D9D9"/>
<circle cx="1.53594" cy="1.53594" r="1.53594" transform="matrix(-1 8.74228e-08 8.74228e-08 1 360.947 94.4605)" fill="#D9D9D9"/>
<circle cx="1.53594" cy="1.53594" r="1.53594" transform="matrix(-1 8.74228e-08 8.74228e-08 1 139.003 259.575)" fill="#D9D9D9"/>
<circle opacity="0.1" cx="1.53594" cy="1.53594" r="1.53594" transform="matrix(-1 8.74228e-08 8.74228e-08 1 857.825 113.66)" fill="#D9D9D9"/>
<circle cx="1.53594" cy="1.53594" r="1.53594" transform="matrix(-1 8.74228e-08 8.74228e-08 1 830.177 -0.00012207)" fill="#D9D9D9"/>
<circle opacity="0.3" cx="2.6879" cy="2.6879" r="2.6879" transform="matrix(-1 8.74228e-08 8.74228e-08 1 185.849 154.362)" fill="#D9D9D9" fill-opacity="0.3"/>
<circle opacity="0.3" cx="2.6879" cy="2.6879" r="2.6879" transform="matrix(-1 8.74228e-08 8.74228e-08 1 929.246 256.503)" fill="#D9D9D9" fill-opacity="0.3"/>
<circle opacity="0.1" cx="2.6879" cy="2.6879" r="2.6879" transform="matrix(-1 8.74228e-08 8.74228e-08 1 682.727 173.562)" fill="#D9D9D9" fill-opacity="0.3"/>
<circle opacity="0.1" cx="2.6879" cy="2.6879" r="2.6879" transform="matrix(-1 8.74228e-08 8.74228e-08 1 797.923 257.271)" fill="#D9D9D9" fill-opacity="0.3"/>
<circle cx="2.30392" cy="2.30392" r="2.30392" transform="matrix(-1 8.74228e-08 8.74228e-08 1 209.656 30.7189)" fill="#D9D9D9" fill-opacity="0.3"/>
<circle opacity="0.4" cx="3.07189" cy="3.07189" r="3.07189" transform="matrix(-1 8.74228e-08 8.74228e-08 1 954.59 109.82)" fill="#D9D9D9" fill-opacity="0.3"/>
<circle opacity="0.4" cx="3.07189" cy="3.07189" r="3.07189" transform="matrix(-1 8.74228e-08 8.74228e-08 1 665.832 27.647)" fill="#D9D9D9" fill-opacity="0.3"/>
<circle opacity="0.4" cx="3.07189" cy="3.07189" r="3.07189" transform="matrix(-1 8.74228e-08 8.74228e-08 1 1023.71 261.879)" fill="#59B3CA" fill-opacity="0.3"/>
<path opacity="0.5" d="M941.534 29.5942C941.534 30.6395 943.081 31.4868 944.99 31.4868C946.899 31.4868 948.446 30.6395 948.446 29.5942C948.446 28.5489 946.471 27.9382 944.496 28.8845C942.588 28.8845 941.534 28.5489 941.534 29.5942Z" fill="#D9D9D9" fill-opacity="0.3"/>
<circle cx="3.07189" cy="3.07189" r="3.07189" transform="matrix(-1 8.74228e-08 8.74228e-08 1 1017.56 177.402)" fill="#59B3CA" fill-opacity="0.3"/>
<circle cx="3.07189" cy="3.07189" r="3.07189" transform="matrix(-1 8.74228e-08 8.74228e-08 1 676.583 119.804)" fill="#59B3CA" fill-opacity="0.3"/>
<ellipse opacity="0.3" cx="4.99182" cy="2.30392" rx="4.99182" ry="2.30392" transform="matrix(-1 8.74228e-08 8.74228e-08 1 411.633 30.7189)" fill="#59B3CA" fill-opacity="0.3"/>
<ellipse opacity="0.3" cx="4.99182" cy="2.30392" rx="4.99182" ry="2.30392" transform="matrix(-1 8.74228e-08 8.74228e-08 1 738.021 151.291)" fill="#59B3CA" fill-opacity="0.3"/>
<ellipse opacity="0.3" cx="4.99182" cy="2.30392" rx="4.99182" ry="2.30392" transform="matrix(-1 8.74228e-08 8.74228e-08 1 788.707 61.9152)" fill="#59B3CA" fill-opacity="0.3"/>
<ellipse opacity="0.3" cx="4.99182" cy="2.30392" rx="4.99182" ry="2.30392" transform="matrix(-1 8.74228e-08 8.74228e-08 1 371.698 56.83)" fill="#59B3CA" fill-opacity="0.3"/>
<ellipse opacity="0.3" cx="4.99182" cy="2.30392" rx="4.99182" ry="2.30392" transform="matrix(-1 8.74228e-08 8.74228e-08 1 338.676 165.882)" fill="#59B3CA" fill-opacity="0.3"/>
<ellipse cx="2.6879" cy="2.30392" rx="2.6879" ry="2.30392" transform="matrix(-1 8.74228e-08 8.74228e-08 1 267.254 8.44769)" fill="#D9D9D9" fill-opacity="0.3"/>
<circle cx="3.07189" cy="3.07189" r="3.07189" transform="matrix(-1 8.74228e-08 8.74228e-08 1 969.949 159.738)" fill="#D9D9D9" fill-opacity="0.3"/>
<circle cx="3.07189" cy="3.07189" r="3.07189" transform="matrix(-1 8.74228e-08 8.74228e-08 1 433.904 93.6926)" fill="#D9D9D9" fill-opacity="0.3"/>
<ellipse opacity="0.3" cx="2.30392" cy="4.99182" rx="2.30392" ry="4.99182" transform="matrix(-0.860429 0.50957 0.50957 0.860429 361.153 8.73828)" fill="#D9D9D9" fill-opacity="0.3"/>
<ellipse opacity="0.3" cx="2.30392" cy="4.99182" rx="2.30392" ry="4.99182" transform="matrix(-0.860429 0.50957 0.50957 0.860429 738.228 39.9344)" fill="#D9D9D9" fill-opacity="0.3"/>
<ellipse opacity="0.3" cx="2.30392" cy="4.99182" rx="2.30392" ry="4.99182" transform="matrix(-0.860429 0.50957 0.50957 0.860429 232.984 196.601)" fill="#D9D9D9" fill-opacity="0.3"/>
<ellipse opacity="0.3" cx="2.30392" cy="4.99182" rx="2.30392" ry="4.99182" transform="matrix(-0.860429 0.50957 0.50957 0.860429 976.381 298.741)" fill="#D9D9D9" fill-opacity="0.3"/>
<circle cx="3.07189" cy="3.07189" r="3.07189" transform="matrix(-1 8.74228e-08 8.74228e-08 1 6.1438 270.326)" fill="#D9D9D9" fill-opacity="0.3"/>
<circle cx="3.07189" cy="3.07189" r="3.07189" transform="matrix(-1 8.74228e-08 8.74228e-08 1 599.018 1.53589)" fill="#D9D9D9" fill-opacity="0.3"/>
<circle cx="1.15196" cy="1.15196" r="1.15196" transform="matrix(-1 8.74228e-08 8.74228e-08 1 246.519 68.3496)" fill="#D9D9D9" fill-opacity="0.3"/>
<circle cx="3.07189" cy="3.07189" r="3.07189" transform="matrix(-1 8.74228e-08 8.74228e-08 1 992.988 7.67963)" fill="#D9D9D9" fill-opacity="0.3"/>
<circle cx="3.07189" cy="3.07189" r="3.07189" transform="matrix(-1 8.74228e-08 8.74228e-08 1 61.4376 234.232)" fill="#D9D9D9" fill-opacity="0.3"/>
<circle cx="2.6879" cy="2.6879" r="2.6879" transform="matrix(-1 8.74228e-08 8.74228e-08 1 75.2612 16.1273)" fill="#D9D9D9" fill-opacity="0.3"/>
</g>
<defs>
<filter id="filter0_f_185_3340" x="885.65" y="45.4885" width="8.85927" height="8.85927" filterUnits="userSpaceOnUse" color-interpolation-filters="sRGB">
<feFlood flood-opacity="0" result="BackgroundImageFix"/>
<feBlend mode="normal" in="SourceGraphic" in2="BackgroundImageFix" result="shape"/>
<feGaussianBlur stdDeviation="0.316655" result="effect1_foregroundBlur_185_3340"/>
</filter>
<filter id="filter1_f_185_3340" x="169.599" y="95.4137" width="7.61721" height="7.61721" filterUnits="userSpaceOnUse" color-interpolation-filters="sRGB">
<feFlood flood-opacity="0" result="BackgroundImageFix"/>
<feBlend mode="normal" in="SourceGraphic" in2="BackgroundImageFix" result="shape"/>
<feGaussianBlur stdDeviation="0.316655" result="effect1_foregroundBlur_185_3340"/>
</filter>
<filter id="filter2_f_185_3340" x="737.131" y="109.237" width="7.61721" height="7.61721" filterUnits="userSpaceOnUse" color-interpolation-filters="sRGB">
<feFlood flood-opacity="0" result="BackgroundImageFix"/>
<feBlend mode="normal" in="SourceGraphic" in2="BackgroundImageFix" result="shape"/>
<feGaussianBlur stdDeviation="0.316655" result="effect1_foregroundBlur_185_3340"/>
</filter>
<filter id="filter3_f_185_3340" x="852.326" y="192.946" width="7.61721" height="7.61721" filterUnits="userSpaceOnUse" color-interpolation-filters="sRGB">
<feFlood flood-opacity="0" result="BackgroundImageFix"/>
<feBlend mode="normal" in="SourceGraphic" in2="BackgroundImageFix" result="shape"/>
<feGaussianBlur stdDeviation="0.316655" result="effect1_foregroundBlur_185_3340"/>
</filter>
<filter id="filter4_f_185_3340" x="276.347" y="153.78" width="7.61721" height="7.61721" filterUnits="userSpaceOnUse" color-interpolation-filters="sRGB">
<feFlood flood-opacity="0" result="BackgroundImageFix"/>
<feBlend mode="normal" in="SourceGraphic" in2="BackgroundImageFix" result="shape"/>
<feGaussianBlur stdDeviation="0.316655" result="effect1_foregroundBlur_185_3340"/>
</filter>
<filter id="filter5_f_185_3340" x="1019.74" y="255.92" width="7.61721" height="7.61721" filterUnits="userSpaceOnUse" color-interpolation-filters="sRGB">
<feFlood flood-opacity="0" result="BackgroundImageFix"/>
<feBlend mode="normal" in="SourceGraphic" in2="BackgroundImageFix" result="shape"/>
<feGaussianBlur stdDeviation="0.316655" result="effect1_foregroundBlur_185_3340"/>
</filter>
<filter id="filter6_f_185_3340" x="778.902" y="20.1454" width="8.85927" height="8.85927" filterUnits="userSpaceOnUse" color-interpolation-filters="sRGB">
<feFlood flood-opacity="0" result="BackgroundImageFix"/>
<feBlend mode="normal" in="SourceGraphic" in2="BackgroundImageFix" result="shape"/>
<feGaussianBlur stdDeviation="0.316655" result="effect1_foregroundBlur_185_3340"/>
</filter>
<filter id="filter7_f_185_3340" x="139.648" y="4.79314" width="7.61721" height="7.61721" filterUnits="userSpaceOnUse" color-interpolation-filters="sRGB">
<feFlood flood-opacity="0" result="BackgroundImageFix"/>
<feBlend mode="normal" in="SourceGraphic" in2="BackgroundImageFix" result="shape"/>
<feGaussianBlur stdDeviation="0.316655" result="effect1_foregroundBlur_185_3340"/>
</filter>
<filter id="filter8_f_185_3340" x="1054.6" y="14.7695" width="8.85927" height="8.85927" filterUnits="userSpaceOnUse" color-interpolation-filters="sRGB">
<feFlood flood-opacity="0" result="BackgroundImageFix"/>
<feBlend mode="normal" in="SourceGraphic" in2="BackgroundImageFix" result="shape"/>
<feGaussianBlur stdDeviation="0.316655" result="effect1_foregroundBlur_185_3340"/>
</filter>
<filter id="filter9_f_185_3340" x="96.642" y="65.4628" width="7.61721" height="7.61721" filterUnits="userSpaceOnUse" color-interpolation-filters="sRGB">
<feFlood flood-opacity="0" result="BackgroundImageFix"/>
<feBlend mode="normal" in="SourceGraphic" in2="BackgroundImageFix" result="shape"/>
<feGaussianBlur stdDeviation="0.316655" result="effect1_foregroundBlur_185_3340"/>
</filter>
<filter id="filter10_f_185_3340" x="720.357" y="5.37492" width="7.68107" height="7.68107" filterUnits="userSpaceOnUse" color-interpolation-filters="sRGB">
<feFlood flood-opacity="0" result="BackgroundImageFix"/>
<feBlend mode="normal" in="SourceGraphic" in2="BackgroundImageFix" result="shape"/>
<feGaussianBlur stdDeviation="1.05747" result="effect1_foregroundBlur_185_3340"/>
</filter>
<filter id="filter11_f_185_3340" x="819.426" y="163.577" width="7.68107" height="7.68107" filterUnits="userSpaceOnUse" color-interpolation-filters="sRGB">
<feFlood flood-opacity="0" result="BackgroundImageFix"/>
<feBlend mode="normal" in="SourceGraphic" in2="BackgroundImageFix" result="shape"/>
<feGaussianBlur stdDeviation="1.05747" result="effect1_foregroundBlur_185_3340"/>
</filter>
<filter id="filter12_f_185_3340" x="420.08" y="1.53532" width="7.68107" height="7.68107" filterUnits="userSpaceOnUse" color-interpolation-filters="sRGB">
<feFlood flood-opacity="0" result="BackgroundImageFix"/>
<feBlend mode="normal" in="SourceGraphic" in2="BackgroundImageFix" result="shape"/>
<feGaussianBlur stdDeviation="1.05747" result="effect1_foregroundBlur_185_3340"/>
</filter>
<filter id="filter13_f_185_3340" x="824.801" y="102.908" width="7.68107" height="7.68107" filterUnits="userSpaceOnUse" color-interpolation-filters="sRGB">
<feFlood flood-opacity="0" result="BackgroundImageFix"/>
<feBlend mode="normal" in="SourceGraphic" in2="BackgroundImageFix" result="shape"/>
<feGaussianBlur stdDeviation="1.05747" result="effect1_foregroundBlur_185_3340"/>
</filter>
<filter id="filter14_f_185_3340" x="318.708" y="29.1822" width="7.68107" height="7.68107" filterUnits="userSpaceOnUse" color-interpolation-filters="sRGB">
<feFlood flood-opacity="0" result="BackgroundImageFix"/>
<feBlend mode="normal" in="SourceGraphic" in2="BackgroundImageFix" result="shape"/>
<feGaussianBlur stdDeviation="1.05747" result="effect1_foregroundBlur_185_3340"/>
</filter>
<filter id="filter15_f_185_3340" x="892.382" y="135.929" width="21.507" height="21.507" filterUnits="userSpaceOnUse" color-interpolation-filters="sRGB">
<feFlood flood-opacity="0" result="BackgroundImageFix"/>
<feBlend mode="normal" in="SourceGraphic" in2="BackgroundImageFix" result="shape"/>
<feGaussianBlur stdDeviation="2.96093" result="effect1_foregroundBlur_185_3340"/>
</filter>
<filter id="filter16_f_185_3340" x="54.1389" y="162.773" width="15.0152" height="15.0152" filterUnits="userSpaceOnUse" color-interpolation-filters="sRGB">
<feFlood flood-opacity="0" result="BackgroundImageFix"/>
<feBlend mode="normal" in="SourceGraphic" in2="BackgroundImageFix" result="shape"/>
<feGaussianBlur stdDeviation="2.32644" result="effect1_foregroundBlur_185_3340"/>
</filter>
<filter id="filter17_f_185_3340" x="506.36" y="27.9128" width="14.8277" height="14.8277" filterUnits="userSpaceOnUse" color-interpolation-filters="sRGB">
<feFlood flood-opacity="0" result="BackgroundImageFix"/>
<feBlend mode="normal" in="SourceGraphic" in2="BackgroundImageFix" result="shape"/>
<feGaussianBlur stdDeviation="2.32644" result="effect1_foregroundBlur_185_3340"/>
</filter>
<filter id="filter18_f_185_3340" x="1016.76" y="79.8333" width="23.1106" height="23.1106" filterUnits="userSpaceOnUse" color-interpolation-filters="sRGB">
<feFlood flood-opacity="0" result="BackgroundImageFix"/>
<feBlend mode="normal" in="SourceGraphic" in2="BackgroundImageFix" result="shape"/>
<feGaussianBlur stdDeviation="2.32644" result="effect1_foregroundBlur_185_3340"/>
</filter>
<filter id="filter19_f_185_3340" x="5.07306" y="42.2439" width="15.6564" height="15.6564" filterUnits="userSpaceOnUse" color-interpolation-filters="sRGB">
<feFlood flood-opacity="0" result="BackgroundImageFix"/>
<feBlend mode="normal" in="SourceGraphic" in2="BackgroundImageFix" result="shape"/>
<feGaussianBlur stdDeviation="2.32644" result="effect1_foregroundBlur_185_3340"/>
</filter>
<radialGradient id="paint0_radial_185_3340" cx="0" cy="0" r="1" gradientUnits="userSpaceOnUse" gradientTransform="translate(8.4477 8.4477) rotate(90) scale(8.4477)">
<stop offset="0.85" stop-color="#F5F5F5"/>
<stop offset="1" stop-color="#8F8F8F" stop-opacity="0"/>
</radialGradient>
<radialGradient id="paint1_radial_185_3340" cx="0" cy="0" r="1" gradientUnits="userSpaceOnUse" gradientTransform="translate(7.06575 7.06575) rotate(90) scale(7.06575)">
<stop offset="0.85" stop-color="#F5F5F5"/>
<stop offset="1" stop-color="#8F8F8F" stop-opacity="0"/>
</radialGradient>
<radialGradient id="paint2_radial_185_3340" cx="0" cy="0" r="1" gradientUnits="userSpaceOnUse" gradientTransform="translate(7.06575 7.06575) rotate(90) scale(7.06575)">
<stop offset="0.85" stop-color="#F5F5F5"/>
<stop offset="1" stop-color="#8F8F8F" stop-opacity="0"/>
</radialGradient>
<radialGradient id="paint3_radial_185_3340" cx="0" cy="0" r="1" gradientUnits="userSpaceOnUse" gradientTransform="translate(7.06575 7.06575) rotate(90) scale(7.06575)">
<stop offset="0.85" stop-color="#F5F5F5"/>
<stop offset="1" stop-color="#8F8F8F" stop-opacity="0"/>
</radialGradient>
<radialGradient id="paint4_radial_185_3340" cx="0" cy="0" r="1" gradientUnits="userSpaceOnUse" gradientTransform="translate(7.06575 7.06575) rotate(90) scale(7.06575)">
<stop offset="0.85" stop-color="#F5F5F5"/>
<stop offset="1" stop-color="#8F8F8F" stop-opacity="0"/>
</radialGradient>
<radialGradient id="paint5_radial_185_3340" cx="0" cy="0" r="1" gradientUnits="userSpaceOnUse" gradientTransform="translate(7.06575 7.06575) rotate(90) scale(7.06575)">
<stop offset="0.85" stop-color="#F5F5F5"/>
<stop offset="1" stop-color="#8F8F8F" stop-opacity="0"/>
</radialGradient>
<radialGradient id="paint6_radial_185_3340" cx="0" cy="0" r="1" gradientUnits="userSpaceOnUse" gradientTransform="translate(8.4477 8.4477) rotate(90) scale(8.4477)">
<stop offset="0.85" stop-color="#F5F5F5"/>
<stop offset="1" stop-color="#8F8F8F" stop-opacity="0"/>
</radialGradient>
<radialGradient id="paint7_radial_185_3340" cx="0" cy="0" r="1" gradientUnits="userSpaceOnUse" gradientTransform="translate(7.06575 7.06575) rotate(90) scale(7.06575)">
<stop offset="0.85" stop-color="#F5F5F5"/>
<stop offset="1" stop-color="#8F8F8F" stop-opacity="0"/>
</radialGradient>
<radialGradient id="paint8_radial_185_3340" cx="0" cy="0" r="1" gradientUnits="userSpaceOnUse" gradientTransform="translate(8.4477 8.4477) rotate(90) scale(8.4477)">
<stop offset="0.85" stop-color="#F5F5F5"/>
<stop offset="1" stop-color="#8F8F8F" stop-opacity="0"/>
</radialGradient>
<radialGradient id="paint9_radial_185_3340" cx="0" cy="0" r="1" gradientUnits="userSpaceOnUse" gradientTransform="translate(7.06575 7.06575) rotate(90) scale(7.06575)">
<stop offset="0.85" stop-color="#F5F5F5"/>
<stop offset="1" stop-color="#8F8F8F" stop-opacity="0"/>
</radialGradient>
<radialGradient id="paint10_radial_185_3340" cx="0" cy="0" r="1" gradientUnits="userSpaceOnUse" gradientTransform="translate(3.83986 3.83986) rotate(90) scale(3.83986)">
<stop offset="0.85" stop-color="#F5F5F5"/>
<stop offset="1" stop-color="#8F8F8F" stop-opacity="0"/>
</radialGradient>
<radialGradient id="paint11_radial_185_3340" cx="0" cy="0" r="1" gradientUnits="userSpaceOnUse" gradientTransform="translate(3.83986 3.83986) rotate(90) scale(3.83986)">
<stop offset="0.85" stop-color="#F5F5F5"/>
<stop offset="1" stop-color="#8F8F8F" stop-opacity="0"/>
</radialGradient>
<radialGradient id="paint12_radial_185_3340" cx="0" cy="0" r="1" gradientUnits="userSpaceOnUse" gradientTransform="translate(3.83986 3.83986) rotate(90) scale(3.83986)">
<stop offset="0.85" stop-color="#F5F5F5"/>
<stop offset="1" stop-color="#8F8F8F" stop-opacity="0"/>
</radialGradient>
<radialGradient id="paint13_radial_185_3340" cx="0" cy="0" r="1" gradientUnits="userSpaceOnUse" gradientTransform="translate(3.83986 3.83986) rotate(90) scale(3.83986)">
<stop offset="0.85" stop-color="#F5F5F5"/>
<stop offset="1" stop-color="#8F8F8F" stop-opacity="0"/>
</radialGradient>
<radialGradient id="paint14_radial_185_3340" cx="0" cy="0" r="1" gradientUnits="userSpaceOnUse" gradientTransform="translate(3.83986 3.83986) rotate(90) scale(3.83986)">
<stop offset="0.85" stop-color="#F5F5F5"/>
<stop offset="1" stop-color="#8F8F8F" stop-opacity="0"/>
</radialGradient>
<radialGradient id="paint15_radial_185_3340" cx="0" cy="0" r="1" gradientUnits="userSpaceOnUse" gradientTransform="translate(10.7516 10.7516) rotate(90) scale(10.7516)">
<stop offset="0.85" stop-color="#F5F5F5"/>
<stop offset="1" stop-color="#8F8F8F" stop-opacity="0"/>
</radialGradient>
<radialGradient id="paint16_radial_185_3340" cx="0" cy="0" r="1" gradientUnits="userSpaceOnUse" gradientTransform="translate(6.35249 6.35249) rotate(90) scale(6.35249)">
<stop offset="0.85" stop-color="#F5F5F5"/>
<stop offset="1" stop-color="#8F8F8F" stop-opacity="0"/>
</radialGradient>
<radialGradient id="paint17_radial_185_3340" cx="0" cy="0" r="1" gradientUnits="userSpaceOnUse" gradientTransform="translate(6.14378 6.14378) rotate(90) scale(6.14378)">
<stop offset="0.85" stop-color="#F5F5F5"/>
<stop offset="1" stop-color="#8F8F8F" stop-opacity="0"/>
</radialGradient>
<radialGradient id="paint18_radial_185_3340" cx="0" cy="0" r="1" gradientUnits="userSpaceOnUse" gradientTransform="translate(15.3594 15.3594) rotate(90) scale(15.3594)">
<stop offset="0.85" stop-color="#F5F5F5"/>
<stop offset="1" stop-color="#8F8F8F" stop-opacity="0"/>
</radialGradient>
<radialGradient id="paint19_radial_185_3340" cx="0" cy="0" r="1" gradientUnits="userSpaceOnUse" gradientTransform="translate(7.06575 7.06575) rotate(90) scale(7.06575)">
<stop offset="0.85" stop-color="#F5F5F5"/>
<stop offset="1" stop-color="#8F8F8F" stop-opacity="0"/>
</radialGradient>
</defs>
</svg>
