<svg width="1082" height="199" viewBox="0 0 1082 199" fill="none" xmlns="http://www.w3.org/2000/svg">
<path opacity="0.3" d="M998.573 25.2554C1051.34 -5.16709 1117.1 18.9028 1143.39 34.7406L1055.07 393.506L150.432 256.486L0.972978 208.679C39.0804 194.888 310.575 75.4188 353.31 87.5828C406.73 102.788 431.169 65.5849 478.34 76.2864C516.076 84.8477 536.676 66.1521 542.259 55.7342C559.976 54.2679 600.931 54.6614 623.011 67.9652C650.612 84.5948 637.084 29.1921 702.558 39.1091C768.033 49.0261 740.36 23.4932 778.162 7.87739C815.964 -7.73847 858.348 4.01647 881.285 23.4967C904.222 42.9769 932.615 63.2836 998.573 25.2554Z" fill="url(#paint0_linear_185_3332)"/>
<defs>
<linearGradient id="paint0_linear_185_3332" x1="612.081" y1="287.104" x2="689.269" y2="-222.512" gradientUnits="userSpaceOnUse">
<stop stop-color="#87D7D7" stop-opacity="0"/>
<stop offset="1" stop-color="#3D2044"/>
</linearGradient>
</defs>
</svg>
