<svg width="24" height="24" viewBox="0 0 24 24" fill="none" xmlns="http://www.w3.org/2000/svg">
<path d="M16.728 2.088H7.29599C4.48799 2.088 2.18399 4.368 2.18399 7.2V17.088C2.18399 19.896 4.46399 22.2 7.29599 22.2H16.752C19.56 22.2 21.864 19.92 21.864 17.088V7.176C21.84 4.368 19.56 2.088 16.728 2.088ZM18.432 18.792H14.736C14.712 18.792 14.688 18.792 14.688 18.768L11.232 13.752H11.208C9.81599 15.36 8.44799 16.944 7.10399 18.504C7.03199 18.6 6.93599 18.672 6.86399 18.744C6.83999 18.768 6.81599 18.768 6.79199 18.768H5.78399C5.75999 18.768 5.73599 18.768 5.75999 18.744L10.68 13.032C10.704 13.008 10.704 12.984 10.68 12.96L5.78399 5.832V5.808H9.50399C9.52799 5.808 9.52799 5.808 9.55199 5.832L12.816 10.56C12.816 10.56 12.816 10.56 12.84 10.56L16.896 5.832C16.92 5.808 16.944 5.808 16.968 5.808H17.976C18.024 5.808 18.024 5.832 18 5.856L13.344 11.256C13.32 11.28 13.32 11.304 13.344 11.328L18.456 18.768C18.456 18.768 18.456 18.792 18.432 18.792Z" fill="white"/>
<path d="M9.072 6.672H7.464C7.44 6.672 7.44 6.696 7.44 6.72L15.168 17.928C15.168 17.928 15.168 17.928 15.192 17.928H16.776C16.8 17.928 16.8 17.904 16.8 17.88L9.072 6.672Z" fill="white"/>
</svg>
