<svg width="40" height="41" viewBox="0 0 40 41" fill="none" xmlns="http://www.w3.org/2000/svg">
<g clip-path="url(#clip0_304_7695)">
<path d="M34.9998 8.25467V36.2975C34.9998 38.5066 33.209 40.2975 30.9998 40.2975H9C6.79086 40.2975 5 38.5066 5 36.2975V4.29749C5 2.08835 6.79086 0.297485 9 0.297485H26.3367L34.9998 8.25467Z" fill="#6172F3"/>
<g filter="url(#filter0_d_304_7695)">
<path d="M34.9998 8.25467H27.3367C26.7844 8.25467 26.3367 7.80696 26.3367 7.25467V0.297485L34.9998 8.25467Z" fill="#C7D7FE"/>
</g>
<path d="M15.9305 29.1815H13.5725L13.1945 30.2975H11.5835L13.8695 23.9795H15.6515L17.9375 30.2975H16.3085L15.9305 29.1815ZM15.5345 27.9935L14.7515 25.6805L13.9775 27.9935H15.5345ZM20.1722 25.2125V26.4905H22.2332V27.6785H20.1722V29.0645H22.5032V30.2975H18.6332V23.9795H22.5032V25.2125H20.1722ZM28.3173 26.0135C28.3173 26.3795 28.2333 26.7155 28.0653 27.0215C27.8973 27.3215 27.6393 27.5645 27.2913 27.7505C26.9433 27.9365 26.5113 28.0295 25.9953 28.0295H25.0413V30.2975H23.5023V23.9795H25.9953C26.4993 23.9795 26.9253 24.0665 27.2733 24.2405C27.6213 24.4145 27.8823 24.6545 28.0563 24.9605C28.2303 25.2665 28.3173 25.6175 28.3173 26.0135ZM25.8783 26.8055C26.1723 26.8055 26.3913 26.7365 26.5353 26.5985C26.6793 26.4605 26.7513 26.2655 26.7513 26.0135C26.7513 25.7615 26.6793 25.5665 26.5353 25.4285C26.3913 25.2905 26.1723 25.2215 25.8783 25.2215H25.0413V26.8055H25.8783Z" fill="white"/>
</g>
<defs>
<filter id="filter0_d_304_7695" x="23.3367" y="-0.702515" width="12.6631" height="11.9572" filterUnits="userSpaceOnUse" color-interpolation-filters="sRGB">
<feFlood flood-opacity="0" result="BackgroundImageFix"/>
<feColorMatrix in="SourceAlpha" type="matrix" values="0 0 0 0 0 0 0 0 0 0 0 0 0 0 0 0 0 0 127 0" result="hardAlpha"/>
<feOffset dx="-1" dy="1"/>
<feGaussianBlur stdDeviation="1"/>
<feComposite in2="hardAlpha" operator="out"/>
<feColorMatrix type="matrix" values="0 0 0 0 0 0 0 0 0 0 0 0 0 0 0 0 0 0 0.2 0"/>
<feBlend mode="normal" in2="BackgroundImageFix" result="effect1_dropShadow_304_7695"/>
<feBlend mode="normal" in="SourceGraphic" in2="effect1_dropShadow_304_7695" result="shape"/>
</filter>
<clipPath id="clip0_304_7695">
<rect width="40" height="40" fill="white" transform="translate(0 0.297485)"/>
</clipPath>
</defs>
</svg>
