<svg width="16" height="16" viewBox="0 0 16 16" fill="none" xmlns="http://www.w3.org/2000/svg">
<g clip-path="url(#clip0_304_7448)">
<path d="M8 1.33334C4.31999 1.33334 1.33333 4.32 1.33333 8C1.33333 11.68 4.31999 14.6667 8 14.6667C11.68 14.6667 14.6667 11.68 14.6667 8C14.6667 4.32 11.68 1.33334 8 1.33334ZM6.19333 10.86L3.79999 8.46667C3.53999 8.20667 3.53999 7.78667 3.79999 7.52667C4.05999 7.26667 4.48 7.26667 4.74 7.52667L6.66666 9.44667L11.2533 4.86C11.5133 4.6 11.9333 4.6 12.1933 4.86C12.4533 5.12 12.4533 5.54 12.1933 5.8L7.13333 10.86C6.87999 11.12 6.45333 11.12 6.19333 10.86Z" fill="#009933"/>
</g>
<defs>
<clipPath id="clip0_304_7448">
<rect width="16" height="16" fill="white"/>
</clipPath>
</defs>
</svg>
