<svg width="40" height="41" viewBox="0 0 40 41" fill="none" xmlns="http://www.w3.org/2000/svg">
<g clip-path="url(#clip0_304_7593)">
<path d="M34.9998 8.2548V36.2976C34.9998 38.5067 33.209 40.2976 30.9998 40.2976H9C6.79086 40.2976 5 38.5067 5 36.2976V4.29761C5 2.08847 6.79086 0.297607 9 0.297607H26.3367L34.9998 8.2548Z" fill="#2D3282"/>
<g filter="url(#filter0_d_304_7593)">
<path d="M34.9998 8.2548H27.3367C26.7844 8.2548 26.3367 7.80708 26.3367 7.2548V0.297607L34.9998 8.2548Z" fill="#C7D7FE"/>
</g>
<path d="M11.3322 27.1296C11.3322 26.5056 11.4672 25.9506 11.7372 25.4646C12.0072 24.9726 12.3822 24.5916 12.8622 24.3216C13.3482 24.0456 13.8972 23.9076 14.5092 23.9076C15.2592 23.9076 15.9012 24.1056 16.4352 24.5016C16.9692 24.8976 17.3262 25.4376 17.5062 26.1216H15.8142C15.6882 25.8576 15.5082 25.6566 15.2742 25.5186C15.0462 25.3806 14.7852 25.3116 14.4912 25.3116C14.0172 25.3116 13.6332 25.4766 13.3392 25.8066C13.0452 26.1366 12.8982 26.5776 12.8982 27.1296C12.8982 27.6816 13.0452 28.1226 13.3392 28.4526C13.6332 28.7826 14.0172 28.9476 14.4912 28.9476C14.7852 28.9476 15.0462 28.8786 15.2742 28.7406C15.5082 28.6026 15.6882 28.4016 15.8142 28.1376H17.5062C17.3262 28.8216 16.9692 29.3616 16.4352 29.7576C15.9012 30.1476 15.2592 30.3426 14.5092 30.3426C13.8972 30.3426 13.3482 30.2076 12.8622 29.9376C12.3822 29.6616 12.0072 29.2806 11.7372 28.7946C11.4672 28.3086 11.3322 27.7536 11.3322 27.1296ZM20.7346 30.3606C20.2726 30.3606 19.8586 30.2856 19.4926 30.1356C19.1266 29.9856 18.8326 29.7636 18.6106 29.4696C18.3946 29.1756 18.2806 28.8216 18.2686 28.4076H19.9066C19.9306 28.6416 20.0116 28.8216 20.1496 28.9476C20.2876 29.0676 20.4676 29.1276 20.6896 29.1276C20.9176 29.1276 21.0976 29.0766 21.2296 28.9746C21.3616 28.8666 21.4276 28.7196 21.4276 28.5336C21.4276 28.3776 21.3736 28.2486 21.2656 28.1466C21.1636 28.0446 21.0346 27.9606 20.8786 27.8946C20.7286 27.8286 20.5126 27.7536 20.2306 27.6696C19.8226 27.5436 19.4896 27.4176 19.2316 27.2916C18.9736 27.1656 18.7516 26.9796 18.5656 26.7336C18.3796 26.4876 18.2866 26.1666 18.2866 25.7706C18.2866 25.1826 18.4996 24.7236 18.9256 24.3936C19.3516 24.0576 19.9066 23.8896 20.5906 23.8896C21.2866 23.8896 21.8476 24.0576 22.2736 24.3936C22.6996 24.7236 22.9276 25.1856 22.9576 25.7796H21.2926C21.2806 25.5756 21.2056 25.4166 21.0676 25.3026C20.9296 25.1826 20.7526 25.1226 20.5366 25.1226C20.3506 25.1226 20.2006 25.1736 20.0866 25.2756C19.9726 25.3716 19.9156 25.5126 19.9156 25.6986C19.9156 25.9026 20.0116 26.0616 20.2036 26.1756C20.3956 26.2896 20.6956 26.4126 21.1036 26.5446C21.5116 26.6826 21.8416 26.8146 22.0936 26.9406C22.3516 27.0666 22.5736 27.2496 22.7596 27.4896C22.9456 27.7296 23.0386 28.0386 23.0386 28.4166C23.0386 28.7766 22.9456 29.1036 22.7596 29.3976C22.5796 29.6916 22.3156 29.9256 21.9676 30.0996C21.6196 30.2736 21.2086 30.3606 20.7346 30.3606ZM26.2717 30.3606C25.8097 30.3606 25.3957 30.2856 25.0297 30.1356C24.6637 29.9856 24.3697 29.7636 24.1477 29.4696C23.9317 29.1756 23.8177 28.8216 23.8057 28.4076H25.4437C25.4677 28.6416 25.5487 28.8216 25.6867 28.9476C25.8247 29.0676 26.0047 29.1276 26.2267 29.1276C26.4547 29.1276 26.6347 29.0766 26.7667 28.9746C26.8987 28.8666 26.9647 28.7196 26.9647 28.5336C26.9647 28.3776 26.9107 28.2486 26.8027 28.1466C26.7007 28.0446 26.5717 27.9606 26.4157 27.8946C26.2657 27.8286 26.0497 27.7536 25.7677 27.6696C25.3597 27.5436 25.0267 27.4176 24.7687 27.2916C24.5107 27.1656 24.2887 26.9796 24.1027 26.7336C23.9167 26.4876 23.8237 26.1666 23.8237 25.7706C23.8237 25.1826 24.0367 24.7236 24.4627 24.3936C24.8887 24.0576 25.4437 23.8896 26.1277 23.8896C26.8237 23.8896 27.3847 24.0576 27.8107 24.3936C28.2367 24.7236 28.4647 25.1856 28.4947 25.7796H26.8297C26.8177 25.5756 26.7427 25.4166 26.6047 25.3026C26.4667 25.1826 26.2897 25.1226 26.0737 25.1226C25.8877 25.1226 25.7377 25.1736 25.6237 25.2756C25.5097 25.3716 25.4527 25.5126 25.4527 25.6986C25.4527 25.9026 25.5487 26.0616 25.7407 26.1756C25.9327 26.2896 26.2327 26.4126 26.6407 26.5446C27.0487 26.6826 27.3787 26.8146 27.6307 26.9406C27.8887 27.0666 28.1107 27.2496 28.2967 27.4896C28.4827 27.7296 28.5757 28.0386 28.5757 28.4166C28.5757 28.7766 28.4827 29.1036 28.2967 29.3976C28.1167 29.6916 27.8527 29.9256 27.5047 30.0996C27.1567 30.2736 26.7457 30.3606 26.2717 30.3606Z" fill="white"/>
</g>
<defs>
<filter id="filter0_d_304_7593" x="23.3367" y="-0.702393" width="12.6631" height="11.9572" filterUnits="userSpaceOnUse" color-interpolation-filters="sRGB">
<feFlood flood-opacity="0" result="BackgroundImageFix"/>
<feColorMatrix in="SourceAlpha" type="matrix" values="0 0 0 0 0 0 0 0 0 0 0 0 0 0 0 0 0 0 127 0" result="hardAlpha"/>
<feOffset dx="-1" dy="1"/>
<feGaussianBlur stdDeviation="1"/>
<feComposite in2="hardAlpha" operator="out"/>
<feColorMatrix type="matrix" values="0 0 0 0 0 0 0 0 0 0 0 0 0 0 0 0 0 0 0.2 0"/>
<feBlend mode="normal" in2="BackgroundImageFix" result="effect1_dropShadow_304_7593"/>
<feBlend mode="normal" in="SourceGraphic" in2="effect1_dropShadow_304_7593" result="shape"/>
</filter>
<clipPath id="clip0_304_7593">
<rect width="40" height="40" fill="white" transform="translate(0 0.297607)"/>
</clipPath>
</defs>
</svg>
