<svg width="40" height="41" viewBox="0 0 40 41" fill="none" xmlns="http://www.w3.org/2000/svg">
<g clip-path="url(#clip0_304_7707)">
<path d="M34.9998 8.2548V36.2976C34.9998 38.5067 33.209 40.2976 30.9998 40.2976H9C6.79086 40.2976 5 38.5067 5 36.2976V4.29761C5 2.08847 6.79086 0.297607 9 0.297607H26.3367L34.9998 8.2548Z" fill="#2D3282"/>
<g filter="url(#filter0_d_304_7707)">
<path d="M34.9998 8.2548H27.3367C26.7844 8.2548 26.3367 7.80708 26.3367 7.2548V0.297607L34.9998 8.2548Z" fill="#C7D7FE"/>
</g>
<path d="M12.0969 23.9796C12.7629 23.9796 13.3449 24.1116 13.8429 24.3756C14.3409 24.6396 14.7249 25.0116 14.9949 25.4916C15.2709 25.9656 15.4089 26.5146 15.4089 27.1386C15.4089 27.7566 15.2709 28.3056 14.9949 28.7856C14.7249 29.2656 14.3379 29.6376 13.8339 29.9016C13.3359 30.1656 12.7569 30.2976 12.0969 30.2976H9.72988V23.9796H12.0969ZM11.9979 28.9656C12.5799 28.9656 13.0329 28.8066 13.3569 28.4886C13.6809 28.1706 13.8429 27.7206 13.8429 27.1386C13.8429 26.5566 13.6809 26.1036 13.3569 25.7796C13.0329 25.4556 12.5799 25.2936 11.9979 25.2936H11.2689V28.9656H11.9979ZM23.4239 23.9796V30.2976H21.8849V26.5086L20.4719 30.2976H19.2299L17.8079 26.4996V30.2976H16.2689V23.9796H18.0869L19.8599 28.3536L21.6149 23.9796H23.4239ZM28.7247 25.9776C28.6107 25.7676 28.4457 25.6086 28.2297 25.5006C28.0197 25.3866 27.7707 25.3296 27.4827 25.3296C26.9847 25.3296 26.5857 25.4946 26.2857 25.8246C25.9857 26.1486 25.8357 26.5836 25.8357 27.1296C25.8357 27.7116 25.9917 28.1676 26.3037 28.4976C26.6217 28.8216 27.0567 28.9836 27.6087 28.9836C27.9867 28.9836 28.3047 28.8876 28.5627 28.6956C28.8267 28.5036 29.0187 28.2276 29.1387 27.8676H27.1857V26.7336H30.5337V28.1646C30.4197 28.5486 30.2247 28.9056 29.9487 29.2356C29.6787 29.5656 29.3337 29.8326 28.9137 30.0366C28.4937 30.2406 28.0197 30.3426 27.4917 30.3426C26.8677 30.3426 26.3097 30.2076 25.8177 29.9376C25.3317 29.6616 24.9507 29.2806 24.6747 28.7946C24.4047 28.3086 24.2697 27.7536 24.2697 27.1296C24.2697 26.5056 24.4047 25.9506 24.6747 25.4646C24.9507 24.9726 25.3317 24.5916 25.8177 24.3216C26.3037 24.0456 26.8587 23.9076 27.4827 23.9076C28.2387 23.9076 28.8747 24.0906 29.3907 24.4566C29.9127 24.8226 30.2577 25.3296 30.4257 25.9776H28.7247Z" fill="white"/>
</g>
<defs>
<filter id="filter0_d_304_7707" x="23.3367" y="-0.702393" width="12.6631" height="11.9572" filterUnits="userSpaceOnUse" color-interpolation-filters="sRGB">
<feFlood flood-opacity="0" result="BackgroundImageFix"/>
<feColorMatrix in="SourceAlpha" type="matrix" values="0 0 0 0 0 0 0 0 0 0 0 0 0 0 0 0 0 0 127 0" result="hardAlpha"/>
<feOffset dx="-1" dy="1"/>
<feGaussianBlur stdDeviation="1"/>
<feComposite in2="hardAlpha" operator="out"/>
<feColorMatrix type="matrix" values="0 0 0 0 0 0 0 0 0 0 0 0 0 0 0 0 0 0 0.2 0"/>
<feBlend mode="normal" in2="BackgroundImageFix" result="effect1_dropShadow_304_7707"/>
<feBlend mode="normal" in="SourceGraphic" in2="effect1_dropShadow_304_7707" result="shape"/>
</filter>
<clipPath id="clip0_304_7707">
<rect width="40" height="40" fill="white" transform="translate(0 0.297607)"/>
</clipPath>
</defs>
</svg>
