<svg width="16" height="16" viewBox="0 0 16 16" fill="none" xmlns="http://www.w3.org/2000/svg">
<path d="M8 1.33333C4.31999 1.33333 1.33333 4.32 1.33333 8C1.33333 11.68 4.31999 14.6667 8 14.6667C11.68 14.6667 14.6667 11.68 14.6667 8C14.6667 4.32 11.68 1.33333 8 1.33333ZM8 8.66667C7.63333 8.66667 7.33333 8.36667 7.33333 8V5.33333C7.33333 4.96667 7.63333 4.66667 8 4.66667C8.36666 4.66667 8.66666 4.96667 8.66666 5.33333V8C8.66666 8.36667 8.36666 8.66667 8 8.66667ZM8.66666 11.3333H7.33333V10H8.66666V11.3333Z" fill="#E50000"/>
</svg>
