<svg width="40" height="41" viewBox="0 0 40 41" fill="none" xmlns="http://www.w3.org/2000/svg">
<g clip-path="url(#clip0_304_7647)">
<path d="M34.9998 8.2548V36.2976C34.9998 38.5067 33.209 40.2976 30.9998 40.2976H9C6.79086 40.2976 5 38.5067 5 36.2976V4.29761C5 2.08847 6.79086 0.297607 9 0.297607H26.3367L34.9998 8.2548Z" fill="#2D3282"/>
<g filter="url(#filter0_d_304_7647)">
<path d="M34.9998 8.2548H27.3367C26.7844 8.2548 26.3367 7.80708 26.3367 7.2548V0.297607L34.9998 8.2548Z" fill="#C7D7FE"/>
</g>
<path d="M14.0111 25.2126V26.4906H16.0721V27.6786H14.0111V29.0646H16.3421V30.2976H12.4721V23.9796H16.3421V25.2126H14.0111ZM21.2112 30.2976L19.9242 28.3626L18.7902 30.2976H17.0442L19.0692 27.0846L16.9992 23.9796H18.7902L20.0592 25.8876L21.1752 23.9796H22.9212L20.9142 27.1656L23.0022 30.2976H21.2112ZM25.3138 25.2126V26.4906H27.3748V27.6786H25.3138V29.0646H27.6448V30.2976H23.7748V23.9796H27.6448V25.2126H25.3138Z" fill="white"/>
</g>
<defs>
<filter id="filter0_d_304_7647" x="23.3367" y="-0.702393" width="12.6631" height="11.9572" filterUnits="userSpaceOnUse" color-interpolation-filters="sRGB">
<feFlood flood-opacity="0" result="BackgroundImageFix"/>
<feColorMatrix in="SourceAlpha" type="matrix" values="0 0 0 0 0 0 0 0 0 0 0 0 0 0 0 0 0 0 127 0" result="hardAlpha"/>
<feOffset dx="-1" dy="1"/>
<feGaussianBlur stdDeviation="1"/>
<feComposite in2="hardAlpha" operator="out"/>
<feColorMatrix type="matrix" values="0 0 0 0 0 0 0 0 0 0 0 0 0 0 0 0 0 0 0.2 0"/>
<feBlend mode="normal" in2="BackgroundImageFix" result="effect1_dropShadow_304_7647"/>
<feBlend mode="normal" in="SourceGraphic" in2="effect1_dropShadow_304_7647" result="shape"/>
</filter>
<clipPath id="clip0_304_7647">
<rect width="40" height="40" fill="white" transform="translate(0 0.297607)"/>
</clipPath>
</defs>
</svg>
