<svg width="40" height="41" viewBox="0 0 40 41" fill="none" xmlns="http://www.w3.org/2000/svg">
<g clip-path="url(#clip0_304_7611)">
<path d="M34.9998 8.25467V36.2975C34.9998 38.5066 33.209 40.2975 30.9998 40.2975H9C6.79086 40.2975 5 38.5066 5 36.2975V4.29749C5 2.08835 6.79086 0.297485 9 0.297485H26.3367L34.9998 8.25467Z" fill="#6172F3"/>
<g filter="url(#filter0_d_304_7611)">
<path d="M34.9998 8.25467H27.3367C26.7844 8.25467 26.3367 7.80696 26.3367 7.25467V0.297485L34.9998 8.25467Z" fill="#C7D7FE"/>
</g>
<path d="M17.4552 23.9795V25.2125H14.8812V26.5445H16.8072V27.7415H14.8812V30.2975H13.3422V23.9795H17.4552ZM19.8031 23.9795V30.2975H18.2641V23.9795H19.8031ZM25.1124 25.9775C24.9984 25.7675 24.8334 25.6085 24.6174 25.5005C24.4074 25.3865 24.1584 25.3295 23.8704 25.3295C23.3724 25.3295 22.9734 25.4945 22.6734 25.8245C22.3734 26.1485 22.2234 26.5835 22.2234 27.1295C22.2234 27.7115 22.3794 28.1675 22.6914 28.4975C23.0094 28.8215 23.4444 28.9835 23.9964 28.9835C24.3744 28.9835 24.6924 28.8875 24.9504 28.6955C25.2144 28.5035 25.4064 28.2275 25.5264 27.8675H23.5734V26.7335H26.9214V28.1645C26.8074 28.5485 26.6124 28.9055 26.3364 29.2355C26.0664 29.5655 25.7214 29.8325 25.3014 30.0365C24.8814 30.2405 24.4074 30.3425 23.8794 30.3425C23.2554 30.3425 22.6974 30.2075 22.2054 29.9375C21.7194 29.6615 21.3384 29.2805 21.0624 28.7945C20.7924 28.3085 20.6574 27.7535 20.6574 27.1295C20.6574 26.5055 20.7924 25.9505 21.0624 25.4645C21.3384 24.9725 21.7194 24.5915 22.2054 24.3215C22.6914 24.0455 23.2464 23.9075 23.8704 23.9075C24.6264 23.9075 25.2624 24.0905 25.7784 24.4565C26.3004 24.8225 26.6454 25.3295 26.8134 25.9775H25.1124Z" fill="white"/>
</g>
<defs>
<filter id="filter0_d_304_7611" x="23.3367" y="-0.702515" width="12.6631" height="11.9572" filterUnits="userSpaceOnUse" color-interpolation-filters="sRGB">
<feFlood flood-opacity="0" result="BackgroundImageFix"/>
<feColorMatrix in="SourceAlpha" type="matrix" values="0 0 0 0 0 0 0 0 0 0 0 0 0 0 0 0 0 0 127 0" result="hardAlpha"/>
<feOffset dx="-1" dy="1"/>
<feGaussianBlur stdDeviation="1"/>
<feComposite in2="hardAlpha" operator="out"/>
<feColorMatrix type="matrix" values="0 0 0 0 0 0 0 0 0 0 0 0 0 0 0 0 0 0 0.2 0"/>
<feBlend mode="normal" in2="BackgroundImageFix" result="effect1_dropShadow_304_7611"/>
<feBlend mode="normal" in="SourceGraphic" in2="effect1_dropShadow_304_7611" result="shape"/>
</filter>
<clipPath id="clip0_304_7611">
<rect width="40" height="40" fill="white" transform="translate(0 0.297485)"/>
</clipPath>
</defs>
</svg>
