<svg width="40" height="41" viewBox="0 0 40 41" fill="none" xmlns="http://www.w3.org/2000/svg">
<g clip-path="url(#clip0_304_7617)">
<path d="M34.9998 8.2548V36.2976C34.9998 38.5067 33.209 40.2976 30.9998 40.2976H9C6.79086 40.2976 5 38.5067 5 36.2976V4.29761C5 2.08847 6.79086 0.297607 9 0.297607H26.3367L34.9998 8.2548Z" fill="#2D3282"/>
<g filter="url(#filter0_d_304_7617)">
<path d="M34.9998 8.2548H27.3367C26.7844 8.2548 26.3367 7.80708 26.3367 7.2548V0.297607L34.9998 8.2548Z" fill="#C7D7FE"/>
</g>
<path d="M13.8044 23.9796V30.2976H12.2654V27.6966H9.87141V30.2976H8.33241V23.9796H9.87141V26.4546H12.2654V23.9796H13.8044ZM19.4604 23.9796V25.2126H17.7864V30.2976H16.2474V25.2126H14.5734V23.9796H19.4604ZM27.3878 23.9796V30.2976H25.8488V26.5086L24.4358 30.2976H23.1938L21.7718 26.4996V30.2976H20.2328V23.9796H22.0508L23.8238 28.3536L25.5788 23.9796H27.3878ZM30.0335 29.1096H32.0495V30.2976H28.4945V23.9796H30.0335V29.1096Z" fill="white"/>
</g>
<defs>
<filter id="filter0_d_304_7617" x="23.3367" y="-0.702393" width="12.6631" height="11.9572" filterUnits="userSpaceOnUse" color-interpolation-filters="sRGB">
<feFlood flood-opacity="0" result="BackgroundImageFix"/>
<feColorMatrix in="SourceAlpha" type="matrix" values="0 0 0 0 0 0 0 0 0 0 0 0 0 0 0 0 0 0 127 0" result="hardAlpha"/>
<feOffset dx="-1" dy="1"/>
<feGaussianBlur stdDeviation="1"/>
<feComposite in2="hardAlpha" operator="out"/>
<feColorMatrix type="matrix" values="0 0 0 0 0 0 0 0 0 0 0 0 0 0 0 0 0 0 0.2 0"/>
<feBlend mode="normal" in2="BackgroundImageFix" result="effect1_dropShadow_304_7617"/>
<feBlend mode="normal" in="SourceGraphic" in2="effect1_dropShadow_304_7617" result="shape"/>
</filter>
<clipPath id="clip0_304_7617">
<rect width="40" height="40" fill="white" transform="translate(0 0.297607)"/>
</clipPath>
</defs>
</svg>
