<svg width="40" height="41" viewBox="0 0 40 41" fill="none" xmlns="http://www.w3.org/2000/svg">
<g clip-path="url(#clip0_304_7635)">
<path d="M34.9998 8.25467V36.2975C34.9998 38.5066 33.209 40.2975 30.9998 40.2975H9C6.79086 40.2975 5 38.5066 5 36.2975V4.29749C5 2.08835 6.79086 0.297485 9 0.297485H26.3367L34.9998 8.25467Z" fill="#6172F3"/>
<g filter="url(#filter0_d_304_7635)">
<path d="M34.9998 8.25467H27.3367C26.7844 8.25467 26.3367 7.80696 26.3367 7.25467V0.297485L34.9998 8.25467Z" fill="#C7D7FE"/>
</g>
<path d="M10.847 23.9795V30.2975H9.308V23.9795H10.847ZM17.6143 30.2975H16.0753L13.5013 26.4005V30.2975H11.9623V23.9795H13.5013L16.0753 27.8945V23.9795H17.6143V30.2975ZM21.0969 23.9795C21.7629 23.9795 22.3449 24.1115 22.8429 24.3755C23.3409 24.6395 23.7249 25.0115 23.9949 25.4915C24.2709 25.9655 24.4089 26.5145 24.4089 27.1385C24.4089 27.7565 24.2709 28.3055 23.9949 28.7855C23.7249 29.2655 23.3379 29.6375 22.8339 29.9015C22.3359 30.1655 21.7569 30.2975 21.0969 30.2975H18.7299V23.9795H21.0969ZM20.9979 28.9655C21.5799 28.9655 22.0329 28.8065 22.3569 28.4885C22.6809 28.1705 22.8429 27.7205 22.8429 27.1385C22.8429 26.5565 22.6809 26.1035 22.3569 25.7795C22.0329 25.4555 21.5799 25.2935 20.9979 25.2935H20.2689V28.9655H20.9979ZM27.6359 23.9795C28.3019 23.9795 28.8839 24.1115 29.3819 24.3755C29.8799 24.6395 30.2639 25.0115 30.5339 25.4915C30.8099 25.9655 30.9479 26.5145 30.9479 27.1385C30.9479 27.7565 30.8099 28.3055 30.5339 28.7855C30.2639 29.2655 29.8769 29.6375 29.3729 29.9015C28.8749 30.1655 28.2959 30.2975 27.6359 30.2975H25.2689V23.9795H27.6359ZM27.5369 28.9655C28.1189 28.9655 28.5719 28.8065 28.8959 28.4885C29.2199 28.1705 29.3819 27.7205 29.3819 27.1385C29.3819 26.5565 29.2199 26.1035 28.8959 25.7795C28.5719 25.4555 28.1189 25.2935 27.5369 25.2935H26.8079V28.9655H27.5369Z" fill="white"/>
</g>
<defs>
<filter id="filter0_d_304_7635" x="23.3367" y="-0.702515" width="12.6631" height="11.9572" filterUnits="userSpaceOnUse" color-interpolation-filters="sRGB">
<feFlood flood-opacity="0" result="BackgroundImageFix"/>
<feColorMatrix in="SourceAlpha" type="matrix" values="0 0 0 0 0 0 0 0 0 0 0 0 0 0 0 0 0 0 127 0" result="hardAlpha"/>
<feOffset dx="-1" dy="1"/>
<feGaussianBlur stdDeviation="1"/>
<feComposite in2="hardAlpha" operator="out"/>
<feColorMatrix type="matrix" values="0 0 0 0 0 0 0 0 0 0 0 0 0 0 0 0 0 0 0.2 0"/>
<feBlend mode="normal" in2="BackgroundImageFix" result="effect1_dropShadow_304_7635"/>
<feBlend mode="normal" in="SourceGraphic" in2="effect1_dropShadow_304_7635" result="shape"/>
</filter>
<clipPath id="clip0_304_7635">
<rect width="40" height="40" fill="white" transform="translate(0 0.297485)"/>
</clipPath>
</defs>
</svg>
