<svg width="40" height="41" viewBox="0 0 40 41" fill="none" xmlns="http://www.w3.org/2000/svg">
<g clip-path="url(#clip0_304_7599)">
<path d="M34.9998 8.2548V36.2976C34.9998 38.5067 33.209 40.2976 30.9998 40.2976H9C6.79086 40.2976 5 38.5067 5 36.2976V4.29761C5 2.08847 6.79086 0.297607 9 0.297607H26.3367L34.9998 8.2548Z" fill="#2D3282"/>
<g filter="url(#filter0_d_304_7599)">
<path d="M34.9998 8.2548H27.3367C26.7844 8.2548 26.3367 7.80708 26.3367 7.2548V0.297607L34.9998 8.2548Z" fill="#C7D7FE"/>
</g>
<path d="M11.9936 23.9796V28.2816C11.9936 28.9476 11.8046 29.4606 11.4266 29.8206C11.0546 30.1806 10.5506 30.3606 9.91459 30.3606C9.24859 30.3606 8.71459 30.1716 8.31259 29.7936C7.91059 29.4156 7.70959 28.8786 7.70959 28.1826H9.23959C9.23959 28.4466 9.29359 28.6476 9.40159 28.7856C9.50959 28.9176 9.66559 28.9836 9.86959 28.9836C10.0556 28.9836 10.1996 28.9236 10.3016 28.8036C10.4036 28.6836 10.4546 28.5096 10.4546 28.2816V23.9796H11.9936ZM17.1697 29.1816H14.8117L14.4337 30.2976H12.8227L15.1087 23.9796H16.8907L19.1767 30.2976H17.5477L17.1697 29.1816ZM16.7737 27.9936L15.9907 25.6806L15.2167 27.9936H16.7737ZM25.8035 23.9796L23.5625 30.2976H21.6365L19.3955 23.9796H21.0335L22.5995 28.7496L24.1745 23.9796H25.8035ZM30.3797 29.1816H28.0217L27.6437 30.2976H26.0327L28.3187 23.9796H30.1007L32.3867 30.2976H30.7577L30.3797 29.1816ZM29.9837 27.9936L29.2007 25.6806L28.4267 27.9936H29.9837Z" fill="white"/>
</g>
<defs>
<filter id="filter0_d_304_7599" x="23.3367" y="-0.702393" width="12.6631" height="11.9572" filterUnits="userSpaceOnUse" color-interpolation-filters="sRGB">
<feFlood flood-opacity="0" result="BackgroundImageFix"/>
<feColorMatrix in="SourceAlpha" type="matrix" values="0 0 0 0 0 0 0 0 0 0 0 0 0 0 0 0 0 0 127 0" result="hardAlpha"/>
<feOffset dx="-1" dy="1"/>
<feGaussianBlur stdDeviation="1"/>
<feComposite in2="hardAlpha" operator="out"/>
<feColorMatrix type="matrix" values="0 0 0 0 0 0 0 0 0 0 0 0 0 0 0 0 0 0 0.2 0"/>
<feBlend mode="normal" in2="BackgroundImageFix" result="effect1_dropShadow_304_7599"/>
<feBlend mode="normal" in="SourceGraphic" in2="effect1_dropShadow_304_7599" result="shape"/>
</filter>
<clipPath id="clip0_304_7599">
<rect width="40" height="40" fill="white" transform="translate(0 0.297607)"/>
</clipPath>
</defs>
</svg>
