<svg width="40" height="41" viewBox="0 0 40 41" fill="none" xmlns="http://www.w3.org/2000/svg">
<g clip-path="url(#clip0_304_7701)">
<path d="M34.9998 8.2548V36.2976C34.9998 38.5067 33.209 40.2976 30.9998 40.2976H9C6.79086 40.2976 5 38.5067 5 36.2976V4.29761C5 2.08847 6.79086 0.297607 9 0.297607H26.3367L34.9998 8.2548Z" fill="#2D3282"/>
<g filter="url(#filter0_d_304_7701)">
<path d="M34.9998 8.2548H27.3367C26.7844 8.2548 26.3367 7.80708 26.3367 7.2548V0.297607L34.9998 8.2548Z" fill="#C7D7FE"/>
</g>
<path d="M19.1479 23.9796V28.2816C19.1479 28.9476 18.9589 29.4606 18.5809 29.8206C18.2089 30.1806 17.7049 30.3606 17.0689 30.3606C16.4029 30.3606 15.8689 30.1716 15.4669 29.7936C15.0649 29.4156 14.8639 28.8786 14.8639 28.1826H16.3939C16.3939 28.4466 16.4479 28.6476 16.5559 28.7856C16.6639 28.9176 16.8199 28.9836 17.0239 28.9836C17.2099 28.9836 17.3539 28.9236 17.4559 28.8036C17.5579 28.6836 17.6089 28.5096 17.6089 28.2816V23.9796H19.1479ZM22.677 30.3606C22.215 30.3606 21.801 30.2856 21.435 30.1356C21.069 29.9856 20.775 29.7636 20.553 29.4696C20.337 29.1756 20.223 28.8216 20.211 28.4076H21.849C21.873 28.6416 21.954 28.8216 22.092 28.9476C22.23 29.0676 22.41 29.1276 22.632 29.1276C22.86 29.1276 23.04 29.0766 23.172 28.9746C23.304 28.8666 23.37 28.7196 23.37 28.5336C23.37 28.3776 23.316 28.2486 23.208 28.1466C23.106 28.0446 22.977 27.9606 22.821 27.8946C22.671 27.8286 22.455 27.7536 22.173 27.6696C21.765 27.5436 21.432 27.4176 21.174 27.2916C20.916 27.1656 20.694 26.9796 20.508 26.7336C20.322 26.4876 20.229 26.1666 20.229 25.7706C20.229 25.1826 20.442 24.7236 20.868 24.3936C21.294 24.0576 21.849 23.8896 22.533 23.8896C23.229 23.8896 23.79 24.0576 24.216 24.3936C24.642 24.7236 24.87 25.1856 24.9 25.7796H23.235C23.223 25.5756 23.148 25.4166 23.01 25.3026C22.872 25.1826 22.695 25.1226 22.479 25.1226C22.293 25.1226 22.143 25.1736 22.029 25.2756C21.915 25.3716 21.858 25.5126 21.858 25.6986C21.858 25.9026 21.954 26.0616 22.146 26.1756C22.338 26.2896 22.638 26.4126 23.046 26.5446C23.454 26.6826 23.784 26.8146 24.036 26.9406C24.294 27.0666 24.516 27.2496 24.702 27.4896C24.888 27.7296 24.981 28.0386 24.981 28.4166C24.981 28.7766 24.888 29.1036 24.702 29.3976C24.522 29.6916 24.258 29.9256 23.91 30.0996C23.562 30.2736 23.151 30.3606 22.677 30.3606Z" fill="white"/>
</g>
<defs>
<filter id="filter0_d_304_7701" x="23.3367" y="-0.702393" width="12.6631" height="11.9572" filterUnits="userSpaceOnUse" color-interpolation-filters="sRGB">
<feFlood flood-opacity="0" result="BackgroundImageFix"/>
<feColorMatrix in="SourceAlpha" type="matrix" values="0 0 0 0 0 0 0 0 0 0 0 0 0 0 0 0 0 0 127 0" result="hardAlpha"/>
<feOffset dx="-1" dy="1"/>
<feGaussianBlur stdDeviation="1"/>
<feComposite in2="hardAlpha" operator="out"/>
<feColorMatrix type="matrix" values="0 0 0 0 0 0 0 0 0 0 0 0 0 0 0 0 0 0 0.2 0"/>
<feBlend mode="normal" in2="BackgroundImageFix" result="effect1_dropShadow_304_7701"/>
<feBlend mode="normal" in="SourceGraphic" in2="effect1_dropShadow_304_7701" result="shape"/>
</filter>
<clipPath id="clip0_304_7701">
<rect width="40" height="40" fill="white" transform="translate(0 0.297607)"/>
</clipPath>
</defs>
</svg>
