<svg width="40" height="41" viewBox="0 0 40 41" fill="none" xmlns="http://www.w3.org/2000/svg">
<g clip-path="url(#clip0_304_7623)">
<path d="M34.9998 8.2548V36.2976C34.9998 38.5067 33.209 40.2976 30.9998 40.2976H9C6.79086 40.2976 5 38.5067 5 36.2976V4.29761C5 2.08847 6.79086 0.297607 9 0.297607H26.3367L34.9998 8.2548Z" fill="#2D3282"/>
<g filter="url(#filter0_d_304_7623)">
<path d="M34.9998 8.2548H27.3367C26.7844 8.2548 26.3367 7.80708 26.3367 7.2548V0.297607L34.9998 8.2548Z" fill="#C7D7FE"/>
</g>
<path d="M12.2265 23.9796V28.2816C12.2265 28.9476 12.0375 29.4606 11.6595 29.8206C11.2875 30.1806 10.7835 30.3606 10.1475 30.3606C9.4815 30.3606 8.9475 30.1716 8.5455 29.7936C8.1435 29.4156 7.9425 28.8786 7.9425 28.1826H9.4725C9.4725 28.4466 9.5265 28.6476 9.6345 28.7856C9.7425 28.9176 9.8985 28.9836 10.1025 28.9836C10.2885 28.9836 10.4325 28.9236 10.5345 28.8036C10.6365 28.6836 10.6875 28.5096 10.6875 28.2816V23.9796H12.2265ZM15.7556 30.3606C15.2936 30.3606 14.8796 30.2856 14.5136 30.1356C14.1476 29.9856 13.8536 29.7636 13.6316 29.4696C13.4156 29.1756 13.3016 28.8216 13.2896 28.4076H14.9276C14.9516 28.6416 15.0326 28.8216 15.1706 28.9476C15.3086 29.0676 15.4886 29.1276 15.7106 29.1276C15.9386 29.1276 16.1186 29.0766 16.2506 28.9746C16.3826 28.8666 16.4486 28.7196 16.4486 28.5336C16.4486 28.3776 16.3946 28.2486 16.2866 28.1466C16.1846 28.0446 16.0556 27.9606 15.8996 27.8946C15.7496 27.8286 15.5336 27.7536 15.2516 27.6696C14.8436 27.5436 14.5106 27.4176 14.2526 27.2916C13.9946 27.1656 13.7726 26.9796 13.5866 26.7336C13.4006 26.4876 13.3076 26.1666 13.3076 25.7706C13.3076 25.1826 13.5206 24.7236 13.9466 24.3936C14.3726 24.0576 14.9276 23.8896 15.6116 23.8896C16.3076 23.8896 16.8686 24.0576 17.2946 24.3936C17.7206 24.7236 17.9486 25.1856 17.9786 25.7796H16.3136C16.3016 25.5756 16.2266 25.4166 16.0886 25.3026C15.9506 25.1826 15.7736 25.1226 15.5576 25.1226C15.3716 25.1226 15.2216 25.1736 15.1076 25.2756C14.9936 25.3716 14.9366 25.5126 14.9366 25.6986C14.9366 25.9026 15.0326 26.0616 15.2246 26.1756C15.4166 26.2896 15.7166 26.4126 16.1246 26.5446C16.5326 26.6826 16.8626 26.8146 17.1146 26.9406C17.3726 27.0666 17.5946 27.2496 17.7806 27.4896C17.9666 27.7296 18.0596 28.0386 18.0596 28.4166C18.0596 28.7766 17.9666 29.1036 17.7806 29.3976C17.6006 29.6916 17.3366 29.9256 16.9886 30.0996C16.6406 30.2736 16.2296 30.3606 15.7556 30.3606ZM21.9947 30.3606C21.4007 30.3606 20.8547 30.2226 20.3567 29.9466C19.8647 29.6706 19.4717 29.2866 19.1777 28.7946C18.8897 28.2966 18.7457 27.7386 18.7457 27.1206C18.7457 26.5026 18.8897 25.9476 19.1777 25.4556C19.4717 24.9636 19.8647 24.5796 20.3567 24.3036C20.8547 24.0276 21.4007 23.8896 21.9947 23.8896C22.5887 23.8896 23.1317 24.0276 23.6237 24.3036C24.1217 24.5796 24.5117 24.9636 24.7937 25.4556C25.0817 25.9476 25.2257 26.5026 25.2257 27.1206C25.2257 27.7386 25.0817 28.2966 24.7937 28.7946C24.5057 29.2866 24.1157 29.6706 23.6237 29.9466C23.1317 30.2226 22.5887 30.3606 21.9947 30.3606ZM21.9947 28.9566C22.4987 28.9566 22.9007 28.7886 23.2007 28.4526C23.5067 28.1166 23.6597 27.6726 23.6597 27.1206C23.6597 26.5626 23.5067 26.1186 23.2007 25.7886C22.9007 25.4526 22.4987 25.2846 21.9947 25.2846C21.4847 25.2846 21.0767 25.4496 20.7707 25.7796C20.4707 26.1096 20.3207 26.5566 20.3207 27.1206C20.3207 27.6786 20.4707 28.1256 20.7707 28.4616C21.0767 28.7916 21.4847 28.9566 21.9947 28.9566ZM31.7339 30.2976H30.1949L27.6209 26.4006V30.2976H26.0819V23.9796H27.6209L30.1949 27.8946V23.9796H31.7339V30.2976Z" fill="white"/>
</g>
<defs>
<filter id="filter0_d_304_7623" x="23.3367" y="-0.702393" width="12.6631" height="11.9572" filterUnits="userSpaceOnUse" color-interpolation-filters="sRGB">
<feFlood flood-opacity="0" result="BackgroundImageFix"/>
<feColorMatrix in="SourceAlpha" type="matrix" values="0 0 0 0 0 0 0 0 0 0 0 0 0 0 0 0 0 0 127 0" result="hardAlpha"/>
<feOffset dx="-1" dy="1"/>
<feGaussianBlur stdDeviation="1"/>
<feComposite in2="hardAlpha" operator="out"/>
<feColorMatrix type="matrix" values="0 0 0 0 0 0 0 0 0 0 0 0 0 0 0 0 0 0 0.2 0"/>
<feBlend mode="normal" in2="BackgroundImageFix" result="effect1_dropShadow_304_7623"/>
<feBlend mode="normal" in="SourceGraphic" in2="effect1_dropShadow_304_7623" result="shape"/>
</filter>
<clipPath id="clip0_304_7623">
<rect width="40" height="40" fill="white" transform="translate(0 0.297607)"/>
</clipPath>
</defs>
</svg>
