<svg width="40" height="41" viewBox="0 0 40 41" fill="none" xmlns="http://www.w3.org/2000/svg">
<g clip-path="url(#clip0_304_7719)">
<path d="M34.9998 8.25467V36.2975C34.9998 38.5066 33.209 40.2975 30.9998 40.2975H9C6.79086 40.2975 5 38.5066 5 36.2975V4.29749C5 2.08835 6.79086 0.297485 9 0.297485H26.3367L34.9998 8.25467Z" fill="#FDB022"/>
<g filter="url(#filter0_d_304_7719)">
<path d="M34.9998 8.25467H27.3367C26.7844 8.25467 26.3367 7.80696 26.3367 7.25467V0.297485L34.9998 8.25467Z" fill="#FEC84B"/>
</g>
<path d="M17.1573 23.9795V30.2975H15.6183V26.5085L14.2053 30.2975H12.9633L11.5413 26.4995V30.2975H10.0023V23.9795H11.8203L13.5933 28.3535L15.3483 23.9795H17.1573ZM21.9271 30.2975L19.8031 27.5075V30.2975H18.2641V23.9795H19.8031V26.7515L21.9091 23.9795H23.7181L21.2701 27.0755L23.8081 30.2975H21.9271ZM30.4704 23.9795L28.2294 30.2975H26.3034L24.0624 23.9795H25.7004L27.2664 28.7495L28.8414 23.9795H30.4704Z" fill="white"/>
</g>
<defs>
<filter id="filter0_d_304_7719" x="23.3367" y="-0.702515" width="12.6631" height="11.9572" filterUnits="userSpaceOnUse" color-interpolation-filters="sRGB">
<feFlood flood-opacity="0" result="BackgroundImageFix"/>
<feColorMatrix in="SourceAlpha" type="matrix" values="0 0 0 0 0 0 0 0 0 0 0 0 0 0 0 0 0 0 127 0" result="hardAlpha"/>
<feOffset dx="-1" dy="1"/>
<feGaussianBlur stdDeviation="1"/>
<feComposite in2="hardAlpha" operator="out"/>
<feColorMatrix type="matrix" values="0 0 0 0 0 0 0 0 0 0 0 0 0 0 0 0 0 0 0.2 0"/>
<feBlend mode="normal" in2="BackgroundImageFix" result="effect1_dropShadow_304_7719"/>
<feBlend mode="normal" in="SourceGraphic" in2="effect1_dropShadow_304_7719" result="shape"/>
</filter>
<clipPath id="clip0_304_7719">
<rect width="40" height="40" fill="white" transform="translate(0 0.297485)"/>
</clipPath>
</defs>
</svg>
