<svg width="40" height="41" viewBox="0 0 40 41" fill="none" xmlns="http://www.w3.org/2000/svg">
<g clip-path="url(#clip0_304_7629)">
<path d="M34.9998 8.25467V36.2975C34.9998 38.5066 33.209 40.2975 30.9998 40.2975H9C6.79086 40.2975 5 38.5066 5 36.2975V4.29749C5 2.08835 6.79086 0.297485 9 0.297485H26.3367L34.9998 8.25467Z" fill="#DC6803"/>
<g filter="url(#filter0_d_304_7629)">
<path d="M34.9998 8.25467H27.3367C26.7844 8.25467 26.3367 7.80696 26.3367 7.25467V0.297485L34.9998 8.25467Z" fill="#F79009"/>
</g>
<path d="M18.0494 23.9795V30.2975H16.5104V26.5085L15.0974 30.2975H13.8554L12.4334 26.4995V30.2975H10.8944V23.9795H12.7124L14.4854 28.3535L16.2404 23.9795H18.0494ZM23.9711 26.0135C23.9711 26.3795 23.8871 26.7155 23.7191 27.0215C23.5511 27.3215 23.2931 27.5645 22.9451 27.7505C22.5971 27.9365 22.1651 28.0295 21.6491 28.0295H20.6951V30.2975H19.1561V23.9795H21.6491C22.1531 23.9795 22.5791 24.0665 22.9271 24.2405C23.2751 24.4145 23.5361 24.6545 23.7101 24.9605C23.8841 25.2665 23.9711 25.6175 23.9711 26.0135ZM21.5321 26.8055C21.8261 26.8055 22.0451 26.7365 22.1891 26.5985C22.3331 26.4605 22.4051 26.2655 22.4051 26.0135C22.4051 25.7615 22.3331 25.5665 22.1891 25.4285C22.0451 25.2905 21.8261 25.2215 21.5321 25.2215H20.6951V26.8055H21.5321ZM24.6734 25.5815C24.6974 24.9395 24.9074 24.4445 25.3034 24.0965C25.6994 23.7485 26.2364 23.5745 26.9144 23.5745C27.3644 23.5745 27.7484 23.6525 28.0664 23.8085C28.3904 23.9645 28.6334 24.1775 28.7954 24.4475C28.9634 24.7175 29.0474 25.0205 29.0474 25.3565C29.0474 25.7525 28.9484 26.0765 28.7504 26.3285C28.5524 26.5745 28.3214 26.7425 28.0574 26.8325V26.8685C28.3994 26.9825 28.6694 27.1715 28.8674 27.4355C29.0654 27.6995 29.1644 28.0385 29.1644 28.4525C29.1644 28.8245 29.0774 29.1545 28.9034 29.4425C28.7354 29.7245 28.4864 29.9465 28.1564 30.1085C27.8324 30.2705 27.4454 30.3515 26.9954 30.3515C26.2754 30.3515 25.6994 30.1745 25.2674 29.8205C24.8414 29.4665 24.6164 28.9325 24.5924 28.2185H26.0864C26.0924 28.4825 26.1674 28.6925 26.3114 28.8485C26.4554 28.9985 26.6654 29.0735 26.9414 29.0735C27.1754 29.0735 27.3554 29.0075 27.4814 28.8755C27.6134 28.7375 27.6794 28.5575 27.6794 28.3355C27.6794 28.0475 27.5864 27.8405 27.4004 27.7145C27.2204 27.5825 26.9294 27.5165 26.5274 27.5165H26.2394V26.2655H26.5274C26.8334 26.2655 27.0794 26.2145 27.2654 26.1125C27.4574 26.0045 27.5534 25.8155 27.5534 25.5455C27.5534 25.3295 27.4934 25.1615 27.3734 25.0415C27.2534 24.9215 27.0884 24.8615 26.8784 24.8615C26.6504 24.8615 26.4794 24.9305 26.3654 25.0685C26.2574 25.2065 26.1944 25.3775 26.1764 25.5815H24.6734Z" fill="white"/>
</g>
<defs>
<filter id="filter0_d_304_7629" x="23.3367" y="-0.702515" width="12.6631" height="11.9572" filterUnits="userSpaceOnUse" color-interpolation-filters="sRGB">
<feFlood flood-opacity="0" result="BackgroundImageFix"/>
<feColorMatrix in="SourceAlpha" type="matrix" values="0 0 0 0 0 0 0 0 0 0 0 0 0 0 0 0 0 0 127 0" result="hardAlpha"/>
<feOffset dx="-1" dy="1"/>
<feGaussianBlur stdDeviation="1"/>
<feComposite in2="hardAlpha" operator="out"/>
<feColorMatrix type="matrix" values="0 0 0 0 0 0 0 0 0 0 0 0 0 0 0 0 0 0 0.2 0"/>
<feBlend mode="normal" in2="BackgroundImageFix" result="effect1_dropShadow_304_7629"/>
<feBlend mode="normal" in="SourceGraphic" in2="effect1_dropShadow_304_7629" result="shape"/>
</filter>
<clipPath id="clip0_304_7629">
<rect width="40" height="40" fill="white" transform="translate(0 0.297485)"/>
</clipPath>
</defs>
</svg>
