<svg width="40" height="41" viewBox="0 0 40 41" fill="none" xmlns="http://www.w3.org/2000/svg">
<g clip-path="url(#clip0_304_7689)">
<path d="M34.9998 8.25467V36.2975C34.9998 38.5066 33.209 40.2975 30.9998 40.2975H9C6.79086 40.2975 5 38.5066 5 36.2975V4.29749C5 2.08835 6.79086 0.297485 9 0.297485H26.3367L34.9998 8.25467Z" fill="#FDB022"/>
<g filter="url(#filter0_d_304_7689)">
<path d="M34.9998 8.25467H27.3367C26.7844 8.25467 26.3367 7.80696 26.3367 7.25467V0.297485L34.9998 8.25467Z" fill="#FEC84B"/>
</g>
<path d="M17.7286 23.9795V30.2975H16.1896V26.5085L14.7766 30.2975H13.5346L12.1126 26.4995V30.2975H10.5736V23.9795H12.3916L14.1646 28.3535L15.9196 23.9795H17.7286ZM23.6503 26.0135C23.6503 26.3795 23.5663 26.7155 23.3983 27.0215C23.2303 27.3215 22.9723 27.5645 22.6243 27.7505C22.2763 27.9365 21.8443 28.0295 21.3283 28.0295H20.3743V30.2975H18.8353V23.9795H21.3283C21.8323 23.9795 22.2583 24.0665 22.6063 24.2405C22.9543 24.4145 23.2153 24.6545 23.3893 24.9605C23.5633 25.2665 23.6503 25.6175 23.6503 26.0135ZM21.2113 26.8055C21.5053 26.8055 21.7243 26.7365 21.8683 26.5985C22.0123 26.4605 22.0843 26.2655 22.0843 26.0135C22.0843 25.7615 22.0123 25.5665 21.8683 25.4285C21.7243 25.2905 21.5053 25.2215 21.2113 25.2215H20.3743V26.8055H21.2113ZM24.3346 29.1275V27.8855L27.1786 23.8175H28.8976V27.7955H29.6356V29.1275H28.8976V30.2975H27.3586V29.1275H24.3346ZM27.4666 25.5095L25.9546 27.7955H27.4666V25.5095Z" fill="white"/>
</g>
<defs>
<filter id="filter0_d_304_7689" x="23.3367" y="-0.702515" width="12.6631" height="11.9572" filterUnits="userSpaceOnUse" color-interpolation-filters="sRGB">
<feFlood flood-opacity="0" result="BackgroundImageFix"/>
<feColorMatrix in="SourceAlpha" type="matrix" values="0 0 0 0 0 0 0 0 0 0 0 0 0 0 0 0 0 0 127 0" result="hardAlpha"/>
<feOffset dx="-1" dy="1"/>
<feGaussianBlur stdDeviation="1"/>
<feComposite in2="hardAlpha" operator="out"/>
<feColorMatrix type="matrix" values="0 0 0 0 0 0 0 0 0 0 0 0 0 0 0 0 0 0 0.2 0"/>
<feBlend mode="normal" in2="BackgroundImageFix" result="effect1_dropShadow_304_7689"/>
<feBlend mode="normal" in="SourceGraphic" in2="effect1_dropShadow_304_7689" result="shape"/>
</filter>
<clipPath id="clip0_304_7689">
<rect width="40" height="40" fill="white" transform="translate(0 0.297485)"/>
</clipPath>
</defs>
</svg>
