<svg width="40" height="41" viewBox="0 0 40 41" fill="none" xmlns="http://www.w3.org/2000/svg">
<g clip-path="url(#clip0_304_7653)">
<path d="M34.9998 8.25467V36.2975C34.9998 38.5066 33.209 40.2975 30.9998 40.2975H9C6.79086 40.2975 5 38.5066 5 36.2975V4.29749C5 2.08835 6.79086 0.297485 9 0.297485H26.3367L34.9998 8.25467Z" fill="#FDB022"/>
<g filter="url(#filter0_d_304_7653)">
<path d="M34.9998 8.25467H27.3367C26.7844 8.25467 26.3367 7.80696 26.3367 7.25467V0.297485L34.9998 8.25467Z" fill="#FEC84B"/>
</g>
<path d="M14.9117 23.9795V30.2975H13.3727V26.5085L11.9597 30.2975H10.7177L9.29573 26.4995V30.2975H7.75673V23.9795H9.57473L11.3477 28.3535L13.1027 23.9795H14.9117ZM20.8334 26.0135C20.8334 26.3795 20.7494 26.7155 20.5814 27.0215C20.4134 27.3215 20.1554 27.5645 19.8074 27.7505C19.4594 27.9365 19.0274 28.0295 18.5114 28.0295H17.5574V30.2975H16.0184V23.9795H18.5114C19.0154 23.9795 19.4414 24.0665 19.7894 24.2405C20.1374 24.4145 20.3984 24.6545 20.5724 24.9605C20.7464 25.2665 20.8334 25.6175 20.8334 26.0135ZM18.3944 26.8055C18.6884 26.8055 18.9074 26.7365 19.0514 26.5985C19.1954 26.4605 19.2674 26.2655 19.2674 26.0135C19.2674 25.7615 19.1954 25.5665 19.0514 25.4285C18.9074 25.2905 18.6884 25.2215 18.3944 25.2215H17.5574V26.8055H18.3944ZM23.1737 25.2125V26.4905H25.2347V27.6785H23.1737V29.0645H25.5047V30.2975H21.6347V23.9795H25.5047V25.2125H23.1737ZM30.6978 25.9775C30.5838 25.7675 30.4188 25.6085 30.2028 25.5005C29.9928 25.3865 29.7438 25.3295 29.4558 25.3295C28.9578 25.3295 28.5588 25.4945 28.2588 25.8245C27.9588 26.1485 27.8088 26.5835 27.8088 27.1295C27.8088 27.7115 27.9648 28.1675 28.2768 28.4975C28.5948 28.8215 29.0298 28.9835 29.5818 28.9835C29.9598 28.9835 30.2778 28.8875 30.5358 28.6955C30.7998 28.5035 30.9918 28.2275 31.1118 27.8675H29.1588V26.7335H32.5068V28.1645C32.3928 28.5485 32.1978 28.9055 31.9218 29.2355C31.6518 29.5655 31.3068 29.8325 30.8868 30.0365C30.4668 30.2405 29.9928 30.3425 29.4648 30.3425C28.8408 30.3425 28.2828 30.2075 27.7908 29.9375C27.3048 29.6615 26.9238 29.2805 26.6478 28.7945C26.3778 28.3085 26.2428 27.7535 26.2428 27.1295C26.2428 26.5055 26.3778 25.9505 26.6478 25.4645C26.9238 24.9725 27.3048 24.5915 27.7908 24.3215C28.2768 24.0455 28.8318 23.9075 29.4558 23.9075C30.2118 23.9075 30.8478 24.0905 31.3638 24.4565C31.8858 24.8225 32.2308 25.3295 32.3988 25.9775H30.6978Z" fill="white"/>
</g>
<defs>
<filter id="filter0_d_304_7653" x="23.3367" y="-0.702515" width="12.6631" height="11.9572" filterUnits="userSpaceOnUse" color-interpolation-filters="sRGB">
<feFlood flood-opacity="0" result="BackgroundImageFix"/>
<feColorMatrix in="SourceAlpha" type="matrix" values="0 0 0 0 0 0 0 0 0 0 0 0 0 0 0 0 0 0 127 0" result="hardAlpha"/>
<feOffset dx="-1" dy="1"/>
<feGaussianBlur stdDeviation="1"/>
<feComposite in2="hardAlpha" operator="out"/>
<feColorMatrix type="matrix" values="0 0 0 0 0 0 0 0 0 0 0 0 0 0 0 0 0 0 0.2 0"/>
<feBlend mode="normal" in2="BackgroundImageFix" result="effect1_dropShadow_304_7653"/>
<feBlend mode="normal" in="SourceGraphic" in2="effect1_dropShadow_304_7653" result="shape"/>
</filter>
<clipPath id="clip0_304_7653">
<rect width="40" height="40" fill="white" transform="translate(0 0.297485)"/>
</clipPath>
</defs>
</svg>
