<svg width="40" height="41" viewBox="0 0 40 41" fill="none" xmlns="http://www.w3.org/2000/svg">
<g clip-path="url(#clip0_304_7671)">
<path d="M34.9998 8.25467V36.2975C34.9998 38.5066 33.209 40.2975 30.9998 40.2975H9C6.79086 40.2975 5 38.5066 5 36.2975V4.29749C5 2.08835 6.79086 0.297485 9 0.297485H26.3367L34.9998 8.25467Z" fill="#6172F3"/>
<g filter="url(#filter0_d_304_7671)">
<path d="M34.9998 8.25467H27.3367C26.7844 8.25467 26.3367 7.80696 26.3367 7.25467V0.297485L34.9998 8.25467Z" fill="#C7D7FE"/>
</g>
<path d="M16.5268 26.0135C16.5268 26.3795 16.4428 26.7155 16.2748 27.0215C16.1068 27.3215 15.8488 27.5645 15.5008 27.7505C15.1528 27.9365 14.7208 28.0295 14.2048 28.0295H13.2508V30.2975H11.7118V23.9795H14.2048C14.7088 23.9795 15.1348 24.0665 15.4828 24.2405C15.8308 24.4145 16.0918 24.6545 16.2658 24.9605C16.4398 25.2665 16.5268 25.6175 16.5268 26.0135ZM14.0878 26.8055C14.3818 26.8055 14.6008 26.7365 14.7448 26.5985C14.8888 26.4605 14.9608 26.2655 14.9608 26.0135C14.9608 25.7615 14.8888 25.5665 14.7448 25.4285C14.6008 25.2905 14.3818 25.2215 14.0878 25.2215H13.2508V26.8055H14.0878ZM19.614 30.3605C19.152 30.3605 18.738 30.2855 18.372 30.1355C18.006 29.9855 17.712 29.7635 17.49 29.4695C17.274 29.1755 17.16 28.8215 17.148 28.4075H18.786C18.81 28.6415 18.891 28.8215 19.029 28.9475C19.167 29.0675 19.347 29.1275 19.569 29.1275C19.797 29.1275 19.977 29.0765 20.109 28.9745C20.241 28.8665 20.307 28.7195 20.307 28.5335C20.307 28.3775 20.253 28.2485 20.145 28.1465C20.043 28.0445 19.914 27.9605 19.758 27.8945C19.608 27.8285 19.392 27.7535 19.11 27.6695C18.702 27.5435 18.369 27.4175 18.111 27.2915C17.853 27.1655 17.631 26.9795 17.445 26.7335C17.259 26.4875 17.166 26.1665 17.166 25.7705C17.166 25.1825 17.379 24.7235 17.805 24.3935C18.231 24.0575 18.786 23.8895 19.47 23.8895C20.166 23.8895 20.727 24.0575 21.153 24.3935C21.579 24.7235 21.807 25.1855 21.837 25.7795H20.172C20.16 25.5755 20.085 25.4165 19.947 25.3025C19.809 25.1825 19.632 25.1225 19.416 25.1225C19.23 25.1225 19.08 25.1735 18.966 25.2755C18.852 25.3715 18.795 25.5125 18.795 25.6985C18.795 25.9025 18.891 26.0615 19.083 26.1755C19.275 26.2895 19.575 26.4125 19.983 26.5445C20.391 26.6825 20.721 26.8145 20.973 26.9405C21.231 27.0665 21.453 27.2495 21.639 27.4895C21.825 27.7295 21.918 28.0385 21.918 28.4165C21.918 28.7765 21.825 29.1035 21.639 29.3975C21.459 29.6915 21.195 29.9255 20.847 30.0995C20.499 30.2735 20.088 30.3605 19.614 30.3605ZM25.2321 23.9795C25.8981 23.9795 26.4801 24.1115 26.9781 24.3755C27.4761 24.6395 27.8601 25.0115 28.1301 25.4915C28.4061 25.9655 28.5441 26.5145 28.5441 27.1385C28.5441 27.7565 28.4061 28.3055 28.1301 28.7855C27.8601 29.2655 27.4731 29.6375 26.9691 29.9015C26.4711 30.1655 25.8921 30.2975 25.2321 30.2975H22.8651V23.9795H25.2321ZM25.1331 28.9655C25.7151 28.9655 26.1681 28.8065 26.4921 28.4885C26.8161 28.1705 26.9781 27.7205 26.9781 27.1385C26.9781 26.5565 26.8161 26.1035 26.4921 25.7795C26.1681 25.4555 25.7151 25.2935 25.1331 25.2935H24.4041V28.9655H25.1331Z" fill="white"/>
</g>
<defs>
<filter id="filter0_d_304_7671" x="23.3367" y="-0.702515" width="12.6631" height="11.9572" filterUnits="userSpaceOnUse" color-interpolation-filters="sRGB">
<feFlood flood-opacity="0" result="BackgroundImageFix"/>
<feColorMatrix in="SourceAlpha" type="matrix" values="0 0 0 0 0 0 0 0 0 0 0 0 0 0 0 0 0 0 127 0" result="hardAlpha"/>
<feOffset dx="-1" dy="1"/>
<feGaussianBlur stdDeviation="1"/>
<feComposite in2="hardAlpha" operator="out"/>
<feColorMatrix type="matrix" values="0 0 0 0 0 0 0 0 0 0 0 0 0 0 0 0 0 0 0.2 0"/>
<feBlend mode="normal" in2="BackgroundImageFix" result="effect1_dropShadow_304_7671"/>
<feBlend mode="normal" in="SourceGraphic" in2="effect1_dropShadow_304_7671" result="shape"/>
</filter>
<clipPath id="clip0_304_7671">
<rect width="40" height="40" fill="white" transform="translate(0 0.297485)"/>
</clipPath>
</defs>
</svg>
