<svg width="40" height="41" viewBox="0 0 40 41" fill="none" xmlns="http://www.w3.org/2000/svg">
<g clip-path="url(#clip0_304_8653)">
<path d="M34.9998 8.25467V36.2975C34.9998 38.5066 33.209 40.2975 30.9998 40.2975H9C6.79086 40.2975 5 38.5066 5 36.2975V4.29749C5 2.08835 6.79086 0.297485 9 0.297485H26.3367L34.9998 8.25467Z" fill="#344054"/>
<g filter="url(#filter0_d_304_8653)">
<path d="M34.9998 8.25467H27.3367C26.7844 8.25467 26.3367 7.80696 26.3367 7.25467V0.297485L34.9998 8.25467Z" fill="#E4E7EC"/>
</g>
<path d="M14.591 30.2975L13.277 27.9125H12.908V30.2975H11.369V23.9795H13.952C14.45 23.9795 14.873 24.0665 15.221 24.2405C15.575 24.4145 15.839 24.6545 16.013 24.9605C16.187 25.2605 16.274 25.5965 16.274 25.9685C16.274 26.3885 16.154 26.7635 15.914 27.0935C15.68 27.4235 15.332 27.6575 14.87 27.7955L16.328 30.2975H14.591ZM12.908 26.8235H13.862C14.144 26.8235 14.354 26.7545 14.492 26.6165C14.636 26.4785 14.708 26.2835 14.708 26.0315C14.708 25.7915 14.636 25.6025 14.492 25.4645C14.354 25.3265 14.144 25.2575 13.862 25.2575H12.908V26.8235ZM21.1731 29.1815H18.8151L18.4371 30.2975H16.8261L19.1121 23.9795H20.8941L23.1801 30.2975H21.5511L21.1731 29.1815ZM20.7771 27.9935L19.9941 25.6805L19.2201 27.9935H20.7771ZM27.0979 30.2975L25.7839 27.9125H25.4149V30.2975H23.8759V23.9795H26.4589C26.9569 23.9795 27.3799 24.0665 27.7279 24.2405C28.0819 24.4145 28.3459 24.6545 28.5199 24.9605C28.6939 25.2605 28.7809 25.5965 28.7809 25.9685C28.7809 26.3885 28.6609 26.7635 28.4209 27.0935C28.1869 27.4235 27.8389 27.6575 27.3769 27.7955L28.8349 30.2975H27.0979ZM25.4149 26.8235H26.3689C26.6509 26.8235 26.8609 26.7545 26.9989 26.6165C27.1429 26.4785 27.2149 26.2835 27.2149 26.0315C27.2149 25.7915 27.1429 25.6025 26.9989 25.4645C26.8609 25.3265 26.6509 25.2575 26.3689 25.2575H25.4149V26.8235Z" fill="white"/>
</g>
<defs>
<filter id="filter0_d_304_8653" x="23.3367" y="-0.702515" width="12.6631" height="11.9572" filterUnits="userSpaceOnUse" color-interpolation-filters="sRGB">
<feFlood flood-opacity="0" result="BackgroundImageFix"/>
<feColorMatrix in="SourceAlpha" type="matrix" values="0 0 0 0 0 0 0 0 0 0 0 0 0 0 0 0 0 0 127 0" result="hardAlpha"/>
<feOffset dx="-1" dy="1"/>
<feGaussianBlur stdDeviation="1"/>
<feComposite in2="hardAlpha" operator="out"/>
<feColorMatrix type="matrix" values="0 0 0 0 0 0 0 0 0 0 0 0 0 0 0 0 0 0 0.2 0"/>
<feBlend mode="normal" in2="BackgroundImageFix" result="effect1_dropShadow_304_8653"/>
<feBlend mode="normal" in="SourceGraphic" in2="effect1_dropShadow_304_8653" result="shape"/>
</filter>
<clipPath id="clip0_304_8653">
<rect width="40" height="40" fill="white" transform="translate(0 0.297485)"/>
</clipPath>
</defs>
</svg>
