<svg width="40" height="41" viewBox="0 0 40 41" fill="none" xmlns="http://www.w3.org/2000/svg">
<g clip-path="url(#clip0_304_7677)">
<path d="M34.9998 8.2548V36.2976C34.9998 38.5067 33.209 40.2976 30.9998 40.2976H9C6.79086 40.2976 5 38.5067 5 36.2976V4.29761C5 2.08847 6.79086 0.297607 9 0.297607H26.3367L34.9998 8.2548Z" fill="#2D3282"/>
<g filter="url(#filter0_d_304_7677)">
<path d="M34.9998 8.2548H27.3367C26.7844 8.2548 26.3367 7.80708 26.3367 7.2548V0.297607L34.9998 8.2548Z" fill="#C7D7FE"/>
</g>
<path d="M15.3073 30.2976L13.9933 27.9126H13.6243V30.2976H12.0853V23.9796H14.6683C15.1663 23.9796 15.5893 24.0666 15.9373 24.2406C16.2913 24.4146 16.5553 24.6546 16.7293 24.9606C16.9033 25.2606 16.9903 25.5966 16.9903 25.9686C16.9903 26.3886 16.8703 26.7636 16.6303 27.0936C16.3963 27.4236 16.0483 27.6576 15.5863 27.7956L17.0443 30.2976H15.3073ZM13.6243 26.8236H14.5783C14.8603 26.8236 15.0703 26.7546 15.2083 26.6166C15.3523 26.4786 15.4243 26.2836 15.4243 26.0316C15.4243 25.7916 15.3523 25.6026 15.2083 25.4646C15.0703 25.3266 14.8603 25.2576 14.5783 25.2576H13.6243V26.8236ZM20.2424 30.3606C19.7804 30.3606 19.3664 30.2856 19.0004 30.1356C18.6344 29.9856 18.3404 29.7636 18.1184 29.4696C17.9024 29.1756 17.7884 28.8216 17.7764 28.4076H19.4144C19.4384 28.6416 19.5194 28.8216 19.6574 28.9476C19.7954 29.0676 19.9754 29.1276 20.1974 29.1276C20.4254 29.1276 20.6054 29.0766 20.7374 28.9746C20.8694 28.8666 20.9354 28.7196 20.9354 28.5336C20.9354 28.3776 20.8814 28.2486 20.7734 28.1466C20.6714 28.0446 20.5424 27.9606 20.3864 27.8946C20.2364 27.8286 20.0204 27.7536 19.7384 27.6696C19.3304 27.5436 18.9974 27.4176 18.7394 27.2916C18.4814 27.1656 18.2594 26.9796 18.0734 26.7336C17.8874 26.4876 17.7944 26.1666 17.7944 25.7706C17.7944 25.1826 18.0074 24.7236 18.4334 24.3936C18.8594 24.0576 19.4144 23.8896 20.0984 23.8896C20.7944 23.8896 21.3554 24.0576 21.7814 24.3936C22.2074 24.7236 22.4354 25.1856 22.4654 25.7796H20.8004C20.7884 25.5756 20.7134 25.4166 20.5754 25.3026C20.4374 25.1826 20.2604 25.1226 20.0444 25.1226C19.8584 25.1226 19.7084 25.1736 19.5944 25.2756C19.4804 25.3716 19.4234 25.5126 19.4234 25.6986C19.4234 25.9026 19.5194 26.0616 19.7114 26.1756C19.9034 26.2896 20.2034 26.4126 20.6114 26.5446C21.0194 26.6826 21.3494 26.8146 21.6014 26.9406C21.8594 27.0666 22.0814 27.2496 22.2674 27.4896C22.4534 27.7296 22.5464 28.0386 22.5464 28.4166C22.5464 28.7766 22.4534 29.1036 22.2674 29.3976C22.0874 29.6916 21.8234 29.9256 21.4754 30.0996C21.1274 30.2736 20.7164 30.3606 20.2424 30.3606ZM25.7795 30.3606C25.3175 30.3606 24.9035 30.2856 24.5375 30.1356C24.1715 29.9856 23.8775 29.7636 23.6555 29.4696C23.4395 29.1756 23.3255 28.8216 23.3135 28.4076H24.9515C24.9755 28.6416 25.0565 28.8216 25.1945 28.9476C25.3325 29.0676 25.5125 29.1276 25.7345 29.1276C25.9625 29.1276 26.1425 29.0766 26.2745 28.9746C26.4065 28.8666 26.4725 28.7196 26.4725 28.5336C26.4725 28.3776 26.4185 28.2486 26.3105 28.1466C26.2085 28.0446 26.0795 27.9606 25.9235 27.8946C25.7735 27.8286 25.5575 27.7536 25.2755 27.6696C24.8675 27.5436 24.5345 27.4176 24.2765 27.2916C24.0185 27.1656 23.7965 26.9796 23.6105 26.7336C23.4245 26.4876 23.3315 26.1666 23.3315 25.7706C23.3315 25.1826 23.5445 24.7236 23.9705 24.3936C24.3965 24.0576 24.9515 23.8896 25.6355 23.8896C26.3315 23.8896 26.8925 24.0576 27.3185 24.3936C27.7445 24.7236 27.9725 25.1856 28.0025 25.7796H26.3375C26.3255 25.5756 26.2505 25.4166 26.1125 25.3026C25.9745 25.1826 25.7975 25.1226 25.5815 25.1226C25.3955 25.1226 25.2455 25.1736 25.1315 25.2756C25.0175 25.3716 24.9605 25.5126 24.9605 25.6986C24.9605 25.9026 25.0565 26.0616 25.2485 26.1756C25.4405 26.2896 25.7405 26.4126 26.1485 26.5446C26.5565 26.6826 26.8865 26.8146 27.1385 26.9406C27.3965 27.0666 27.6185 27.2496 27.8045 27.4896C27.9905 27.7296 28.0835 28.0386 28.0835 28.4166C28.0835 28.7766 27.9905 29.1036 27.8045 29.3976C27.6245 29.6916 27.3605 29.9256 27.0125 30.0996C26.6645 30.2736 26.2535 30.3606 25.7795 30.3606Z" fill="white"/>
</g>
<defs>
<filter id="filter0_d_304_7677" x="23.3367" y="-0.702393" width="12.6631" height="11.9572" filterUnits="userSpaceOnUse" color-interpolation-filters="sRGB">
<feFlood flood-opacity="0" result="BackgroundImageFix"/>
<feColorMatrix in="SourceAlpha" type="matrix" values="0 0 0 0 0 0 0 0 0 0 0 0 0 0 0 0 0 0 127 0" result="hardAlpha"/>
<feOffset dx="-1" dy="1"/>
<feGaussianBlur stdDeviation="1"/>
<feComposite in2="hardAlpha" operator="out"/>
<feColorMatrix type="matrix" values="0 0 0 0 0 0 0 0 0 0 0 0 0 0 0 0 0 0 0.2 0"/>
<feBlend mode="normal" in2="BackgroundImageFix" result="effect1_dropShadow_304_7677"/>
<feBlend mode="normal" in="SourceGraphic" in2="effect1_dropShadow_304_7677" result="shape"/>
</filter>
<clipPath id="clip0_304_7677">
<rect width="40" height="40" fill="white" transform="translate(0 0.297607)"/>
</clipPath>
</defs>
</svg>
