<svg width="40" height="41" viewBox="0 0 40 41" fill="none" xmlns="http://www.w3.org/2000/svg">
<g clip-path="url(#clip0_304_7641)">
<path d="M34.9998 8.2548V36.2976C34.9998 38.5067 33.209 40.2976 30.9998 40.2976H9C6.79086 40.2976 5 38.5067 5 36.2976V4.29761C5 2.08847 6.79086 0.297607 9 0.297607H26.3367L34.9998 8.2548Z" fill="#2D3282"/>
<g filter="url(#filter0_d_304_7641)">
<path d="M34.9998 8.2548H27.3367C26.7844 8.2548 26.3367 7.80708 26.3367 7.2548V0.297607L34.9998 8.2548Z" fill="#C7D7FE"/>
</g>
<path d="M14.3845 30.3606C13.9225 30.3606 13.5085 30.2856 13.1425 30.1356C12.7765 29.9856 12.4825 29.7636 12.2605 29.4696C12.0445 29.1756 11.9305 28.8216 11.9185 28.4076H13.5565C13.5805 28.6416 13.6615 28.8216 13.7995 28.9476C13.9375 29.0676 14.1175 29.1276 14.3395 29.1276C14.5675 29.1276 14.7475 29.0766 14.8795 28.9746C15.0115 28.8666 15.0775 28.7196 15.0775 28.5336C15.0775 28.3776 15.0235 28.2486 14.9155 28.1466C14.8135 28.0446 14.6845 27.9606 14.5285 27.8946C14.3785 27.8286 14.1625 27.7536 13.8805 27.6696C13.4725 27.5436 13.1395 27.4176 12.8815 27.2916C12.6235 27.1656 12.4015 26.9796 12.2155 26.7336C12.0295 26.4876 11.9365 26.1666 11.9365 25.7706C11.9365 25.1826 12.1495 24.7236 12.5755 24.3936C13.0015 24.0576 13.5565 23.8896 14.2405 23.8896C14.9365 23.8896 15.4975 24.0576 15.9235 24.3936C16.3495 24.7236 16.5775 25.1856 16.6075 25.7796H14.9425C14.9305 25.5756 14.8555 25.4166 14.7175 25.3026C14.5795 25.1826 14.4025 25.1226 14.1865 25.1226C14.0005 25.1226 13.8505 25.1736 13.7365 25.2756C13.6225 25.3716 13.5655 25.5126 13.5655 25.6986C13.5655 25.9026 13.6615 26.0616 13.8535 26.1756C14.0455 26.2896 14.3455 26.4126 14.7535 26.5446C15.1615 26.6826 15.4915 26.8146 15.7435 26.9406C16.0015 27.0666 16.2235 27.2496 16.4095 27.4896C16.5955 27.7296 16.6885 28.0386 16.6885 28.4166C16.6885 28.7766 16.5955 29.1036 16.4095 29.3976C16.2295 29.6916 15.9655 29.9256 15.6175 30.0996C15.2695 30.2736 14.8585 30.3606 14.3845 30.3606ZM22.1356 31.3776L21.3256 30.2886C21.0856 30.3366 20.8516 30.3606 20.6236 30.3606C20.0296 30.3606 19.4836 30.2226 18.9856 29.9466C18.4936 29.6706 18.1006 29.2866 17.8066 28.7946C17.5186 28.2966 17.3746 27.7386 17.3746 27.1206C17.3746 26.5026 17.5186 25.9476 17.8066 25.4556C18.1006 24.9636 18.4936 24.5796 18.9856 24.3036C19.4836 24.0276 20.0296 23.8896 20.6236 23.8896C21.2176 23.8896 21.7606 24.0276 22.2526 24.3036C22.7506 24.5796 23.1406 24.9636 23.4226 25.4556C23.7106 25.9476 23.8546 26.5026 23.8546 27.1206C23.8546 27.6606 23.7436 28.1556 23.5216 28.6056C23.3056 29.0496 23.0026 29.4186 22.6126 29.7126L23.9986 31.3776H22.1356ZM18.9496 27.1206C18.9496 27.6786 19.0996 28.1256 19.3996 28.4616C19.7056 28.7916 20.1136 28.9566 20.6236 28.9566C21.1276 28.9566 21.5296 28.7886 21.8296 28.4526C22.1356 28.1166 22.2886 27.6726 22.2886 27.1206C22.2886 26.5626 22.1356 26.1186 21.8296 25.7886C21.5296 25.4526 21.1276 25.2846 20.6236 25.2846C20.1136 25.2846 19.7056 25.4496 19.3996 25.7796C19.0996 26.1096 18.9496 26.5566 18.9496 27.1206ZM26.2674 29.1096H28.2834V30.2976H24.7284V23.9796H26.2674V29.1096Z" fill="white"/>
</g>
<defs>
<filter id="filter0_d_304_7641" x="23.3367" y="-0.702393" width="12.6631" height="11.9572" filterUnits="userSpaceOnUse" color-interpolation-filters="sRGB">
<feFlood flood-opacity="0" result="BackgroundImageFix"/>
<feColorMatrix in="SourceAlpha" type="matrix" values="0 0 0 0 0 0 0 0 0 0 0 0 0 0 0 0 0 0 127 0" result="hardAlpha"/>
<feOffset dx="-1" dy="1"/>
<feGaussianBlur stdDeviation="1"/>
<feComposite in2="hardAlpha" operator="out"/>
<feColorMatrix type="matrix" values="0 0 0 0 0 0 0 0 0 0 0 0 0 0 0 0 0 0 0.2 0"/>
<feBlend mode="normal" in2="BackgroundImageFix" result="effect1_dropShadow_304_7641"/>
<feBlend mode="normal" in="SourceGraphic" in2="effect1_dropShadow_304_7641" result="shape"/>
</filter>
<clipPath id="clip0_304_7641">
<rect width="40" height="40" fill="white" transform="translate(0 0.297607)"/>
</clipPath>
</defs>
</svg>
