<svg width="40" height="41" viewBox="0 0 40 41" fill="none" xmlns="http://www.w3.org/2000/svg">
<g clip-path="url(#clip0_304_7605)">
<path d="M34.9998 8.25467V36.2975C34.9998 38.5066 33.209 40.2975 30.9998 40.2975H9C6.79086 40.2975 5 38.5066 5 36.2975V4.29749C5 2.08835 6.79086 0.297485 9 0.297485H26.3367L34.9998 8.25467Z" fill="#DC6803"/>
<g filter="url(#filter0_d_304_7605)">
<path d="M34.9998 8.25467H27.3367C26.7844 8.25467 26.3367 7.80696 26.3367 7.25467V0.297485L34.9998 8.25467Z" fill="#F79009"/>
</g>
<path d="M17.9141 23.9795L16.2671 30.2975H14.4041L13.3961 26.1395L12.3521 30.2975H10.4891L8.88711 23.9795H10.5341L11.4431 28.5785L12.5681 23.9795H14.2601L15.3401 28.5785L16.2581 23.9795H17.9141ZM22.6189 29.1815H20.2609L19.8829 30.2975H18.2719L20.5579 23.9795H22.3399L24.6259 30.2975H22.9969L22.6189 29.1815ZM22.2229 27.9935L21.4399 25.6805L20.6659 27.9935H22.2229ZM31.2527 23.9795L29.0117 30.2975H27.0857L24.8447 23.9795H26.4827L28.0487 28.7495L29.6237 23.9795H31.2527Z" fill="white"/>
</g>
<defs>
<filter id="filter0_d_304_7605" x="23.3367" y="-0.702515" width="12.6631" height="11.9572" filterUnits="userSpaceOnUse" color-interpolation-filters="sRGB">
<feFlood flood-opacity="0" result="BackgroundImageFix"/>
<feColorMatrix in="SourceAlpha" type="matrix" values="0 0 0 0 0 0 0 0 0 0 0 0 0 0 0 0 0 0 127 0" result="hardAlpha"/>
<feOffset dx="-1" dy="1"/>
<feGaussianBlur stdDeviation="1"/>
<feComposite in2="hardAlpha" operator="out"/>
<feColorMatrix type="matrix" values="0 0 0 0 0 0 0 0 0 0 0 0 0 0 0 0 0 0 0.2 0"/>
<feBlend mode="normal" in2="BackgroundImageFix" result="effect1_dropShadow_304_7605"/>
<feBlend mode="normal" in="SourceGraphic" in2="effect1_dropShadow_304_7605" result="shape"/>
</filter>
<clipPath id="clip0_304_7605">
<rect width="40" height="40" fill="white" transform="translate(0 0.297485)"/>
</clipPath>
</defs>
</svg>
