<svg width="40" height="41" viewBox="0 0 40 41" fill="none" xmlns="http://www.w3.org/2000/svg">
<g clip-path="url(#clip0_304_7683)">
<path d="M34.9998 8.2548V36.2976C34.9998 38.5067 33.209 40.2976 30.9998 40.2976H9C6.79086 40.2976 5 38.5067 5 36.2976V4.29761C5 2.08847 6.79086 0.297607 9 0.297607H26.3367L34.9998 8.2548Z" fill="#2D3282"/>
<g filter="url(#filter0_d_304_7683)">
<path d="M34.9998 8.2548H27.3367C26.7844 8.2548 26.3367 7.80708 26.3367 7.2548V0.297607L34.9998 8.2548Z" fill="#C7D7FE"/>
</g>
<path d="M14.9358 30.2976L13.6488 28.3626L12.5148 30.2976H10.7688L12.7938 27.0846L10.7238 23.9796H12.5148L13.7838 25.8876L14.8998 23.9796H16.6458L14.6388 27.1656L16.7268 30.2976H14.9358ZM24.6544 23.9796V30.2976H23.1154V26.5086L21.7024 30.2976H20.4604L19.0384 26.4996V30.2976H17.4994V23.9796H19.3174L21.0904 28.3536L22.8454 23.9796H24.6544ZM27.3001 29.1096H29.3161V30.2976H25.7611V23.9796H27.3001V29.1096Z" fill="white"/>
</g>
<defs>
<filter id="filter0_d_304_7683" x="23.3367" y="-0.702393" width="12.6631" height="11.9572" filterUnits="userSpaceOnUse" color-interpolation-filters="sRGB">
<feFlood flood-opacity="0" result="BackgroundImageFix"/>
<feColorMatrix in="SourceAlpha" type="matrix" values="0 0 0 0 0 0 0 0 0 0 0 0 0 0 0 0 0 0 127 0" result="hardAlpha"/>
<feOffset dx="-1" dy="1"/>
<feGaussianBlur stdDeviation="1"/>
<feComposite in2="hardAlpha" operator="out"/>
<feColorMatrix type="matrix" values="0 0 0 0 0 0 0 0 0 0 0 0 0 0 0 0 0 0 0.2 0"/>
<feBlend mode="normal" in2="BackgroundImageFix" result="effect1_dropShadow_304_7683"/>
<feBlend mode="normal" in="SourceGraphic" in2="effect1_dropShadow_304_7683" result="shape"/>
</filter>
<clipPath id="clip0_304_7683">
<rect width="40" height="40" fill="white" transform="translate(0 0.297607)"/>
</clipPath>
</defs>
</svg>
