<svg width="208" height="251" viewBox="0 0 208 251" fill="none" xmlns="http://www.w3.org/2000/svg">
<g filter="url(#filter0_d_632_75030)">
<path d="M76.8401 204.5C82.0401 213.7 74.6735 225.333 70.3401 230H163.84C165.173 230 170.54 225.1 181.34 205.5C192.14 185.9 184.173 169.667 178.84 164C175.673 169.833 165.64 180.4 150.84 176C132.34 170.5 122.34 136 143.34 122.5C160.14 111.7 170.007 127 172.84 136C177.84 127.667 184.84 108.4 172.84 98C157.84 85 148.84 80 143.34 63.5C137.84 47 125.84 41 105.84 42C89.8401 42.8 87.8401 28.3333 88.8401 21C75.8401 29.5 73.8401 46 88.8401 52C103.84 58 114.34 51.5 125.84 75.5C137.34 99.5 119.34 123 105.84 130.5C92.3401 138 80.3401 128 57.8401 130.5C35.3401 133 20.3401 155 21.3401 186C22.1401 210.8 40.6735 219.667 49.8401 221C48.0068 218.333 45.4401 211.3 49.8401 204.5C55.3401 196 70.3401 193 76.8401 204.5Z" fill="#233B84"/>
</g>
<g filter="url(#filter1_d_632_75030)">
<path d="M98.8404 49C90.0404 49 84.5071 41 82.8404 37C81.3404 49.5 91.8404 49 97.3404 52.5C101.74 55.3 110.84 49.3333 114.84 46C113.174 47 107.64 49 98.8404 49Z" fill="#5D83D6"/>
</g>
<g filter="url(#filter2_d_632_75030)">
<path d="M142.84 110C146.04 105.2 145.84 97 145.34 93.5C147.84 97.8333 152.14 106.7 149.34 107.5C146.54 108.3 142.84 114.833 141.34 118C140.507 117.333 139.64 114.8 142.84 110Z" fill="#5D83D6"/>
<path d="M100.84 149C110.04 135.8 125.006 124.5 131.34 120.5C134.84 128 120.84 143.5 118.84 170.5C116.84 197.5 127.34 195 137.34 202C147.34 209 158.34 195 162.84 202C167.34 209 158.84 221 152.84 225.5C146.84 230 145.34 227.5 137.34 223.5C129.34 219.5 131.34 225.5 120.84 225.5C112.44 225.5 110.34 216.167 110.34 211.5C110.34 221.5 107.34 227.667 105.84 229.5H86.8398C92.6732 222.333 102.54 203.9 95.3398 187.5C86.3398 167 89.3398 165.5 100.84 149Z" fill="#5D83D6"/>
</g>
<g filter="url(#filter3_d_632_75030)">
<path d="M98.3398 92C98.3398 84.8 102.007 80.3333 103.84 79C103.84 81.5 104.24 88 105.84 94C107.84 101.5 107.34 105.5 103.84 107.5C100.34 109.5 98.3398 101 98.3398 92Z" fill="#5D83D6"/>
</g>
<g filter="url(#filter4_d_632_75030)">
<path d="M36.8393 191C35.6393 186.2 41.3393 181.667 44.3393 180C46.3393 183.167 49.1393 190.1 44.3393 192.5C39.5392 194.9 41.006 198.833 42.3394 200.5C41.006 199.333 38.0393 195.8 36.8393 191Z" fill="#5D83D6"/>
</g>
<path d="M87.7928 45.5C84.5928 43.9 84.1261 41.5 84.2928 40.5C82.6927 45.7 89.2928 48.3333 92.7928 49C92.4595 48.5 90.9928 47.1 87.7928 45.5Z" fill="white"/>
<path d="M146.293 98.5C146.41 98.8129 146.533 99.2324 146.632 99.7221C147.094 101.368 147.49 103.206 146.293 106C145.093 108.8 143.459 111.167 142.793 112C143.126 110.833 144.193 107.9 145.793 105.5C147.017 103.663 146.953 101.319 146.632 99.7221C146.515 99.3065 146.394 98.9033 146.293 98.5Z" fill="white"/>
<g filter="url(#filter5_d_632_75030)">
<path d="M100.293 94.5C99.493 90.1 100.626 86.3333 101.293 85C103.693 86.2 103.96 98.8333 103.793 105C102.96 103.333 101.093 98.9 100.293 94.5Z" fill="white"/>
<path d="M95.293 228C101.126 218.833 110.593 196.7 101.793 181.5C92.5412 165.52 106.987 148.125 114.49 139.429C115.613 137.32 116.82 136.064 117.793 135.5C117.078 136.454 115.908 137.786 114.49 139.429C111.96 144.182 109.854 153.263 111.793 168.5C115.293 196 101.793 203.5 119.293 206C136.793 208.5 130.293 210 142.793 210.5C155.293 211 153.793 209 156.793 206C159.793 203 159.793 217.5 155.293 220C150.793 222.5 157.293 217 139.793 220C122.293 223 122.293 226 116.293 218C111.493 211.6 110.793 211.833 110.293 210.5C110.46 213.667 110.093 221.3 107.293 226.5C104.493 231.7 98.1263 229.667 95.293 228Z" fill="white"/>
</g>
<defs>
<filter id="filter0_d_632_75030" x="0.292969" y="0" width="207.414" height="251" filterUnits="userSpaceOnUse" color-interpolation-filters="sRGB">
<feFlood flood-opacity="0" result="BackgroundImageFix"/>
<feColorMatrix in="SourceAlpha" type="matrix" values="0 0 0 0 0 0 0 0 0 0 0 0 0 0 0 0 0 0 127 0" result="hardAlpha"/>
<feOffset/>
<feGaussianBlur stdDeviation="10.5"/>
<feComposite in2="hardAlpha" operator="out"/>
<feColorMatrix type="matrix" values="0 0 0 0 0.0616146 0 0 0 0 0.125125 0 0 0 0 0.379167 0 0 0 1 0"/>
<feBlend mode="normal" in2="BackgroundImageFix" result="effect1_dropShadow_632_75030"/>
<feBlend mode="normal" in="SourceGraphic" in2="effect1_dropShadow_632_75030" result="shape"/>
</filter>
<filter id="filter1_d_632_75030" x="76.2953" y="30.6" width="44.9445" height="29.0263" filterUnits="userSpaceOnUse" color-interpolation-filters="sRGB">
<feFlood flood-opacity="0" result="BackgroundImageFix"/>
<feColorMatrix in="SourceAlpha" type="matrix" values="0 0 0 0 0 0 0 0 0 0 0 0 0 0 0 0 0 0 127 0" result="hardAlpha"/>
<feOffset/>
<feGaussianBlur stdDeviation="3.2"/>
<feComposite in2="hardAlpha" operator="out"/>
<feColorMatrix type="matrix" values="0 0 0 0 0.625 0 0 0 0 0.91875 0 0 0 0 1 0 0 0 1 0"/>
<feBlend mode="normal" in2="BackgroundImageFix" result="effect1_dropShadow_632_75030"/>
<feBlend mode="normal" in="SourceGraphic" in2="effect1_dropShadow_632_75030" result="shape"/>
</filter>
<filter id="filter2_d_632_75030" x="80.4398" y="87.1" width="90.0637" height="148.8" filterUnits="userSpaceOnUse" color-interpolation-filters="sRGB">
<feFlood flood-opacity="0" result="BackgroundImageFix"/>
<feColorMatrix in="SourceAlpha" type="matrix" values="0 0 0 0 0 0 0 0 0 0 0 0 0 0 0 0 0 0 127 0" result="hardAlpha"/>
<feOffset/>
<feGaussianBlur stdDeviation="3.2"/>
<feComposite in2="hardAlpha" operator="out"/>
<feColorMatrix type="matrix" values="0 0 0 0 0.625 0 0 0 0 0.91875 0 0 0 0 1 0 0 0 1 0"/>
<feBlend mode="normal" in2="BackgroundImageFix" result="effect1_dropShadow_632_75030"/>
<feBlend mode="normal" in="SourceGraphic" in2="effect1_dropShadow_632_75030" result="shape"/>
</filter>
<filter id="filter3_d_632_75030" x="91.9398" y="72.6" width="21.4699" height="41.5949" filterUnits="userSpaceOnUse" color-interpolation-filters="sRGB">
<feFlood flood-opacity="0" result="BackgroundImageFix"/>
<feColorMatrix in="SourceAlpha" type="matrix" values="0 0 0 0 0 0 0 0 0 0 0 0 0 0 0 0 0 0 127 0" result="hardAlpha"/>
<feOffset/>
<feGaussianBlur stdDeviation="3.2"/>
<feComposite in2="hardAlpha" operator="out"/>
<feColorMatrix type="matrix" values="0 0 0 0 0.625 0 0 0 0 0.91875 0 0 0 0 1 0 0 0 1 0"/>
<feBlend mode="normal" in2="BackgroundImageFix" result="effect1_dropShadow_632_75030"/>
<feBlend mode="normal" in="SourceGraphic" in2="effect1_dropShadow_632_75030" result="shape"/>
</filter>
<filter id="filter4_d_632_75030" x="30.2758" y="173.6" width="23.1145" height="33.3" filterUnits="userSpaceOnUse" color-interpolation-filters="sRGB">
<feFlood flood-opacity="0" result="BackgroundImageFix"/>
<feColorMatrix in="SourceAlpha" type="matrix" values="0 0 0 0 0 0 0 0 0 0 0 0 0 0 0 0 0 0 127 0" result="hardAlpha"/>
<feOffset/>
<feGaussianBlur stdDeviation="3.2"/>
<feComposite in2="hardAlpha" operator="out"/>
<feColorMatrix type="matrix" values="0 0 0 0 0.625 0 0 0 0 0.91875 0 0 0 0 1 0 0 0 1 0"/>
<feBlend mode="normal" in2="BackgroundImageFix" result="effect1_dropShadow_632_75030"/>
<feBlend mode="normal" in="SourceGraphic" in2="effect1_dropShadow_632_75030" result="shape"/>
</filter>
<filter id="filter5_d_632_75030" x="85.393" y="75.1" width="83.3898" height="164.629" filterUnits="userSpaceOnUse" color-interpolation-filters="sRGB">
<feFlood flood-opacity="0" result="BackgroundImageFix"/>
<feColorMatrix in="SourceAlpha" type="matrix" values="0 0 0 0 0 0 0 0 0 0 0 0 0 0 0 0 0 0 127 0" result="hardAlpha"/>
<feOffset/>
<feGaussianBlur stdDeviation="4.95"/>
<feComposite in2="hardAlpha" operator="out"/>
<feColorMatrix type="matrix" values="0 0 0 0 0.870833 0 0 0 0 0.976319 0 0 0 0 1 0 0 0 1 0"/>
<feBlend mode="normal" in2="BackgroundImageFix" result="effect1_dropShadow_632_75030"/>
<feBlend mode="normal" in="SourceGraphic" in2="effect1_dropShadow_632_75030" result="shape"/>
</filter>
</defs>
</svg>
