<svg width="25" height="25" viewBox="0 0 25 25" fill="none" xmlns="http://www.w3.org/2000/svg">
<g clip-path="url(#clip0_766_1837)">
<path d="M18.8 6.29106C18.41 5.90106 17.78 5.90106 17.39 6.29106L12.5 11.1711L7.61 6.28106C7.22 5.89106 6.59 5.89106 6.2 6.28106C5.81 6.67106 5.81 7.30106 6.2 7.69106L11.09 12.5811L6.2 17.4711C5.81 17.8611 5.81 18.4911 6.2 18.8811C6.59 19.2711 7.22 19.2711 7.61 18.8811L12.5 13.9911L17.39 18.8811C17.78 19.2711 18.41 19.2711 18.8 18.8811C19.19 18.4911 19.19 17.8611 18.8 17.4711L13.91 12.5811L18.8 7.69106C19.18 7.31106 19.18 6.67106 18.8 6.29106Z" fill="white"/>
</g>
<defs>
<clipPath id="clip0_766_1837">
<rect width="24" height="24" fill="white" transform="translate(0.5 0.581055)"/>
</clipPath>
</defs>
</svg>
